ISO-10303-21;
HEADER;
/* Generated by software containing ST-Developer
 * from STEP Tools, Inc. (www.steptools.com) 
 */
/* OPTION: using custom renumber hook */

FILE_DESCRIPTION(
/* description */ ('STEP AP242 Edition 2',
'CAx-IF Rec.Pracs.---Representation and Presentation of Product Manufa
cturing Information (PMI)---4.0---2014-10-13',
'CAx-IF Rec.Pracs.---3D Tessellated Geometry---0.4---2014-09-14','2;1',
'CAx-IF Rec.Pracs.---User Defined Attributes---1.5---2016-08-15'),
/* implementation_level */ '2;1');

FILE_NAME(
/* name */ 'case - body',
/* time_stamp */ '2026-09-28T14:23:55Z',
/* author */ (''),
/* organization */ (''),
/* preprocessor_version */ 'ST-DEVELOPER v20',
/* originating_system */ 'ONSHAPE BY PTC INC, 1.221',
/* authorisation */ '  ');

FILE_SCHEMA (('AP242_MANAGED_MODEL_BASED_3D_ENGINEERING_MIM_LF { 1 0 10303 442 3 1 4 }'));
ENDSEC;

DATA;
#10=SHAPE_REPRESENTATION_RELATIONSHIP('','',#391,#11);
#11=ADVANCED_BREP_SHAPE_REPRESENTATION('',(#389),#619);
#12=CIRCLE('',#400,0.00145);
#13=CIRCLE('',#401,0.00145);
#14=CIRCLE('',#403,0.00145);
#15=CIRCLE('',#404,0.00145);
#16=CIRCLE('',#406,0.00145);
#17=CIRCLE('',#407,0.00145);
#18=CIRCLE('',#409,0.00145);
#19=CIRCLE('',#410,0.00145);
#20=CYLINDRICAL_SURFACE('',#399,0.00145);
#21=CYLINDRICAL_SURFACE('',#402,0.00145);
#22=CYLINDRICAL_SURFACE('',#405,0.00145);
#23=CYLINDRICAL_SURFACE('',#408,0.00145);
#24=ORIENTED_EDGE('',*,*,#120,.F.);
#25=ORIENTED_EDGE('',*,*,#121,.T.);
#26=ORIENTED_EDGE('',*,*,#122,.F.);
#27=ORIENTED_EDGE('',*,*,#123,.F.);
#28=ORIENTED_EDGE('',*,*,#124,.F.);
#29=ORIENTED_EDGE('',*,*,#125,.F.);
#30=ORIENTED_EDGE('',*,*,#126,.T.);
#31=ORIENTED_EDGE('',*,*,#127,.T.);
#32=ORIENTED_EDGE('',*,*,#128,.T.);
#33=ORIENTED_EDGE('',*,*,#129,.F.);
#34=ORIENTED_EDGE('',*,*,#130,.F.);
#35=ORIENTED_EDGE('',*,*,#125,.T.);
#36=ORIENTED_EDGE('',*,*,#131,.T.);
#37=ORIENTED_EDGE('',*,*,#132,.F.);
#38=ORIENTED_EDGE('',*,*,#133,.F.);
#39=ORIENTED_EDGE('',*,*,#129,.T.);
#40=ORIENTED_EDGE('',*,*,#134,.F.);
#41=ORIENTED_EDGE('',*,*,#135,.F.);
#42=ORIENTED_EDGE('',*,*,#136,.T.);
#43=ORIENTED_EDGE('',*,*,#137,.T.);
#44=ORIENTED_EDGE('',*,*,#138,.F.);
#45=ORIENTED_EDGE('',*,*,#139,.T.);
#46=ORIENTED_EDGE('',*,*,#140,.T.);
#47=ORIENTED_EDGE('',*,*,#141,.F.);
#48=ORIENTED_EDGE('',*,*,#142,.F.);
#49=ORIENTED_EDGE('',*,*,#135,.T.);
#50=ORIENTED_EDGE('',*,*,#143,.T.);
#51=ORIENTED_EDGE('',*,*,#144,.F.);
#52=ORIENTED_EDGE('',*,*,#141,.T.);
#53=ORIENTED_EDGE('',*,*,#145,.T.);
#54=ORIENTED_EDGE('',*,*,#146,.F.);
#55=ORIENTED_EDGE('',*,*,#147,.F.);
#56=ORIENTED_EDGE('',*,*,#148,.T.);
#57=ORIENTED_EDGE('',*,*,#149,.F.);
#58=ORIENTED_EDGE('',*,*,#150,.T.);
#59=ORIENTED_EDGE('',*,*,#151,.F.);
#60=ORIENTED_EDGE('',*,*,#152,.T.);
#61=ORIENTED_EDGE('',*,*,#153,.F.);
#62=ORIENTED_EDGE('',*,*,#154,.T.);
#63=ORIENTED_EDGE('',*,*,#155,.F.);
#64=ORIENTED_EDGE('',*,*,#156,.F.);
#65=ORIENTED_EDGE('',*,*,#137,.F.);
#66=ORIENTED_EDGE('',*,*,#157,.T.);
#67=ORIENTED_EDGE('',*,*,#146,.T.);
#68=ORIENTED_EDGE('',*,*,#158,.F.);
#69=ORIENTED_EDGE('',*,*,#127,.F.);
#70=ORIENTED_EDGE('',*,*,#159,.T.);
#71=ORIENTED_EDGE('',*,*,#132,.T.);
#72=ORIENTED_EDGE('',*,*,#136,.F.);
#73=ORIENTED_EDGE('',*,*,#142,.T.);
#74=ORIENTED_EDGE('',*,*,#147,.T.);
#75=ORIENTED_EDGE('',*,*,#157,.F.);
#76=ORIENTED_EDGE('',*,*,#154,.F.);
#77=ORIENTED_EDGE('',*,*,#152,.F.);
#78=ORIENTED_EDGE('',*,*,#150,.F.);
#79=ORIENTED_EDGE('',*,*,#148,.F.);
#80=ORIENTED_EDGE('',*,*,#126,.F.);
#81=ORIENTED_EDGE('',*,*,#130,.T.);
#82=ORIENTED_EDGE('',*,*,#133,.T.);
#83=ORIENTED_EDGE('',*,*,#159,.F.);
#84=ORIENTED_EDGE('',*,*,#155,.T.);
#85=ORIENTED_EDGE('',*,*,#153,.T.);
#86=ORIENTED_EDGE('',*,*,#151,.T.);
#87=ORIENTED_EDGE('',*,*,#149,.T.);
#88=ORIENTED_EDGE('',*,*,#124,.T.);
#89=ORIENTED_EDGE('',*,*,#160,.T.);
#90=ORIENTED_EDGE('',*,*,#161,.F.);
#91=ORIENTED_EDGE('',*,*,#162,.F.);
#92=ORIENTED_EDGE('',*,*,#120,.T.);
#93=ORIENTED_EDGE('',*,*,#158,.T.);
#94=ORIENTED_EDGE('',*,*,#131,.F.);
#95=ORIENTED_EDGE('',*,*,#128,.F.);
#96=ORIENTED_EDGE('',*,*,#143,.F.);
#97=ORIENTED_EDGE('',*,*,#134,.T.);
#98=ORIENTED_EDGE('',*,*,#156,.T.);
#99=ORIENTED_EDGE('',*,*,#145,.F.);
#100=ORIENTED_EDGE('',*,*,#140,.F.);
#101=ORIENTED_EDGE('',*,*,#163,.F.);
#102=ORIENTED_EDGE('',*,*,#162,.T.);
#103=ORIENTED_EDGE('',*,*,#164,.F.);
#104=ORIENTED_EDGE('',*,*,#139,.F.);
#105=ORIENTED_EDGE('',*,*,#165,.F.);
#106=ORIENTED_EDGE('',*,*,#121,.F.);
#107=ORIENTED_EDGE('',*,*,#122,.T.);
#108=ORIENTED_EDGE('',*,*,#165,.T.);
#109=ORIENTED_EDGE('',*,*,#138,.T.);
#110=ORIENTED_EDGE('',*,*,#166,.F.);
#111=ORIENTED_EDGE('',*,*,#123,.T.);
#112=ORIENTED_EDGE('',*,*,#166,.T.);
#113=ORIENTED_EDGE('',*,*,#144,.T.);
#114=ORIENTED_EDGE('',*,*,#167,.T.);
#115=ORIENTED_EDGE('',*,*,#160,.F.);
#116=ORIENTED_EDGE('',*,*,#163,.T.);
#117=ORIENTED_EDGE('',*,*,#164,.T.);
#118=ORIENTED_EDGE('',*,*,#161,.T.);
#119=ORIENTED_EDGE('',*,*,#167,.F.);
#120=EDGE_CURVE('',#168,#169,#202,.T.);
#121=EDGE_CURVE('',#168,#170,#203,.T.);
#122=EDGE_CURVE('',#171,#170,#204,.T.);
#123=EDGE_CURVE('',#172,#171,#205,.T.);
#124=EDGE_CURVE('',#173,#172,#206,.T.);
#125=EDGE_CURVE('',#174,#173,#207,.T.);
#126=EDGE_CURVE('',#174,#175,#208,.T.);
#127=EDGE_CURVE('',#175,#169,#209,.T.);
#128=EDGE_CURVE('',#173,#176,#210,.T.);
#129=EDGE_CURVE('',#177,#176,#211,.T.);
#130=EDGE_CURVE('',#174,#177,#212,.T.);
#131=EDGE_CURVE('',#176,#178,#213,.T.);
#132=EDGE_CURVE('',#179,#178,#214,.T.);
#133=EDGE_CURVE('',#177,#179,#215,.T.);
#134=EDGE_CURVE('',#180,#181,#216,.T.);
#135=EDGE_CURVE('',#182,#180,#217,.T.);
#136=EDGE_CURVE('',#182,#183,#218,.T.);
#137=EDGE_CURVE('',#183,#181,#219,.T.);
#138=EDGE_CURVE('',#184,#185,#220,.T.);
#139=EDGE_CURVE('',#184,#186,#221,.T.);
#140=EDGE_CURVE('',#186,#187,#222,.T.);
#141=EDGE_CURVE('',#188,#187,#223,.T.);
#142=EDGE_CURVE('',#182,#188,#224,.T.);
#143=EDGE_CURVE('',#180,#189,#225,.T.);
#144=EDGE_CURVE('',#185,#189,#226,.T.);
#145=EDGE_CURVE('',#187,#190,#227,.T.);
#146=EDGE_CURVE('',#191,#190,#228,.T.);
#147=EDGE_CURVE('',#188,#191,#229,.T.);
#148=EDGE_CURVE('',#192,#192,#12,.T.);
#149=EDGE_CURVE('',#193,#193,#13,.T.);
#150=EDGE_CURVE('',#194,#194,#14,.T.);
#151=EDGE_CURVE('',#195,#195,#15,.T.);
#152=EDGE_CURVE('',#196,#196,#16,.T.);
#153=EDGE_CURVE('',#197,#197,#17,.T.);
#154=EDGE_CURVE('',#198,#198,#18,.T.);
#155=EDGE_CURVE('',#199,#199,#19,.T.);
#156=EDGE_CURVE('',#181,#190,#230,.T.);
#157=EDGE_CURVE('',#183,#191,#231,.T.);
#158=EDGE_CURVE('',#169,#178,#232,.T.);
#159=EDGE_CURVE('',#175,#179,#233,.T.);
#160=EDGE_CURVE('',#172,#200,#234,.T.);
#161=EDGE_CURVE('',#201,#200,#235,.T.);
#162=EDGE_CURVE('',#168,#201,#236,.T.);
#163=EDGE_CURVE('',#189,#186,#237,.T.);
#164=EDGE_CURVE('',#186,#201,#238,.T.);
#165=EDGE_CURVE('',#170,#184,#239,.T.);
#166=EDGE_CURVE('',#171,#185,#240,.T.);
#167=EDGE_CURVE('',#189,#200,#241,.T.);
#168=VERTEX_POINT('',#519);
#169=VERTEX_POINT('',#520);
#170=VERTEX_POINT('',#522);
#171=VERTEX_POINT('',#524);
#172=VERTEX_POINT('',#526);
#173=VERTEX_POINT('',#528);
#174=VERTEX_POINT('',#530);
#175=VERTEX_POINT('',#532);
#176=VERTEX_POINT('',#536);
#177=VERTEX_POINT('',#538);
#178=VERTEX_POINT('',#542);
#179=VERTEX_POINT('',#544);
#180=VERTEX_POINT('',#548);
#181=VERTEX_POINT('',#549);
#182=VERTEX_POINT('',#551);
#183=VERTEX_POINT('',#553);
#184=VERTEX_POINT('',#557);
#185=VERTEX_POINT('',#558);
#186=VERTEX_POINT('',#560);
#187=VERTEX_POINT('',#562);
#188=VERTEX_POINT('',#564);
#189=VERTEX_POINT('',#567);
#190=VERTEX_POINT('',#571);
#191=VERTEX_POINT('',#573);
#192=VERTEX_POINT('',#577);
#193=VERTEX_POINT('',#579);
#194=VERTEX_POINT('',#582);
#195=VERTEX_POINT('',#584);
#196=VERTEX_POINT('',#587);
#197=VERTEX_POINT('',#589);
#198=VERTEX_POINT('',#592);
#199=VERTEX_POINT('',#594);
#200=VERTEX_POINT('',#604);
#201=VERTEX_POINT('',#606);
#202=LINE('',#518,#242);
#203=LINE('',#521,#243);
#204=LINE('',#523,#244);
#205=LINE('',#525,#245);
#206=LINE('',#527,#246);
#207=LINE('',#529,#247);
#208=LINE('',#531,#248);
#209=LINE('',#533,#249);
#210=LINE('',#535,#250);
#211=LINE('',#537,#251);
#212=LINE('',#539,#252);
#213=LINE('',#541,#253);
#214=LINE('',#543,#254);
#215=LINE('',#545,#255);
#216=LINE('',#547,#256);
#217=LINE('',#550,#257);
#218=LINE('',#552,#258);
#219=LINE('',#554,#259);
#220=LINE('',#556,#260);
#221=LINE('',#559,#261);
#222=LINE('',#561,#262);
#223=LINE('',#563,#263);
#224=LINE('',#565,#264);
#225=LINE('',#566,#265);
#226=LINE('',#568,#266);
#227=LINE('',#570,#267);
#228=LINE('',#572,#268);
#229=LINE('',#574,#269);
#230=LINE('',#596,#270);
#231=LINE('',#597,#271);
#232=LINE('',#599,#272);
#233=LINE('',#600,#273);
#234=LINE('',#603,#274);
#235=LINE('',#605,#275);
#236=LINE('',#607,#276);
#237=LINE('',#609,#277);
#238=LINE('',#611,#278);
#239=LINE('',#612,#279);
#240=LINE('',#614,#280);
#241=LINE('',#616,#281);
#242=VECTOR('',#424,1.);
#243=VECTOR('',#425,1.);
#244=VECTOR('',#426,1.);
#245=VECTOR('',#427,1.);
#246=VECTOR('',#428,1.);
#247=VECTOR('',#429,1.);
#248=VECTOR('',#430,1.);
#249=VECTOR('',#431,1.);
#250=VECTOR('',#434,1.);
#251=VECTOR('',#435,1.);
#252=VECTOR('',#436,1.);
#253=VECTOR('',#439,1.);
#254=VECTOR('',#440,1.);
#255=VECTOR('',#441,1.);
#256=VECTOR('',#444,1.);
#257=VECTOR('',#445,1.);
#258=VECTOR('',#446,1.);
#259=VECTOR('',#447,1.);
#260=VECTOR('',#450,1.);
#261=VECTOR('',#451,1.);
#262=VECTOR('',#452,1.);
#263=VECTOR('',#453,1.);
#264=VECTOR('',#454,1.);
#265=VECTOR('',#455,1.);
#266=VECTOR('',#456,1.);
#267=VECTOR('',#459,1.);
#268=VECTOR('',#460,1.);
#269=VECTOR('',#461,1.);
#270=VECTOR('',#488,1.);
#271=VECTOR('',#489,1.);
#272=VECTOR('',#492,1.);
#273=VECTOR('',#493,1.);
#274=VECTOR('',#498,1.);
#275=VECTOR('',#499,1.);
#276=VECTOR('',#500,1.);
#277=VECTOR('',#503,1.);
#278=VECTOR('',#506,1.);
#279=VECTOR('',#507,1.);
#280=VECTOR('',#510,1.);
#281=VECTOR('',#513,1.);
#282=EDGE_LOOP('',(#24,#25,#26,#27,#28,#29,#30,#31));
#283=EDGE_LOOP('',(#32,#33,#34,#35));
#284=EDGE_LOOP('',(#36,#37,#38,#39));
#285=EDGE_LOOP('',(#40,#41,#42,#43));
#286=EDGE_LOOP('',(#44,#45,#46,#47,#48,#49,#50,#51));
#287=EDGE_LOOP('',(#52,#53,#54,#55));
#288=EDGE_LOOP('',(#56));
#289=EDGE_LOOP('',(#57));
#290=EDGE_LOOP('',(#58));
#291=EDGE_LOOP('',(#59));
#292=EDGE_LOOP('',(#60));
#293=EDGE_LOOP('',(#61));
#294=EDGE_LOOP('',(#62));
#295=EDGE_LOOP('',(#63));
#296=EDGE_LOOP('',(#64,#65,#66,#67));
#297=EDGE_LOOP('',(#68,#69,#70,#71));
#298=EDGE_LOOP('',(#72,#73,#74,#75));
#299=EDGE_LOOP('',(#76));
#300=EDGE_LOOP('',(#77));
#301=EDGE_LOOP('',(#78));
#302=EDGE_LOOP('',(#79));
#303=EDGE_LOOP('',(#80,#81,#82,#83));
#304=EDGE_LOOP('',(#84));
#305=EDGE_LOOP('',(#85));
#306=EDGE_LOOP('',(#86));
#307=EDGE_LOOP('',(#87));
#308=EDGE_LOOP('',(#88,#89,#90,#91,#92,#93,#94,#95));
#309=EDGE_LOOP('',(#96,#97,#98,#99,#100,#101));
#310=EDGE_LOOP('',(#102,#103,#104,#105,#106));
#311=EDGE_LOOP('',(#107,#108,#109,#110));
#312=EDGE_LOOP('',(#111,#112,#113,#114,#115));
#313=EDGE_LOOP('',(#116,#117,#118,#119));
#314=FACE_BOUND('',#282,.T.);
#315=FACE_BOUND('',#283,.T.);
#316=FACE_BOUND('',#284,.T.);
#317=FACE_BOUND('',#285,.T.);
#318=FACE_BOUND('',#286,.T.);
#319=FACE_BOUND('',#287,.T.);
#320=FACE_BOUND('',#288,.T.);
#321=FACE_BOUND('',#289,.T.);
#322=FACE_BOUND('',#290,.T.);
#323=FACE_BOUND('',#291,.T.);
#324=FACE_BOUND('',#292,.T.);
#325=FACE_BOUND('',#293,.T.);
#326=FACE_BOUND('',#294,.T.);
#327=FACE_BOUND('',#295,.T.);
#328=FACE_BOUND('',#296,.T.);
#329=FACE_BOUND('',#297,.T.);
#330=FACE_BOUND('',#298,.T.);
#331=FACE_BOUND('',#299,.T.);
#332=FACE_BOUND('',#300,.T.);
#333=FACE_BOUND('',#301,.T.);
#334=FACE_BOUND('',#302,.T.);
#335=FACE_BOUND('',#303,.T.);
#336=FACE_BOUND('',#304,.T.);
#337=FACE_BOUND('',#305,.T.);
#338=FACE_BOUND('',#306,.T.);
#339=FACE_BOUND('',#307,.T.);
#340=FACE_BOUND('',#308,.T.);
#341=FACE_BOUND('',#309,.T.);
#342=FACE_BOUND('',#310,.T.);
#343=FACE_BOUND('',#311,.T.);
#344=FACE_BOUND('',#312,.T.);
#345=FACE_BOUND('',#313,.T.);
#346=PLANE('',#393);
#347=PLANE('',#394);
#348=PLANE('',#395);
#349=PLANE('',#396);
#350=PLANE('',#397);
#351=PLANE('',#398);
#352=PLANE('',#411);
#353=PLANE('',#412);
#354=PLANE('',#413);
#355=PLANE('',#414);
#356=PLANE('',#415);
#357=PLANE('',#416);
#358=PLANE('',#417);
#359=PLANE('',#418);
#360=PLANE('',#419);
#361=ADVANCED_FACE('',(#314),#346,.T.);
#362=ADVANCED_FACE('',(#315),#347,.F.);
#363=ADVANCED_FACE('',(#316),#348,.F.);
#364=ADVANCED_FACE('',(#317),#349,.T.);
#365=ADVANCED_FACE('',(#318),#350,.F.);
#366=ADVANCED_FACE('',(#319),#351,.F.);
#367=ADVANCED_FACE('',(#320,#321),#20,.F.);
#368=ADVANCED_FACE('',(#322,#323),#21,.F.);
#369=ADVANCED_FACE('',(#324,#325),#22,.F.);
#370=ADVANCED_FACE('',(#326,#327),#23,.F.);
#371=ADVANCED_FACE('',(#328),#352,.T.);
#372=ADVANCED_FACE('',(#329),#353,.T.);
#373=ADVANCED_FACE('',(#330,#331,#332,#333,#334,#335),#354,.T.);
#374=ADVANCED_FACE('',(#336,#337,#338,#339,#340),#355,.F.);
#375=ADVANCED_FACE('',(#341),#356,.T.);
#376=ADVANCED_FACE('',(#342),#357,.T.);
#377=ADVANCED_FACE('',(#343),#358,.F.);
#378=ADVANCED_FACE('',(#344),#359,.F.);
#379=ADVANCED_FACE('',(#345),#360,.F.);
#380=CLOSED_SHELL('',(#361,#362,#363,#364,#365,#366,#367,#368,#369,#370,
#371,#372,#373,#374,#375,#376,#377,#378,#379));
#381=STYLED_ITEM('',(#382),#389);
#382=PRESENTATION_STYLE_ASSIGNMENT((#383));
#383=SURFACE_STYLE_USAGE(.BOTH.,#384);
#384=SURFACE_SIDE_STYLE('',(#385));
#385=SURFACE_STYLE_FILL_AREA(#386);
#386=FILL_AREA_STYLE('',(#387));
#387=FILL_AREA_STYLE_COLOUR('',#388);
#388=COLOUR_RGB('',0.447058823529412,0.243137254901961,0.);
#389=MANIFOLD_SOLID_BREP('body',#380);
#390=SHAPE_DEFINITION_REPRESENTATION(#624,#391);
#391=SHAPE_REPRESENTATION('body',(#392),#619);
#392=AXIS2_PLACEMENT_3D('',#516,#420,#421);
#393=AXIS2_PLACEMENT_3D('',#517,#422,#423);
#394=AXIS2_PLACEMENT_3D('',#534,#432,#433);
#395=AXIS2_PLACEMENT_3D('',#540,#437,#438);
#396=AXIS2_PLACEMENT_3D('',#546,#442,#443);
#397=AXIS2_PLACEMENT_3D('',#555,#448,#449);
#398=AXIS2_PLACEMENT_3D('',#569,#457,#458);
#399=AXIS2_PLACEMENT_3D('',#575,#462,#463);
#400=AXIS2_PLACEMENT_3D('',#576,#464,#465);
#401=AXIS2_PLACEMENT_3D('',#578,#466,#467);
#402=AXIS2_PLACEMENT_3D('',#580,#468,#469);
#403=AXIS2_PLACEMENT_3D('',#581,#470,#471);
#404=AXIS2_PLACEMENT_3D('',#583,#472,#473);
#405=AXIS2_PLACEMENT_3D('',#585,#474,#475);
#406=AXIS2_PLACEMENT_3D('',#586,#476,#477);
#407=AXIS2_PLACEMENT_3D('',#588,#478,#479);
#408=AXIS2_PLACEMENT_3D('',#590,#480,#481);
#409=AXIS2_PLACEMENT_3D('',#591,#482,#483);
#410=AXIS2_PLACEMENT_3D('',#593,#484,#485);
#411=AXIS2_PLACEMENT_3D('',#595,#486,#487);
#412=AXIS2_PLACEMENT_3D('',#598,#490,#491);
#413=AXIS2_PLACEMENT_3D('',#601,#494,#495);
#414=AXIS2_PLACEMENT_3D('',#602,#496,#497);
#415=AXIS2_PLACEMENT_3D('',#608,#501,#502);
#416=AXIS2_PLACEMENT_3D('',#610,#504,#505);
#417=AXIS2_PLACEMENT_3D('',#613,#508,#509);
#418=AXIS2_PLACEMENT_3D('',#615,#511,#512);
#419=AXIS2_PLACEMENT_3D('',#617,#514,#515);
#420=DIRECTION('',(0.,0.,1.));
#421=DIRECTION('',(1.,0.,0.));
#422=DIRECTION('',(0.,1.,0.));
#423=DIRECTION('',(0.,0.,1.));
#424=DIRECTION('',(1.,0.,0.));
#425=DIRECTION('',(0.,0.,1.));
#426=DIRECTION('',(1.,0.,1.44560289664734E-16));
#427=DIRECTION('',(0.,0.,1.));
#428=DIRECTION('',(1.,0.,0.));
#429=DIRECTION('',(0.,0.,-1.));
#430=DIRECTION('',(1.,0.,0.));
#431=DIRECTION('',(0.,0.,-1.));
#432=DIRECTION('',(1.,6.05488124250195E-17,0.));
#433=DIRECTION('',(-6.05488124250195E-17,1.,0.));
#434=DIRECTION('',(6.05488124250195E-17,-1.,0.));
#435=DIRECTION('',(0.,0.,-1.));
#436=DIRECTION('',(6.05488124250195E-17,-1.,0.));
#437=DIRECTION('',(0.,1.,0.));
#438=DIRECTION('',(0.,0.,1.));
#439=DIRECTION('',(1.,0.,0.));
#440=DIRECTION('',(0.,0.,-1.));
#441=DIRECTION('',(1.,0.,0.));
#442=DIRECTION('',(1.,0.,0.));
#443=DIRECTION('',(0.,0.,-1.));
#444=DIRECTION('',(0.,-1.,0.));
#445=DIRECTION('',(0.,0.,-1.));
#446=DIRECTION('',(0.,-1.,0.));
#447=DIRECTION('',(0.,0.,-1.));
#448=DIRECTION('',(0.,1.,0.));
#449=DIRECTION('',(0.,0.,1.));
#450=DIRECTION('',(-1.,0.,-1.44560289664734E-16));
#451=DIRECTION('',(0.,0.,-1.));
#452=DIRECTION('',(1.,0.,0.));
#453=DIRECTION('',(0.,0.,-1.));
#454=DIRECTION('',(1.,0.,0.));
#455=DIRECTION('',(1.,0.,0.));
#456=DIRECTION('',(0.,0.,-1.));
#457=DIRECTION('',(1.,0.,0.));
#458=DIRECTION('',(0.,0.,-1.));
#459=DIRECTION('',(0.,-1.,0.));
#460=DIRECTION('',(0.,0.,-1.));
#461=DIRECTION('',(0.,-1.,0.));
#462=DIRECTION('',(0.,0.,-1.));
#463=DIRECTION('',(-1.,0.,0.));
#464=DIRECTION('',(0.,0.,1.));
#465=DIRECTION('',(1.,0.,0.));
#466=DIRECTION('',(0.,0.,1.));
#467=DIRECTION('',(1.,0.,0.));
#468=DIRECTION('',(0.,0.,-1.));
#469=DIRECTION('',(-1.,0.,0.));
#470=DIRECTION('',(0.,0.,1.));
#471=DIRECTION('',(0.0871557427476583,-0.996194698091746,0.));
#472=DIRECTION('',(0.,0.,1.));
#473=DIRECTION('',(0.0871557427476583,-0.996194698091746,0.));
#474=DIRECTION('',(0.,0.,-1.));
#475=DIRECTION('',(-1.,0.,0.));
#476=DIRECTION('',(0.,0.,1.));
#477=DIRECTION('',(1.,0.,0.));
#478=DIRECTION('',(0.,0.,1.));
#479=DIRECTION('',(1.,0.,0.));
#480=DIRECTION('',(0.,0.,-1.));
#481=DIRECTION('',(-1.,0.,0.));
#482=DIRECTION('',(0.,0.,1.));
#483=DIRECTION('',(1.,0.,0.));
#484=DIRECTION('',(0.,0.,1.));
#485=DIRECTION('',(1.,0.,0.));
#486=DIRECTION('',(0.,1.,0.));
#487=DIRECTION('',(0.,0.,1.));
#488=DIRECTION('',(1.,0.,0.));
#489=DIRECTION('',(1.,0.,0.));
#490=DIRECTION('',(1.,0.,0.));
#491=DIRECTION('',(0.,0.,-1.));
#492=DIRECTION('',(0.,-1.,0.));
#493=DIRECTION('',(0.,-1.,0.));
#494=DIRECTION('',(0.,0.,1.));
#495=DIRECTION('',(1.,0.,0.));
#496=DIRECTION('',(0.,0.,1.));
#497=DIRECTION('',(1.,0.,0.));
#498=DIRECTION('',(0.,-1.,0.));
#499=DIRECTION('',(-1.,0.,0.));
#500=DIRECTION('',(0.,-1.,0.));
#501=DIRECTION('',(0.,0.,1.));
#502=DIRECTION('',(1.,0.,0.));
#503=DIRECTION('',(1.,0.,0.));
#504=DIRECTION('',(-1.,0.,0.));
#505=DIRECTION('',(0.,0.,1.));
#506=DIRECTION('',(0.,0.,-1.));
#507=DIRECTION('',(0.,-1.,0.));
#508=DIRECTION('',(-1.44560289664734E-16,0.,1.));
#509=DIRECTION('',(1.,0.,1.44560289664734E-16));
#510=DIRECTION('',(0.,-1.,0.));
#511=DIRECTION('',(-1.,0.,0.));
#512=DIRECTION('',(0.,0.,1.));
#513=DIRECTION('',(0.,0.,-1.));
#514=DIRECTION('',(0.,-1.,0.));
#515=DIRECTION('',(1.,0.,0.));
#516=CARTESIAN_POINT('',(0.,0.,0.));
#517=CARTESIAN_POINT('',(0.0298720023989677,0.052380882916227,0.013));
#518=CARTESIAN_POINT('',(0.0298720023989677,0.052380882916227,0.));
#519=CARTESIAN_POINT('',(0.0336420023989677,0.052380882916227,0.));
#520=CARTESIAN_POINT('',(0.0647720023989677,0.052380882916227,0.));
#521=CARTESIAN_POINT('',(0.0336420023989677,0.052380882916227,0.013));
#522=CARTESIAN_POINT('',(0.0336420023989677,0.052380882916227,0.0065));
#523=CARTESIAN_POINT('',(0.0298720023989677,0.052380882916227,0.0065));
#524=CARTESIAN_POINT('',(0.0216420023989677,0.052380882916227,0.0065));
#525=CARTESIAN_POINT('',(0.0216420023989677,0.052380882916227,0.013));
#526=CARTESIAN_POINT('',(0.0216420023989677,0.052380882916227,4.33680868994202E-19));
#527=CARTESIAN_POINT('',(0.0298720023989677,0.052380882916227,0.));
#528=CARTESIAN_POINT('',(-0.00502799760103231,0.052380882916227,0.));
#529=CARTESIAN_POINT('',(-0.00502799760103231,0.052380882916227,0.013));
#530=CARTESIAN_POINT('',(-0.00502799760103231,0.052380882916227,0.013));
#531=CARTESIAN_POINT('',(0.0298720023989677,0.052380882916227,0.013));
#532=CARTESIAN_POINT('',(0.0647720023989677,0.052380882916227,0.013));
#533=CARTESIAN_POINT('',(0.0647720023989677,0.052380882916227,0.013));
#534=CARTESIAN_POINT('',(-0.00502799760103231,0.023730882916227,0.013));
#535=CARTESIAN_POINT('',(-0.00502799760103231,0.023730882916227,0.));
#536=CARTESIAN_POINT('',(-0.00502799760103231,-0.00491911708377302,0.));
#537=CARTESIAN_POINT('',(-0.00502799760103231,-0.00491911708377302,0.013));
#538=CARTESIAN_POINT('',(-0.00502799760103231,-0.00491911708377302,0.013));
#539=CARTESIAN_POINT('',(-0.00502799760103231,0.023730882916227,0.013));
#540=CARTESIAN_POINT('',(0.0298720023989677,-0.00491911708377302,0.013));
#541=CARTESIAN_POINT('',(0.0298720023989677,-0.00491911708377302,0.));
#542=CARTESIAN_POINT('',(0.0647720023989677,-0.00491911708377302,0.));
#543=CARTESIAN_POINT('',(0.0647720023989677,-0.00491911708377302,0.013));
#544=CARTESIAN_POINT('',(0.0647720023989677,-0.00491911708377302,0.013));
#545=CARTESIAN_POINT('',(0.0298720023989677,-0.00491911708377302,0.013));
#546=CARTESIAN_POINT('',(0.,0.02365,0.013));
#547=CARTESIAN_POINT('',(0.,0.02365,0.003));
#548=CARTESIAN_POINT('',(-3.46944695195361E-18,0.0473,0.003));
#549=CARTESIAN_POINT('',(0.,0.,0.003));
#550=CARTESIAN_POINT('',(-3.46944695195361E-18,0.0473,0.013));
#551=CARTESIAN_POINT('',(-3.46944695195361E-18,0.0473,0.013));
#552=CARTESIAN_POINT('',(0.,0.02365,0.013));
#553=CARTESIAN_POINT('',(0.,0.,0.013));
#554=CARTESIAN_POINT('',(0.,0.,0.013));
#555=CARTESIAN_POINT('',(0.0299,0.0473,0.013));
#556=CARTESIAN_POINT('',(0.0276420023989677,0.0473,0.0065));
#557=CARTESIAN_POINT('',(0.0336420023989677,0.0473,0.0065));
#558=CARTESIAN_POINT('',(0.0216420023989677,0.0473,0.0065));
#559=CARTESIAN_POINT('',(0.0336420023989677,0.0473,0.00325));
#560=CARTESIAN_POINT('',(0.0336420023989677,0.0473,0.003));
#561=CARTESIAN_POINT('',(0.0299,0.0473,0.003));
#562=CARTESIAN_POINT('',(0.0598,0.0473,0.003));
#563=CARTESIAN_POINT('',(0.0598,0.0473,0.013));
#564=CARTESIAN_POINT('',(0.0598,0.0473,0.013));
#565=CARTESIAN_POINT('',(0.0299,0.0473,0.013));
#566=CARTESIAN_POINT('',(0.0299,0.0473,0.003));
#567=CARTESIAN_POINT('',(0.0216420023989677,0.0473,0.003));
#568=CARTESIAN_POINT('',(0.0216420023989677,0.0473,0.00325));
#569=CARTESIAN_POINT('',(0.0598,0.02365,0.013));
#570=CARTESIAN_POINT('',(0.0598,0.02365,0.003));
#571=CARTESIAN_POINT('',(0.0598,1.7347234759768E-18,0.003));
#572=CARTESIAN_POINT('',(0.0598,1.7347234759768E-18,0.013));
#573=CARTESIAN_POINT('',(0.0598,1.7347234759768E-18,0.013));
#574=CARTESIAN_POINT('',(0.0598,0.02365,0.013));
#575=CARTESIAN_POINT('',(-0.0022329562343657,0.0497189164161682,0.013));
#576=CARTESIAN_POINT('',(-0.0022329562343657,0.0497189164161682,0.013));
#577=CARTESIAN_POINT('',(-0.0007829562343657,0.0497189164161682,0.013));
#578=CARTESIAN_POINT('',(-0.0022329562343657,0.0497189164161682,0.));
#579=CARTESIAN_POINT('',(-0.0007829562343657,0.0497189164161682,0.));
#580=CARTESIAN_POINT('',(0.0618211283771179,0.0495304916624399,0.013));
#581=CARTESIAN_POINT('',(0.0618211283771179,0.0495304916624399,0.013));
#582=CARTESIAN_POINT('',(0.061947504204102,0.0480860093502069,0.013));
#583=CARTESIAN_POINT('',(0.0618211283771179,0.0495304916624399,0.));
#584=CARTESIAN_POINT('',(0.061947504204102,0.0480860093502069,0.));
#585=CARTESIAN_POINT('',(-0.00236215914187064,-0.002057224194686,0.013));
#586=CARTESIAN_POINT('',(-0.00236215914187064,-0.002057224194686,0.013));
#587=CARTESIAN_POINT('',(-0.00091215914187064,-0.002057224194686,0.013));
#588=CARTESIAN_POINT('',(-0.00236215914187064,-0.002057224194686,0.));
#589=CARTESIAN_POINT('',(-0.00091215914187064,-0.002057224194686,0.));
#590=CARTESIAN_POINT('',(0.0622686117895101,-0.00208511188690233,0.013));
#591=CARTESIAN_POINT('',(0.0622686117895101,-0.00208511188690233,0.013));
#592=CARTESIAN_POINT('',(0.0637186117895101,-0.00208511188690233,0.013));
#593=CARTESIAN_POINT('',(0.0622686117895101,-0.00208511188690233,0.));
#594=CARTESIAN_POINT('',(0.0637186117895101,-0.00208511188690233,0.));
#595=CARTESIAN_POINT('',(0.0299,0.,0.013));
#596=CARTESIAN_POINT('',(0.0299,0.,0.003));
#597=CARTESIAN_POINT('',(0.0299,0.,0.013));
#598=CARTESIAN_POINT('',(0.0647720023989677,0.023730882916227,0.013));
#599=CARTESIAN_POINT('',(0.0647720023989677,0.023730882916227,0.));
#600=CARTESIAN_POINT('',(0.0647720023989677,0.023730882916227,0.013));
#601=CARTESIAN_POINT('',(0.0298720023989677,0.023730882916227,0.013));
#602=CARTESIAN_POINT('',(0.0298720023989677,0.023730882916227,0.));
#603=CARTESIAN_POINT('',(0.0216420023989677,0.0573,4.33680868994202E-19));
#604=CARTESIAN_POINT('',(0.0216420023989677,0.0473,4.33680868994202E-19));
#605=CARTESIAN_POINT('',(0.0276420023989677,0.0473,0.));
#606=CARTESIAN_POINT('',(0.0336420023989677,0.0473,0.));
#607=CARTESIAN_POINT('',(0.0336420023989677,0.0573,0.));
#608=CARTESIAN_POINT('',(0.0298720023989677,0.023730882916227,0.003));
#609=CARTESIAN_POINT('',(0.0299,0.0473,0.003));
#610=CARTESIAN_POINT('',(0.0336420023989677,0.0573,0.00325));
#611=CARTESIAN_POINT('',(0.0336420023989677,0.0473,0.00325));
#612=CARTESIAN_POINT('',(0.0336420023989677,0.0573,0.0065));
#613=CARTESIAN_POINT('',(0.0276420023989677,0.0573,0.0065));
#614=CARTESIAN_POINT('',(0.0216420023989677,0.0573,0.0065));
#615=CARTESIAN_POINT('',(0.0216420023989677,0.0573,0.00325));
#616=CARTESIAN_POINT('',(0.0216420023989677,0.0473,0.00325));
#617=CARTESIAN_POINT('',(0.0276420023989677,0.0473,0.00325));
#618=MECHANICAL_DESIGN_GEOMETRIC_PRESENTATION_REPRESENTATION('',(#381),
#619);
#619=(
GEOMETRIC_REPRESENTATION_CONTEXT(3)
GLOBAL_UNCERTAINTY_ASSIGNED_CONTEXT((#620))
GLOBAL_UNIT_ASSIGNED_CONTEXT((#623,#622,#621))
REPRESENTATION_CONTEXT('body','TOP_LEVEL_ASSEMBLY_PART')
);
#620=UNCERTAINTY_MEASURE_WITH_UNIT(LENGTH_MEASURE(1.E-8),#623,
'DISTANCE_ACCURACY_VALUE','Maximum Tolerance applied to model');
#621=(
NAMED_UNIT(*)
SI_UNIT($,.STERADIAN.)
SOLID_ANGLE_UNIT()
);
#622=(
NAMED_UNIT(*)
PLANE_ANGLE_UNIT()
SI_UNIT($,.RADIAN.)
);
#623=(
LENGTH_UNIT()
NAMED_UNIT(*)
SI_UNIT($,.METRE.)
);
#624=PRODUCT_DEFINITION_SHAPE('','',#625);
#625=PRODUCT_DEFINITION('','',#627,#626);
#626=PRODUCT_DEFINITION_CONTEXT('',#633,'design');
#627=PRODUCT_DEFINITION_FORMATION_WITH_SPECIFIED_SOURCE('','',#629,
 .NOT_KNOWN.);
#628=PRODUCT_RELATED_PRODUCT_CATEGORY('','',(#629));
#629=PRODUCT('body','body','body',(#631));
#630=PRODUCT_CATEGORY('','');
#631=PRODUCT_CONTEXT('',#633,'mechanical');
#632=APPLICATION_PROTOCOL_DEFINITION('international standard',
'ap242_managed_model_based_3d_engineering',2020,#633);
#633=APPLICATION_CONTEXT('managed model based 3d engineering');
ENDSEC;
END-ISO-10303-21;
