ISO-10303-21;
HEADER;
/* Generated by software containing ST-Developer
 * from STEP Tools, Inc. (www.steptools.com) 
 */
/* OPTION: using custom renumber hook */

FILE_DESCRIPTION(
/* description */ ('STEP AP242 Edition 2',
'CAx-IF Rec.Pracs.---Representation and Presentation of Product Manufa
cturing Information (PMI)---4.0---2014-10-13',
'CAx-IF Rec.Pracs.---3D Tessellated Geometry---0.4---2014-09-14','2;1',
'CAx-IF Rec.Pracs.---User Defined Attributes---1.5---2016-08-15'),
/* implementation_level */ '2;1');

FILE_NAME(
/* name */ 'case - plate',
/* time_stamp */ '2026-09-28T14:24:11Z',
/* author */ (''),
/* organization */ (''),
/* preprocessor_version */ 'ST-DEVELOPER v20',
/* originating_system */ 'ONSHAPE BY PTC INC, 1.221',
/* authorisation */ '  ');

FILE_SCHEMA (('AP242_MANAGED_MODEL_BASED_3D_ENGINEERING_MIM_LF { 1 0 10303 442 3 1 4 }'));
ENDSEC;

DATA;
#10=SHAPE_REPRESENTATION_RELATIONSHIP('','',#871,#11);
#11=ADVANCED_BREP_SHAPE_REPRESENTATION('',(#869),#1451);
#12=CIRCLE('',#877,0.000499999999999994);
#13=CIRCLE('',#878,0.000499999999999994);
#14=CIRCLE('',#881,0.0005);
#15=CIRCLE('',#882,0.0005);
#16=CIRCLE('',#885,0.0005);
#17=CIRCLE('',#886,0.0005);
#18=CIRCLE('',#889,0.000500000000000008);
#19=CIRCLE('',#890,0.000500000000000008);
#20=CIRCLE('',#892,0.0005);
#21=CIRCLE('',#893,0.0005);
#22=CIRCLE('',#896,0.0005);
#23=CIRCLE('',#897,0.0005);
#24=CIRCLE('',#900,0.0005);
#25=CIRCLE('',#901,0.0005);
#26=CIRCLE('',#904,0.0005);
#27=CIRCLE('',#905,0.0005);
#28=CIRCLE('',#907,0.0005);
#29=CIRCLE('',#908,0.0005);
#30=CIRCLE('',#911,0.0005);
#31=CIRCLE('',#912,0.0005);
#32=CIRCLE('',#915,0.0005);
#33=CIRCLE('',#916,0.0005);
#34=CIRCLE('',#919,0.0005);
#35=CIRCLE('',#920,0.0005);
#36=CIRCLE('',#922,0.0005);
#37=CIRCLE('',#923,0.0005);
#38=CIRCLE('',#926,0.0005);
#39=CIRCLE('',#927,0.0005);
#40=CIRCLE('',#930,0.0005);
#41=CIRCLE('',#931,0.0005);
#42=CIRCLE('',#934,0.0005);
#43=CIRCLE('',#935,0.0005);
#44=CIRCLE('',#937,0.00145);
#45=CIRCLE('',#938,0.00145);
#46=CIRCLE('',#940,0.00145);
#47=CIRCLE('',#941,0.00145);
#48=CIRCLE('',#943,0.00145);
#49=CIRCLE('',#944,0.00145);
#50=CIRCLE('',#946,0.00375);
#51=CIRCLE('',#947,0.00375);
#52=CIRCLE('',#954,0.00145);
#53=CIRCLE('',#955,0.00145);
#54=CYLINDRICAL_SURFACE('',#876,0.000499999999999994);
#55=CYLINDRICAL_SURFACE('',#880,0.0005);
#56=CYLINDRICAL_SURFACE('',#884,0.0005);
#57=CYLINDRICAL_SURFACE('',#888,0.000500000000000008);
#58=CYLINDRICAL_SURFACE('',#891,0.0005);
#59=CYLINDRICAL_SURFACE('',#895,0.0005);
#60=CYLINDRICAL_SURFACE('',#899,0.0005);
#61=CYLINDRICAL_SURFACE('',#903,0.0005);
#62=CYLINDRICAL_SURFACE('',#906,0.0005);
#63=CYLINDRICAL_SURFACE('',#910,0.0005);
#64=CYLINDRICAL_SURFACE('',#914,0.0005);
#65=CYLINDRICAL_SURFACE('',#918,0.0005);
#66=CYLINDRICAL_SURFACE('',#921,0.0005);
#67=CYLINDRICAL_SURFACE('',#925,0.0005);
#68=CYLINDRICAL_SURFACE('',#929,0.0005);
#69=CYLINDRICAL_SURFACE('',#933,0.0005);
#70=CYLINDRICAL_SURFACE('',#936,0.00145);
#71=CYLINDRICAL_SURFACE('',#939,0.00145);
#72=CYLINDRICAL_SURFACE('',#942,0.00145);
#73=CYLINDRICAL_SURFACE('',#945,0.00375);
#74=CYLINDRICAL_SURFACE('',#953,0.00145);
#75=ORIENTED_EDGE('',*,*,#311,.F.);
#76=ORIENTED_EDGE('',*,*,#312,.F.);
#77=ORIENTED_EDGE('',*,*,#313,.T.);
#78=ORIENTED_EDGE('',*,*,#314,.T.);
#79=ORIENTED_EDGE('',*,*,#315,.T.);
#80=ORIENTED_EDGE('',*,*,#316,.F.);
#81=ORIENTED_EDGE('',*,*,#317,.F.);
#82=ORIENTED_EDGE('',*,*,#312,.T.);
#83=ORIENTED_EDGE('',*,*,#318,.T.);
#84=ORIENTED_EDGE('',*,*,#319,.F.);
#85=ORIENTED_EDGE('',*,*,#320,.F.);
#86=ORIENTED_EDGE('',*,*,#316,.T.);
#87=ORIENTED_EDGE('',*,*,#321,.F.);
#88=ORIENTED_EDGE('',*,*,#322,.F.);
#89=ORIENTED_EDGE('',*,*,#323,.T.);
#90=ORIENTED_EDGE('',*,*,#324,.T.);
#91=ORIENTED_EDGE('',*,*,#325,.T.);
#92=ORIENTED_EDGE('',*,*,#326,.F.);
#93=ORIENTED_EDGE('',*,*,#327,.F.);
#94=ORIENTED_EDGE('',*,*,#322,.T.);
#95=ORIENTED_EDGE('',*,*,#328,.F.);
#96=ORIENTED_EDGE('',*,*,#329,.F.);
#97=ORIENTED_EDGE('',*,*,#330,.T.);
#98=ORIENTED_EDGE('',*,*,#326,.T.);
#99=ORIENTED_EDGE('',*,*,#331,.T.);
#100=ORIENTED_EDGE('',*,*,#332,.F.);
#101=ORIENTED_EDGE('',*,*,#333,.F.);
#102=ORIENTED_EDGE('',*,*,#329,.T.);
#103=ORIENTED_EDGE('',*,*,#334,.F.);
#104=ORIENTED_EDGE('',*,*,#335,.F.);
#105=ORIENTED_EDGE('',*,*,#336,.T.);
#106=ORIENTED_EDGE('',*,*,#332,.T.);
#107=ORIENTED_EDGE('',*,*,#337,.F.);
#108=ORIENTED_EDGE('',*,*,#338,.F.);
#109=ORIENTED_EDGE('',*,*,#339,.T.);
#110=ORIENTED_EDGE('',*,*,#335,.T.);
#111=ORIENTED_EDGE('',*,*,#340,.F.);
#112=ORIENTED_EDGE('',*,*,#341,.F.);
#113=ORIENTED_EDGE('',*,*,#342,.T.);
#114=ORIENTED_EDGE('',*,*,#338,.T.);
#115=ORIENTED_EDGE('',*,*,#343,.F.);
#116=ORIENTED_EDGE('',*,*,#344,.F.);
#117=ORIENTED_EDGE('',*,*,#345,.T.);
#118=ORIENTED_EDGE('',*,*,#346,.T.);
#119=ORIENTED_EDGE('',*,*,#347,.T.);
#120=ORIENTED_EDGE('',*,*,#348,.F.);
#121=ORIENTED_EDGE('',*,*,#349,.F.);
#122=ORIENTED_EDGE('',*,*,#344,.T.);
#123=ORIENTED_EDGE('',*,*,#350,.F.);
#124=ORIENTED_EDGE('',*,*,#351,.F.);
#125=ORIENTED_EDGE('',*,*,#352,.T.);
#126=ORIENTED_EDGE('',*,*,#348,.T.);
#127=ORIENTED_EDGE('',*,*,#353,.T.);
#128=ORIENTED_EDGE('',*,*,#354,.F.);
#129=ORIENTED_EDGE('',*,*,#355,.F.);
#130=ORIENTED_EDGE('',*,*,#351,.T.);
#131=ORIENTED_EDGE('',*,*,#356,.F.);
#132=ORIENTED_EDGE('',*,*,#357,.F.);
#133=ORIENTED_EDGE('',*,*,#358,.T.);
#134=ORIENTED_EDGE('',*,*,#354,.T.);
#135=ORIENTED_EDGE('',*,*,#359,.F.);
#136=ORIENTED_EDGE('',*,*,#360,.F.);
#137=ORIENTED_EDGE('',*,*,#361,.T.);
#138=ORIENTED_EDGE('',*,*,#357,.T.);
#139=ORIENTED_EDGE('',*,*,#362,.F.);
#140=ORIENTED_EDGE('',*,*,#363,.F.);
#141=ORIENTED_EDGE('',*,*,#364,.T.);
#142=ORIENTED_EDGE('',*,*,#360,.T.);
#143=ORIENTED_EDGE('',*,*,#365,.F.);
#144=ORIENTED_EDGE('',*,*,#366,.F.);
#145=ORIENTED_EDGE('',*,*,#367,.T.);
#146=ORIENTED_EDGE('',*,*,#368,.T.);
#147=ORIENTED_EDGE('',*,*,#369,.T.);
#148=ORIENTED_EDGE('',*,*,#370,.F.);
#149=ORIENTED_EDGE('',*,*,#371,.F.);
#150=ORIENTED_EDGE('',*,*,#366,.T.);
#151=ORIENTED_EDGE('',*,*,#372,.F.);
#152=ORIENTED_EDGE('',*,*,#373,.F.);
#153=ORIENTED_EDGE('',*,*,#374,.T.);
#154=ORIENTED_EDGE('',*,*,#370,.T.);
#155=ORIENTED_EDGE('',*,*,#375,.T.);
#156=ORIENTED_EDGE('',*,*,#376,.F.);
#157=ORIENTED_EDGE('',*,*,#377,.F.);
#158=ORIENTED_EDGE('',*,*,#373,.T.);
#159=ORIENTED_EDGE('',*,*,#378,.F.);
#160=ORIENTED_EDGE('',*,*,#379,.F.);
#161=ORIENTED_EDGE('',*,*,#380,.T.);
#162=ORIENTED_EDGE('',*,*,#376,.T.);
#163=ORIENTED_EDGE('',*,*,#381,.F.);
#164=ORIENTED_EDGE('',*,*,#382,.F.);
#165=ORIENTED_EDGE('',*,*,#383,.T.);
#166=ORIENTED_EDGE('',*,*,#379,.T.);
#167=ORIENTED_EDGE('',*,*,#384,.F.);
#168=ORIENTED_EDGE('',*,*,#385,.F.);
#169=ORIENTED_EDGE('',*,*,#386,.T.);
#170=ORIENTED_EDGE('',*,*,#382,.T.);
#171=ORIENTED_EDGE('',*,*,#387,.F.);
#172=ORIENTED_EDGE('',*,*,#388,.F.);
#173=ORIENTED_EDGE('',*,*,#389,.T.);
#174=ORIENTED_EDGE('',*,*,#390,.T.);
#175=ORIENTED_EDGE('',*,*,#391,.T.);
#176=ORIENTED_EDGE('',*,*,#392,.F.);
#177=ORIENTED_EDGE('',*,*,#393,.F.);
#178=ORIENTED_EDGE('',*,*,#388,.T.);
#179=ORIENTED_EDGE('',*,*,#394,.F.);
#180=ORIENTED_EDGE('',*,*,#395,.F.);
#181=ORIENTED_EDGE('',*,*,#396,.T.);
#182=ORIENTED_EDGE('',*,*,#392,.T.);
#183=ORIENTED_EDGE('',*,*,#397,.T.);
#184=ORIENTED_EDGE('',*,*,#398,.F.);
#185=ORIENTED_EDGE('',*,*,#399,.F.);
#186=ORIENTED_EDGE('',*,*,#395,.T.);
#187=ORIENTED_EDGE('',*,*,#400,.F.);
#188=ORIENTED_EDGE('',*,*,#401,.F.);
#189=ORIENTED_EDGE('',*,*,#402,.T.);
#190=ORIENTED_EDGE('',*,*,#398,.T.);
#191=ORIENTED_EDGE('',*,*,#403,.F.);
#192=ORIENTED_EDGE('',*,*,#404,.F.);
#193=ORIENTED_EDGE('',*,*,#405,.T.);
#194=ORIENTED_EDGE('',*,*,#401,.T.);
#195=ORIENTED_EDGE('',*,*,#406,.F.);
#196=ORIENTED_EDGE('',*,*,#407,.F.);
#197=ORIENTED_EDGE('',*,*,#408,.T.);
#198=ORIENTED_EDGE('',*,*,#404,.T.);
#199=ORIENTED_EDGE('',*,*,#409,.T.);
#200=ORIENTED_EDGE('',*,*,#410,.F.);
#201=ORIENTED_EDGE('',*,*,#411,.T.);
#202=ORIENTED_EDGE('',*,*,#412,.F.);
#203=ORIENTED_EDGE('',*,*,#413,.T.);
#204=ORIENTED_EDGE('',*,*,#414,.F.);
#205=ORIENTED_EDGE('',*,*,#415,.T.);
#206=ORIENTED_EDGE('',*,*,#416,.F.);
#207=ORIENTED_EDGE('',*,*,#417,.T.);
#208=ORIENTED_EDGE('',*,*,#314,.F.);
#209=ORIENTED_EDGE('',*,*,#418,.F.);
#210=ORIENTED_EDGE('',*,*,#319,.T.);
#211=ORIENTED_EDGE('',*,*,#419,.F.);
#212=ORIENTED_EDGE('',*,*,#324,.F.);
#213=ORIENTED_EDGE('',*,*,#420,.T.);
#214=ORIENTED_EDGE('',*,*,#341,.T.);
#215=ORIENTED_EDGE('',*,*,#421,.F.);
#216=ORIENTED_EDGE('',*,*,#346,.F.);
#217=ORIENTED_EDGE('',*,*,#422,.T.);
#218=ORIENTED_EDGE('',*,*,#363,.T.);
#219=ORIENTED_EDGE('',*,*,#423,.F.);
#220=ORIENTED_EDGE('',*,*,#368,.F.);
#221=ORIENTED_EDGE('',*,*,#424,.T.);
#222=ORIENTED_EDGE('',*,*,#385,.T.);
#223=ORIENTED_EDGE('',*,*,#425,.F.);
#224=ORIENTED_EDGE('',*,*,#390,.F.);
#225=ORIENTED_EDGE('',*,*,#426,.T.);
#226=ORIENTED_EDGE('',*,*,#407,.T.);
#227=ORIENTED_EDGE('',*,*,#427,.T.);
#228=ORIENTED_EDGE('',*,*,#428,.F.);
#229=ORIENTED_EDGE('',*,*,#389,.F.);
#230=ORIENTED_EDGE('',*,*,#393,.T.);
#231=ORIENTED_EDGE('',*,*,#396,.F.);
#232=ORIENTED_EDGE('',*,*,#399,.T.);
#233=ORIENTED_EDGE('',*,*,#402,.F.);
#234=ORIENTED_EDGE('',*,*,#405,.F.);
#235=ORIENTED_EDGE('',*,*,#408,.F.);
#236=ORIENTED_EDGE('',*,*,#426,.F.);
#237=ORIENTED_EDGE('',*,*,#367,.F.);
#238=ORIENTED_EDGE('',*,*,#371,.T.);
#239=ORIENTED_EDGE('',*,*,#374,.F.);
#240=ORIENTED_EDGE('',*,*,#377,.T.);
#241=ORIENTED_EDGE('',*,*,#380,.F.);
#242=ORIENTED_EDGE('',*,*,#383,.F.);
#243=ORIENTED_EDGE('',*,*,#386,.F.);
#244=ORIENTED_EDGE('',*,*,#424,.F.);
#245=ORIENTED_EDGE('',*,*,#345,.F.);
#246=ORIENTED_EDGE('',*,*,#349,.T.);
#247=ORIENTED_EDGE('',*,*,#352,.F.);
#248=ORIENTED_EDGE('',*,*,#355,.T.);
#249=ORIENTED_EDGE('',*,*,#358,.F.);
#250=ORIENTED_EDGE('',*,*,#361,.F.);
#251=ORIENTED_EDGE('',*,*,#364,.F.);
#252=ORIENTED_EDGE('',*,*,#422,.F.);
#253=ORIENTED_EDGE('',*,*,#323,.F.);
#254=ORIENTED_EDGE('',*,*,#327,.T.);
#255=ORIENTED_EDGE('',*,*,#330,.F.);
#256=ORIENTED_EDGE('',*,*,#333,.T.);
#257=ORIENTED_EDGE('',*,*,#336,.F.);
#258=ORIENTED_EDGE('',*,*,#339,.F.);
#259=ORIENTED_EDGE('',*,*,#342,.F.);
#260=ORIENTED_EDGE('',*,*,#420,.F.);
#261=ORIENTED_EDGE('',*,*,#313,.F.);
#262=ORIENTED_EDGE('',*,*,#317,.T.);
#263=ORIENTED_EDGE('',*,*,#320,.T.);
#264=ORIENTED_EDGE('',*,*,#418,.T.);
#265=ORIENTED_EDGE('',*,*,#415,.F.);
#266=ORIENTED_EDGE('',*,*,#413,.F.);
#267=ORIENTED_EDGE('',*,*,#411,.F.);
#268=ORIENTED_EDGE('',*,*,#409,.F.);
#269=ORIENTED_EDGE('',*,*,#427,.F.);
#270=ORIENTED_EDGE('',*,*,#387,.T.);
#271=ORIENTED_EDGE('',*,*,#425,.T.);
#272=ORIENTED_EDGE('',*,*,#406,.T.);
#273=ORIENTED_EDGE('',*,*,#403,.T.);
#274=ORIENTED_EDGE('',*,*,#400,.T.);
#275=ORIENTED_EDGE('',*,*,#397,.F.);
#276=ORIENTED_EDGE('',*,*,#394,.T.);
#277=ORIENTED_EDGE('',*,*,#391,.F.);
#278=ORIENTED_EDGE('',*,*,#365,.T.);
#279=ORIENTED_EDGE('',*,*,#423,.T.);
#280=ORIENTED_EDGE('',*,*,#384,.T.);
#281=ORIENTED_EDGE('',*,*,#381,.T.);
#282=ORIENTED_EDGE('',*,*,#378,.T.);
#283=ORIENTED_EDGE('',*,*,#375,.F.);
#284=ORIENTED_EDGE('',*,*,#372,.T.);
#285=ORIENTED_EDGE('',*,*,#369,.F.);
#286=ORIENTED_EDGE('',*,*,#343,.T.);
#287=ORIENTED_EDGE('',*,*,#421,.T.);
#288=ORIENTED_EDGE('',*,*,#362,.T.);
#289=ORIENTED_EDGE('',*,*,#359,.T.);
#290=ORIENTED_EDGE('',*,*,#356,.T.);
#291=ORIENTED_EDGE('',*,*,#353,.F.);
#292=ORIENTED_EDGE('',*,*,#350,.T.);
#293=ORIENTED_EDGE('',*,*,#347,.F.);
#294=ORIENTED_EDGE('',*,*,#321,.T.);
#295=ORIENTED_EDGE('',*,*,#419,.T.);
#296=ORIENTED_EDGE('',*,*,#340,.T.);
#297=ORIENTED_EDGE('',*,*,#337,.T.);
#298=ORIENTED_EDGE('',*,*,#334,.T.);
#299=ORIENTED_EDGE('',*,*,#331,.F.);
#300=ORIENTED_EDGE('',*,*,#328,.T.);
#301=ORIENTED_EDGE('',*,*,#325,.F.);
#302=ORIENTED_EDGE('',*,*,#311,.T.);
#303=ORIENTED_EDGE('',*,*,#417,.F.);
#304=ORIENTED_EDGE('',*,*,#318,.F.);
#305=ORIENTED_EDGE('',*,*,#315,.F.);
#306=ORIENTED_EDGE('',*,*,#416,.T.);
#307=ORIENTED_EDGE('',*,*,#414,.T.);
#308=ORIENTED_EDGE('',*,*,#412,.T.);
#309=ORIENTED_EDGE('',*,*,#410,.T.);
#310=ORIENTED_EDGE('',*,*,#428,.T.);
#311=EDGE_CURVE('',#429,#430,#511,.T.);
#312=EDGE_CURVE('',#431,#429,#512,.T.);
#313=EDGE_CURVE('',#431,#432,#513,.T.);
#314=EDGE_CURVE('',#432,#430,#514,.T.);
#315=EDGE_CURVE('',#429,#433,#515,.T.);
#316=EDGE_CURVE('',#434,#433,#516,.T.);
#317=EDGE_CURVE('',#431,#434,#517,.T.);
#318=EDGE_CURVE('',#433,#435,#518,.T.);
#319=EDGE_CURVE('',#436,#435,#519,.T.);
#320=EDGE_CURVE('',#434,#436,#520,.T.);
#321=EDGE_CURVE('',#437,#438,#12,.T.);
#322=EDGE_CURVE('',#439,#437,#521,.T.);
#323=EDGE_CURVE('',#439,#440,#13,.T.);
#324=EDGE_CURVE('',#440,#438,#522,.T.);
#325=EDGE_CURVE('',#437,#441,#523,.T.);
#326=EDGE_CURVE('',#442,#441,#524,.T.);
#327=EDGE_CURVE('',#439,#442,#525,.T.);
#328=EDGE_CURVE('',#443,#441,#14,.T.);
#329=EDGE_CURVE('',#444,#443,#526,.T.);
#330=EDGE_CURVE('',#444,#442,#15,.T.);
#331=EDGE_CURVE('',#443,#445,#527,.T.);
#332=EDGE_CURVE('',#446,#445,#528,.T.);
#333=EDGE_CURVE('',#444,#446,#529,.T.);
#334=EDGE_CURVE('',#447,#445,#16,.T.);
#335=EDGE_CURVE('',#448,#447,#530,.T.);
#336=EDGE_CURVE('',#448,#446,#17,.T.);
#337=EDGE_CURVE('',#449,#447,#531,.T.);
#338=EDGE_CURVE('',#450,#449,#532,.T.);
#339=EDGE_CURVE('',#450,#448,#533,.T.);
#340=EDGE_CURVE('',#451,#449,#18,.T.);
#341=EDGE_CURVE('',#452,#451,#534,.T.);
#342=EDGE_CURVE('',#452,#450,#19,.T.);
#343=EDGE_CURVE('',#453,#454,#20,.T.);
#344=EDGE_CURVE('',#455,#453,#535,.T.);
#345=EDGE_CURVE('',#455,#456,#21,.T.);
#346=EDGE_CURVE('',#456,#454,#536,.T.);
#347=EDGE_CURVE('',#453,#457,#537,.T.);
#348=EDGE_CURVE('',#458,#457,#538,.T.);
#349=EDGE_CURVE('',#455,#458,#539,.T.);
#350=EDGE_CURVE('',#459,#457,#22,.T.);
#351=EDGE_CURVE('',#460,#459,#540,.T.);
#352=EDGE_CURVE('',#460,#458,#23,.T.);
#353=EDGE_CURVE('',#459,#461,#541,.T.);
#354=EDGE_CURVE('',#462,#461,#542,.T.);
#355=EDGE_CURVE('',#460,#462,#543,.T.);
#356=EDGE_CURVE('',#463,#461,#24,.T.);
#357=EDGE_CURVE('',#464,#463,#544,.T.);
#358=EDGE_CURVE('',#464,#462,#25,.T.);
#359=EDGE_CURVE('',#465,#463,#545,.T.);
#360=EDGE_CURVE('',#466,#465,#546,.T.);
#361=EDGE_CURVE('',#466,#464,#547,.T.);
#362=EDGE_CURVE('',#467,#465,#26,.T.);
#363=EDGE_CURVE('',#468,#467,#548,.T.);
#364=EDGE_CURVE('',#468,#466,#27,.T.);
#365=EDGE_CURVE('',#469,#470,#28,.T.);
#366=EDGE_CURVE('',#471,#469,#549,.T.);
#367=EDGE_CURVE('',#471,#472,#29,.T.);
#368=EDGE_CURVE('',#472,#470,#550,.T.);
#369=EDGE_CURVE('',#469,#473,#551,.T.);
#370=EDGE_CURVE('',#474,#473,#552,.T.);
#371=EDGE_CURVE('',#471,#474,#553,.T.);
#372=EDGE_CURVE('',#475,#473,#30,.T.);
#373=EDGE_CURVE('',#476,#475,#554,.T.);
#374=EDGE_CURVE('',#476,#474,#31,.T.);
#375=EDGE_CURVE('',#475,#477,#555,.T.);
#376=EDGE_CURVE('',#478,#477,#556,.T.);
#377=EDGE_CURVE('',#476,#478,#557,.T.);
#378=EDGE_CURVE('',#479,#477,#32,.T.);
#379=EDGE_CURVE('',#480,#479,#558,.T.);
#380=EDGE_CURVE('',#480,#478,#33,.T.);
#381=EDGE_CURVE('',#481,#479,#559,.T.);
#382=EDGE_CURVE('',#482,#481,#560,.T.);
#383=EDGE_CURVE('',#482,#480,#561,.T.);
#384=EDGE_CURVE('',#483,#481,#34,.T.);
#385=EDGE_CURVE('',#484,#483,#562,.T.);
#386=EDGE_CURVE('',#484,#482,#35,.T.);
#387=EDGE_CURVE('',#485,#486,#36,.T.);
#388=EDGE_CURVE('',#487,#485,#563,.T.);
#389=EDGE_CURVE('',#487,#488,#37,.T.);
#390=EDGE_CURVE('',#488,#486,#564,.T.);
#391=EDGE_CURVE('',#485,#489,#565,.T.);
#392=EDGE_CURVE('',#490,#489,#566,.T.);
#393=EDGE_CURVE('',#487,#490,#567,.T.);
#394=EDGE_CURVE('',#491,#489,#38,.T.);
#395=EDGE_CURVE('',#492,#491,#568,.T.);
#396=EDGE_CURVE('',#492,#490,#39,.T.);
#397=EDGE_CURVE('',#491,#493,#569,.T.);
#398=EDGE_CURVE('',#494,#493,#570,.T.);
#399=EDGE_CURVE('',#492,#494,#571,.T.);
#400=EDGE_CURVE('',#495,#493,#40,.T.);
#401=EDGE_CURVE('',#496,#495,#572,.T.);
#402=EDGE_CURVE('',#496,#494,#41,.T.);
#403=EDGE_CURVE('',#497,#495,#573,.T.);
#404=EDGE_CURVE('',#498,#497,#574,.T.);
#405=EDGE_CURVE('',#498,#496,#575,.T.);
#406=EDGE_CURVE('',#499,#497,#42,.T.);
#407=EDGE_CURVE('',#500,#499,#576,.T.);
#408=EDGE_CURVE('',#500,#498,#43,.T.);
#409=EDGE_CURVE('',#501,#501,#44,.T.);
#410=EDGE_CURVE('',#502,#502,#45,.T.);
#411=EDGE_CURVE('',#503,#503,#46,.T.);
#412=EDGE_CURVE('',#504,#504,#47,.T.);
#413=EDGE_CURVE('',#505,#505,#48,.T.);
#414=EDGE_CURVE('',#506,#506,#49,.T.);
#415=EDGE_CURVE('',#507,#507,#50,.T.);
#416=EDGE_CURVE('',#508,#508,#51,.T.);
#417=EDGE_CURVE('',#435,#430,#577,.T.);
#418=EDGE_CURVE('',#436,#432,#578,.T.);
#419=EDGE_CURVE('',#438,#451,#579,.T.);
#420=EDGE_CURVE('',#440,#452,#580,.T.);
#421=EDGE_CURVE('',#454,#467,#581,.T.);
#422=EDGE_CURVE('',#456,#468,#582,.T.);
#423=EDGE_CURVE('',#470,#483,#583,.T.);
#424=EDGE_CURVE('',#472,#484,#584,.T.);
#425=EDGE_CURVE('',#486,#499,#585,.T.);
#426=EDGE_CURVE('',#488,#500,#586,.T.);
#427=EDGE_CURVE('',#509,#509,#52,.T.);
#428=EDGE_CURVE('',#510,#510,#53,.T.);
#429=VERTEX_POINT('',#1209);
#430=VERTEX_POINT('',#1210);
#431=VERTEX_POINT('',#1212);
#432=VERTEX_POINT('',#1214);
#433=VERTEX_POINT('',#1218);
#434=VERTEX_POINT('',#1220);
#435=VERTEX_POINT('',#1224);
#436=VERTEX_POINT('',#1226);
#437=VERTEX_POINT('',#1230);
#438=VERTEX_POINT('',#1231);
#439=VERTEX_POINT('',#1233);
#440=VERTEX_POINT('',#1235);
#441=VERTEX_POINT('',#1239);
#442=VERTEX_POINT('',#1241);
#443=VERTEX_POINT('',#1245);
#444=VERTEX_POINT('',#1247);
#445=VERTEX_POINT('',#1251);
#446=VERTEX_POINT('',#1253);
#447=VERTEX_POINT('',#1257);
#448=VERTEX_POINT('',#1259);
#449=VERTEX_POINT('',#1263);
#450=VERTEX_POINT('',#1265);
#451=VERTEX_POINT('',#1269);
#452=VERTEX_POINT('',#1271);
#453=VERTEX_POINT('',#1275);
#454=VERTEX_POINT('',#1276);
#455=VERTEX_POINT('',#1278);
#456=VERTEX_POINT('',#1280);
#457=VERTEX_POINT('',#1284);
#458=VERTEX_POINT('',#1286);
#459=VERTEX_POINT('',#1290);
#460=VERTEX_POINT('',#1292);
#461=VERTEX_POINT('',#1296);
#462=VERTEX_POINT('',#1298);
#463=VERTEX_POINT('',#1302);
#464=VERTEX_POINT('',#1304);
#465=VERTEX_POINT('',#1308);
#466=VERTEX_POINT('',#1310);
#467=VERTEX_POINT('',#1314);
#468=VERTEX_POINT('',#1316);
#469=VERTEX_POINT('',#1320);
#470=VERTEX_POINT('',#1321);
#471=VERTEX_POINT('',#1323);
#472=VERTEX_POINT('',#1325);
#473=VERTEX_POINT('',#1329);
#474=VERTEX_POINT('',#1331);
#475=VERTEX_POINT('',#1335);
#476=VERTEX_POINT('',#1337);
#477=VERTEX_POINT('',#1341);
#478=VERTEX_POINT('',#1343);
#479=VERTEX_POINT('',#1347);
#480=VERTEX_POINT('',#1349);
#481=VERTEX_POINT('',#1353);
#482=VERTEX_POINT('',#1355);
#483=VERTEX_POINT('',#1359);
#484=VERTEX_POINT('',#1361);
#485=VERTEX_POINT('',#1365);
#486=VERTEX_POINT('',#1366);
#487=VERTEX_POINT('',#1368);
#488=VERTEX_POINT('',#1370);
#489=VERTEX_POINT('',#1374);
#490=VERTEX_POINT('',#1376);
#491=VERTEX_POINT('',#1380);
#492=VERTEX_POINT('',#1382);
#493=VERTEX_POINT('',#1386);
#494=VERTEX_POINT('',#1388);
#495=VERTEX_POINT('',#1392);
#496=VERTEX_POINT('',#1394);
#497=VERTEX_POINT('',#1398);
#498=VERTEX_POINT('',#1400);
#499=VERTEX_POINT('',#1404);
#500=VERTEX_POINT('',#1406);
#501=VERTEX_POINT('',#1410);
#502=VERTEX_POINT('',#1412);
#503=VERTEX_POINT('',#1415);
#504=VERTEX_POINT('',#1417);
#505=VERTEX_POINT('',#1420);
#506=VERTEX_POINT('',#1422);
#507=VERTEX_POINT('',#1425);
#508=VERTEX_POINT('',#1427);
#509=VERTEX_POINT('',#1445);
#510=VERTEX_POINT('',#1447);
#511=LINE('',#1208,#587);
#512=LINE('',#1211,#588);
#513=LINE('',#1213,#589);
#514=LINE('',#1215,#590);
#515=LINE('',#1217,#591);
#516=LINE('',#1219,#592);
#517=LINE('',#1221,#593);
#518=LINE('',#1223,#594);
#519=LINE('',#1225,#595);
#520=LINE('',#1227,#596);
#521=LINE('',#1232,#597);
#522=LINE('',#1236,#598);
#523=LINE('',#1238,#599);
#524=LINE('',#1240,#600);
#525=LINE('',#1242,#601);
#526=LINE('',#1246,#602);
#527=LINE('',#1250,#603);
#528=LINE('',#1252,#604);
#529=LINE('',#1254,#605);
#530=LINE('',#1258,#606);
#531=LINE('',#1262,#607);
#532=LINE('',#1264,#608);
#533=LINE('',#1266,#609);
#534=LINE('',#1270,#610);
#535=LINE('',#1277,#611);
#536=LINE('',#1281,#612);
#537=LINE('',#1283,#613);
#538=LINE('',#1285,#614);
#539=LINE('',#1287,#615);
#540=LINE('',#1291,#616);
#541=LINE('',#1295,#617);
#542=LINE('',#1297,#618);
#543=LINE('',#1299,#619);
#544=LINE('',#1303,#620);
#545=LINE('',#1307,#621);
#546=LINE('',#1309,#622);
#547=LINE('',#1311,#623);
#548=LINE('',#1315,#624);
#549=LINE('',#1322,#625);
#550=LINE('',#1326,#626);
#551=LINE('',#1328,#627);
#552=LINE('',#1330,#628);
#553=LINE('',#1332,#629);
#554=LINE('',#1336,#630);
#555=LINE('',#1340,#631);
#556=LINE('',#1342,#632);
#557=LINE('',#1344,#633);
#558=LINE('',#1348,#634);
#559=LINE('',#1352,#635);
#560=LINE('',#1354,#636);
#561=LINE('',#1356,#637);
#562=LINE('',#1360,#638);
#563=LINE('',#1367,#639);
#564=LINE('',#1371,#640);
#565=LINE('',#1373,#641);
#566=LINE('',#1375,#642);
#567=LINE('',#1377,#643);
#568=LINE('',#1381,#644);
#569=LINE('',#1385,#645);
#570=LINE('',#1387,#646);
#571=LINE('',#1389,#647);
#572=LINE('',#1393,#648);
#573=LINE('',#1397,#649);
#574=LINE('',#1399,#650);
#575=LINE('',#1401,#651);
#576=LINE('',#1405,#652);
#577=LINE('',#1429,#653);
#578=LINE('',#1430,#654);
#579=LINE('',#1432,#655);
#580=LINE('',#1433,#656);
#581=LINE('',#1435,#657);
#582=LINE('',#1436,#658);
#583=LINE('',#1438,#659);
#584=LINE('',#1439,#660);
#585=LINE('',#1441,#661);
#586=LINE('',#1442,#662);
#587=VECTOR('',#962,1.);
#588=VECTOR('',#963,1.);
#589=VECTOR('',#964,1.);
#590=VECTOR('',#965,1.);
#591=VECTOR('',#968,1.);
#592=VECTOR('',#969,1.);
#593=VECTOR('',#970,1.);
#594=VECTOR('',#973,1.);
#595=VECTOR('',#974,1.);
#596=VECTOR('',#975,1.);
#597=VECTOR('',#980,1.);
#598=VECTOR('',#983,1.);
#599=VECTOR('',#986,1.);
#600=VECTOR('',#987,1.);
#601=VECTOR('',#988,1.);
#602=VECTOR('',#993,1.);
#603=VECTOR('',#998,1.);
#604=VECTOR('',#999,1.);
#605=VECTOR('',#1000,1.);
#606=VECTOR('',#1005,1.);
#607=VECTOR('',#1010,1.);
#608=VECTOR('',#1011,1.);
#609=VECTOR('',#1012,1.);
#610=VECTOR('',#1017,1.);
#611=VECTOR('',#1024,1.);
#612=VECTOR('',#1027,1.);
#613=VECTOR('',#1030,1.);
#614=VECTOR('',#1031,1.);
#615=VECTOR('',#1032,1.);
#616=VECTOR('',#1037,1.);
#617=VECTOR('',#1042,1.);
#618=VECTOR('',#1043,1.);
#619=VECTOR('',#1044,1.);
#620=VECTOR('',#1049,1.);
#621=VECTOR('',#1054,1.);
#622=VECTOR('',#1055,1.);
#623=VECTOR('',#1056,1.);
#624=VECTOR('',#1061,1.);
#625=VECTOR('',#1068,1.);
#626=VECTOR('',#1071,1.);
#627=VECTOR('',#1074,1.);
#628=VECTOR('',#1075,1.);
#629=VECTOR('',#1076,1.);
#630=VECTOR('',#1081,1.);
#631=VECTOR('',#1086,1.);
#632=VECTOR('',#1087,1.);
#633=VECTOR('',#1088,1.);
#634=VECTOR('',#1093,1.);
#635=VECTOR('',#1098,1.);
#636=VECTOR('',#1099,1.);
#637=VECTOR('',#1100,1.);
#638=VECTOR('',#1105,1.);
#639=VECTOR('',#1112,1.);
#640=VECTOR('',#1115,1.);
#641=VECTOR('',#1118,1.);
#642=VECTOR('',#1119,1.);
#643=VECTOR('',#1120,1.);
#644=VECTOR('',#1125,1.);
#645=VECTOR('',#1130,1.);
#646=VECTOR('',#1131,1.);
#647=VECTOR('',#1132,1.);
#648=VECTOR('',#1137,1.);
#649=VECTOR('',#1142,1.);
#650=VECTOR('',#1143,1.);
#651=VECTOR('',#1144,1.);
#652=VECTOR('',#1149,1.);
#653=VECTOR('',#1178,1.);
#654=VECTOR('',#1179,1.);
#655=VECTOR('',#1182,1.);
#656=VECTOR('',#1183,1.);
#657=VECTOR('',#1186,1.);
#658=VECTOR('',#1187,1.);
#659=VECTOR('',#1190,1.);
#660=VECTOR('',#1191,1.);
#661=VECTOR('',#1194,1.);
#662=VECTOR('',#1195,1.);
#663=EDGE_LOOP('',(#75,#76,#77,#78));
#664=EDGE_LOOP('',(#79,#80,#81,#82));
#665=EDGE_LOOP('',(#83,#84,#85,#86));
#666=EDGE_LOOP('',(#87,#88,#89,#90));
#667=EDGE_LOOP('',(#91,#92,#93,#94));
#668=EDGE_LOOP('',(#95,#96,#97,#98));
#669=EDGE_LOOP('',(#99,#100,#101,#102));
#670=EDGE_LOOP('',(#103,#104,#105,#106));
#671=EDGE_LOOP('',(#107,#108,#109,#110));
#672=EDGE_LOOP('',(#111,#112,#113,#114));
#673=EDGE_LOOP('',(#115,#116,#117,#118));
#674=EDGE_LOOP('',(#119,#120,#121,#122));
#675=EDGE_LOOP('',(#123,#124,#125,#126));
#676=EDGE_LOOP('',(#127,#128,#129,#130));
#677=EDGE_LOOP('',(#131,#132,#133,#134));
#678=EDGE_LOOP('',(#135,#136,#137,#138));
#679=EDGE_LOOP('',(#139,#140,#141,#142));
#680=EDGE_LOOP('',(#143,#144,#145,#146));
#681=EDGE_LOOP('',(#147,#148,#149,#150));
#682=EDGE_LOOP('',(#151,#152,#153,#154));
#683=EDGE_LOOP('',(#155,#156,#157,#158));
#684=EDGE_LOOP('',(#159,#160,#161,#162));
#685=EDGE_LOOP('',(#163,#164,#165,#166));
#686=EDGE_LOOP('',(#167,#168,#169,#170));
#687=EDGE_LOOP('',(#171,#172,#173,#174));
#688=EDGE_LOOP('',(#175,#176,#177,#178));
#689=EDGE_LOOP('',(#179,#180,#181,#182));
#690=EDGE_LOOP('',(#183,#184,#185,#186));
#691=EDGE_LOOP('',(#187,#188,#189,#190));
#692=EDGE_LOOP('',(#191,#192,#193,#194));
#693=EDGE_LOOP('',(#195,#196,#197,#198));
#694=EDGE_LOOP('',(#199));
#695=EDGE_LOOP('',(#200));
#696=EDGE_LOOP('',(#201));
#697=EDGE_LOOP('',(#202));
#698=EDGE_LOOP('',(#203));
#699=EDGE_LOOP('',(#204));
#700=EDGE_LOOP('',(#205));
#701=EDGE_LOOP('',(#206));
#702=EDGE_LOOP('',(#207,#208,#209,#210));
#703=EDGE_LOOP('',(#211,#212,#213,#214));
#704=EDGE_LOOP('',(#215,#216,#217,#218));
#705=EDGE_LOOP('',(#219,#220,#221,#222));
#706=EDGE_LOOP('',(#223,#224,#225,#226));
#707=EDGE_LOOP('',(#227));
#708=EDGE_LOOP('',(#228));
#709=EDGE_LOOP('',(#229,#230,#231,#232,#233,#234,#235,#236));
#710=EDGE_LOOP('',(#237,#238,#239,#240,#241,#242,#243,#244));
#711=EDGE_LOOP('',(#245,#246,#247,#248,#249,#250,#251,#252));
#712=EDGE_LOOP('',(#253,#254,#255,#256,#257,#258,#259,#260));
#713=EDGE_LOOP('',(#261,#262,#263,#264));
#714=EDGE_LOOP('',(#265));
#715=EDGE_LOOP('',(#266));
#716=EDGE_LOOP('',(#267));
#717=EDGE_LOOP('',(#268));
#718=EDGE_LOOP('',(#269));
#719=EDGE_LOOP('',(#270,#271,#272,#273,#274,#275,#276,#277));
#720=EDGE_LOOP('',(#278,#279,#280,#281,#282,#283,#284,#285));
#721=EDGE_LOOP('',(#286,#287,#288,#289,#290,#291,#292,#293));
#722=EDGE_LOOP('',(#294,#295,#296,#297,#298,#299,#300,#301));
#723=EDGE_LOOP('',(#302,#303,#304,#305));
#724=EDGE_LOOP('',(#306));
#725=EDGE_LOOP('',(#307));
#726=EDGE_LOOP('',(#308));
#727=EDGE_LOOP('',(#309));
#728=EDGE_LOOP('',(#310));
#729=FACE_BOUND('',#663,.T.);
#730=FACE_BOUND('',#664,.T.);
#731=FACE_BOUND('',#665,.T.);
#732=FACE_BOUND('',#666,.T.);
#733=FACE_BOUND('',#667,.T.);
#734=FACE_BOUND('',#668,.T.);
#735=FACE_BOUND('',#669,.T.);
#736=FACE_BOUND('',#670,.T.);
#737=FACE_BOUND('',#671,.T.);
#738=FACE_BOUND('',#672,.T.);
#739=FACE_BOUND('',#673,.T.);
#740=FACE_BOUND('',#674,.T.);
#741=FACE_BOUND('',#675,.T.);
#742=FACE_BOUND('',#676,.T.);
#743=FACE_BOUND('',#677,.T.);
#744=FACE_BOUND('',#678,.T.);
#745=FACE_BOUND('',#679,.T.);
#746=FACE_BOUND('',#680,.T.);
#747=FACE_BOUND('',#681,.T.);
#748=FACE_BOUND('',#682,.T.);
#749=FACE_BOUND('',#683,.T.);
#750=FACE_BOUND('',#684,.T.);
#751=FACE_BOUND('',#685,.T.);
#752=FACE_BOUND('',#686,.T.);
#753=FACE_BOUND('',#687,.T.);
#754=FACE_BOUND('',#688,.T.);
#755=FACE_BOUND('',#689,.T.);
#756=FACE_BOUND('',#690,.T.);
#757=FACE_BOUND('',#691,.T.);
#758=FACE_BOUND('',#692,.T.);
#759=FACE_BOUND('',#693,.T.);
#760=FACE_BOUND('',#694,.T.);
#761=FACE_BOUND('',#695,.T.);
#762=FACE_BOUND('',#696,.T.);
#763=FACE_BOUND('',#697,.T.);
#764=FACE_BOUND('',#698,.T.);
#765=FACE_BOUND('',#699,.T.);
#766=FACE_BOUND('',#700,.T.);
#767=FACE_BOUND('',#701,.T.);
#768=FACE_BOUND('',#702,.T.);
#769=FACE_BOUND('',#703,.T.);
#770=FACE_BOUND('',#704,.T.);
#771=FACE_BOUND('',#705,.T.);
#772=FACE_BOUND('',#706,.T.);
#773=FACE_BOUND('',#707,.T.);
#774=FACE_BOUND('',#708,.T.);
#775=FACE_BOUND('',#709,.T.);
#776=FACE_BOUND('',#710,.T.);
#777=FACE_BOUND('',#711,.T.);
#778=FACE_BOUND('',#712,.T.);
#779=FACE_BOUND('',#713,.T.);
#780=FACE_BOUND('',#714,.T.);
#781=FACE_BOUND('',#715,.T.);
#782=FACE_BOUND('',#716,.T.);
#783=FACE_BOUND('',#717,.T.);
#784=FACE_BOUND('',#718,.T.);
#785=FACE_BOUND('',#719,.T.);
#786=FACE_BOUND('',#720,.T.);
#787=FACE_BOUND('',#721,.T.);
#788=FACE_BOUND('',#722,.T.);
#789=FACE_BOUND('',#723,.T.);
#790=FACE_BOUND('',#724,.T.);
#791=FACE_BOUND('',#725,.T.);
#792=FACE_BOUND('',#726,.T.);
#793=FACE_BOUND('',#727,.T.);
#794=FACE_BOUND('',#728,.T.);
#795=PLANE('',#873);
#796=PLANE('',#874);
#797=PLANE('',#875);
#798=PLANE('',#879);
#799=PLANE('',#883);
#800=PLANE('',#887);
#801=PLANE('',#894);
#802=PLANE('',#898);
#803=PLANE('',#902);
#804=PLANE('',#909);
#805=PLANE('',#913);
#806=PLANE('',#917);
#807=PLANE('',#924);
#808=PLANE('',#928);
#809=PLANE('',#932);
#810=PLANE('',#948);
#811=PLANE('',#949);
#812=PLANE('',#950);
#813=PLANE('',#951);
#814=PLANE('',#952);
#815=PLANE('',#956);
#816=PLANE('',#957);
#817=ADVANCED_FACE('',(#729),#795,.T.);
#818=ADVANCED_FACE('',(#730),#796,.F.);
#819=ADVANCED_FACE('',(#731),#797,.F.);
#820=ADVANCED_FACE('',(#732),#54,.F.);
#821=ADVANCED_FACE('',(#733),#798,.F.);
#822=ADVANCED_FACE('',(#734),#55,.F.);
#823=ADVANCED_FACE('',(#735),#799,.F.);
#824=ADVANCED_FACE('',(#736),#56,.F.);
#825=ADVANCED_FACE('',(#737),#800,.T.);
#826=ADVANCED_FACE('',(#738),#57,.F.);
#827=ADVANCED_FACE('',(#739),#58,.F.);
#828=ADVANCED_FACE('',(#740),#801,.F.);
#829=ADVANCED_FACE('',(#741),#59,.F.);
#830=ADVANCED_FACE('',(#742),#802,.F.);
#831=ADVANCED_FACE('',(#743),#60,.F.);
#832=ADVANCED_FACE('',(#744),#803,.T.);
#833=ADVANCED_FACE('',(#745),#61,.F.);
#834=ADVANCED_FACE('',(#746),#62,.F.);
#835=ADVANCED_FACE('',(#747),#804,.F.);
#836=ADVANCED_FACE('',(#748),#63,.F.);
#837=ADVANCED_FACE('',(#749),#805,.F.);
#838=ADVANCED_FACE('',(#750),#64,.F.);
#839=ADVANCED_FACE('',(#751),#806,.T.);
#840=ADVANCED_FACE('',(#752),#65,.F.);
#841=ADVANCED_FACE('',(#753),#66,.F.);
#842=ADVANCED_FACE('',(#754),#807,.F.);
#843=ADVANCED_FACE('',(#755),#67,.F.);
#844=ADVANCED_FACE('',(#756),#808,.F.);
#845=ADVANCED_FACE('',(#757),#68,.F.);
#846=ADVANCED_FACE('',(#758),#809,.T.);
#847=ADVANCED_FACE('',(#759),#69,.F.);
#848=ADVANCED_FACE('',(#760,#761),#70,.F.);
#849=ADVANCED_FACE('',(#762,#763),#71,.F.);
#850=ADVANCED_FACE('',(#764,#765),#72,.F.);
#851=ADVANCED_FACE('',(#766,#767),#73,.F.);
#852=ADVANCED_FACE('',(#768),#810,.F.);
#853=ADVANCED_FACE('',(#769),#811,.T.);
#854=ADVANCED_FACE('',(#770),#812,.T.);
#855=ADVANCED_FACE('',(#771),#813,.T.);
#856=ADVANCED_FACE('',(#772),#814,.T.);
#857=ADVANCED_FACE('',(#773,#774),#74,.F.);
#858=ADVANCED_FACE('',(#775,#776,#777,#778,#779,#780,#781,#782,#783,#784),
#815,.T.);
#859=ADVANCED_FACE('',(#785,#786,#787,#788,#789,#790,#791,#792,#793,#794),
#816,.F.);
#860=CLOSED_SHELL('',(#817,#818,#819,#820,#821,#822,#823,#824,#825,#826,
#827,#828,#829,#830,#831,#832,#833,#834,#835,#836,#837,#838,#839,#840,#841,
#842,#843,#844,#845,#846,#847,#848,#849,#850,#851,#852,#853,#854,#855,#856,
#857,#858,#859));
#861=STYLED_ITEM('',(#862),#869);
#862=PRESENTATION_STYLE_ASSIGNMENT((#863));
#863=SURFACE_STYLE_USAGE(.BOTH.,#864);
#864=SURFACE_SIDE_STYLE('',(#865));
#865=SURFACE_STYLE_FILL_AREA(#866);
#866=FILL_AREA_STYLE('',(#867));
#867=FILL_AREA_STYLE_COLOUR('',#868);
#868=COLOUR_RGB('',0.282352941176471,0.549019607843137,0.16078431372549);
#869=MANIFOLD_SOLID_BREP('plate',#860);
#870=SHAPE_DEFINITION_REPRESENTATION(#1456,#871);
#871=SHAPE_REPRESENTATION('plate',(#872),#1451);
#872=AXIS2_PLACEMENT_3D('',#1206,#958,#959);
#873=AXIS2_PLACEMENT_3D('',#1207,#960,#961);
#874=AXIS2_PLACEMENT_3D('',#1216,#966,#967);
#875=AXIS2_PLACEMENT_3D('',#1222,#971,#972);
#876=AXIS2_PLACEMENT_3D('',#1228,#976,#977);
#877=AXIS2_PLACEMENT_3D('',#1229,#978,#979);
#878=AXIS2_PLACEMENT_3D('',#1234,#981,#982);
#879=AXIS2_PLACEMENT_3D('',#1237,#984,#985);
#880=AXIS2_PLACEMENT_3D('',#1243,#989,#990);
#881=AXIS2_PLACEMENT_3D('',#1244,#991,#992);
#882=AXIS2_PLACEMENT_3D('',#1248,#994,#995);
#883=AXIS2_PLACEMENT_3D('',#1249,#996,#997);
#884=AXIS2_PLACEMENT_3D('',#1255,#1001,#1002);
#885=AXIS2_PLACEMENT_3D('',#1256,#1003,#1004);
#886=AXIS2_PLACEMENT_3D('',#1260,#1006,#1007);
#887=AXIS2_PLACEMENT_3D('',#1261,#1008,#1009);
#888=AXIS2_PLACEMENT_3D('',#1267,#1013,#1014);
#889=AXIS2_PLACEMENT_3D('',#1268,#1015,#1016);
#890=AXIS2_PLACEMENT_3D('',#1272,#1018,#1019);
#891=AXIS2_PLACEMENT_3D('',#1273,#1020,#1021);
#892=AXIS2_PLACEMENT_3D('',#1274,#1022,#1023);
#893=AXIS2_PLACEMENT_3D('',#1279,#1025,#1026);
#894=AXIS2_PLACEMENT_3D('',#1282,#1028,#1029);
#895=AXIS2_PLACEMENT_3D('',#1288,#1033,#1034);
#896=AXIS2_PLACEMENT_3D('',#1289,#1035,#1036);
#897=AXIS2_PLACEMENT_3D('',#1293,#1038,#1039);
#898=AXIS2_PLACEMENT_3D('',#1294,#1040,#1041);
#899=AXIS2_PLACEMENT_3D('',#1300,#1045,#1046);
#900=AXIS2_PLACEMENT_3D('',#1301,#1047,#1048);
#901=AXIS2_PLACEMENT_3D('',#1305,#1050,#1051);
#902=AXIS2_PLACEMENT_3D('',#1306,#1052,#1053);
#903=AXIS2_PLACEMENT_3D('',#1312,#1057,#1058);
#904=AXIS2_PLACEMENT_3D('',#1313,#1059,#1060);
#905=AXIS2_PLACEMENT_3D('',#1317,#1062,#1063);
#906=AXIS2_PLACEMENT_3D('',#1318,#1064,#1065);
#907=AXIS2_PLACEMENT_3D('',#1319,#1066,#1067);
#908=AXIS2_PLACEMENT_3D('',#1324,#1069,#1070);
#909=AXIS2_PLACEMENT_3D('',#1327,#1072,#1073);
#910=AXIS2_PLACEMENT_3D('',#1333,#1077,#1078);
#911=AXIS2_PLACEMENT_3D('',#1334,#1079,#1080);
#912=AXIS2_PLACEMENT_3D('',#1338,#1082,#1083);
#913=AXIS2_PLACEMENT_3D('',#1339,#1084,#1085);
#914=AXIS2_PLACEMENT_3D('',#1345,#1089,#1090);
#915=AXIS2_PLACEMENT_3D('',#1346,#1091,#1092);
#916=AXIS2_PLACEMENT_3D('',#1350,#1094,#1095);
#917=AXIS2_PLACEMENT_3D('',#1351,#1096,#1097);
#918=AXIS2_PLACEMENT_3D('',#1357,#1101,#1102);
#919=AXIS2_PLACEMENT_3D('',#1358,#1103,#1104);
#920=AXIS2_PLACEMENT_3D('',#1362,#1106,#1107);
#921=AXIS2_PLACEMENT_3D('',#1363,#1108,#1109);
#922=AXIS2_PLACEMENT_3D('',#1364,#1110,#1111);
#923=AXIS2_PLACEMENT_3D('',#1369,#1113,#1114);
#924=AXIS2_PLACEMENT_3D('',#1372,#1116,#1117);
#925=AXIS2_PLACEMENT_3D('',#1378,#1121,#1122);
#926=AXIS2_PLACEMENT_3D('',#1379,#1123,#1124);
#927=AXIS2_PLACEMENT_3D('',#1383,#1126,#1127);
#928=AXIS2_PLACEMENT_3D('',#1384,#1128,#1129);
#929=AXIS2_PLACEMENT_3D('',#1390,#1133,#1134);
#930=AXIS2_PLACEMENT_3D('',#1391,#1135,#1136);
#931=AXIS2_PLACEMENT_3D('',#1395,#1138,#1139);
#932=AXIS2_PLACEMENT_3D('',#1396,#1140,#1141);
#933=AXIS2_PLACEMENT_3D('',#1402,#1145,#1146);
#934=AXIS2_PLACEMENT_3D('',#1403,#1147,#1148);
#935=AXIS2_PLACEMENT_3D('',#1407,#1150,#1151);
#936=AXIS2_PLACEMENT_3D('',#1408,#1152,#1153);
#937=AXIS2_PLACEMENT_3D('',#1409,#1154,#1155);
#938=AXIS2_PLACEMENT_3D('',#1411,#1156,#1157);
#939=AXIS2_PLACEMENT_3D('',#1413,#1158,#1159);
#940=AXIS2_PLACEMENT_3D('',#1414,#1160,#1161);
#941=AXIS2_PLACEMENT_3D('',#1416,#1162,#1163);
#942=AXIS2_PLACEMENT_3D('',#1418,#1164,#1165);
#943=AXIS2_PLACEMENT_3D('',#1419,#1166,#1167);
#944=AXIS2_PLACEMENT_3D('',#1421,#1168,#1169);
#945=AXIS2_PLACEMENT_3D('',#1423,#1170,#1171);
#946=AXIS2_PLACEMENT_3D('',#1424,#1172,#1173);
#947=AXIS2_PLACEMENT_3D('',#1426,#1174,#1175);
#948=AXIS2_PLACEMENT_3D('',#1428,#1176,#1177);
#949=AXIS2_PLACEMENT_3D('',#1431,#1180,#1181);
#950=AXIS2_PLACEMENT_3D('',#1434,#1184,#1185);
#951=AXIS2_PLACEMENT_3D('',#1437,#1188,#1189);
#952=AXIS2_PLACEMENT_3D('',#1440,#1192,#1193);
#953=AXIS2_PLACEMENT_3D('',#1443,#1196,#1197);
#954=AXIS2_PLACEMENT_3D('',#1444,#1198,#1199);
#955=AXIS2_PLACEMENT_3D('',#1446,#1200,#1201);
#956=AXIS2_PLACEMENT_3D('',#1448,#1202,#1203);
#957=AXIS2_PLACEMENT_3D('',#1449,#1204,#1205);
#958=DIRECTION('',(0.,0.,1.));
#959=DIRECTION('',(1.,0.,0.));
#960=DIRECTION('',(0.,1.,0.));
#961=DIRECTION('',(0.,0.,1.));
#962=DIRECTION('',(1.,0.,0.));
#963=DIRECTION('',(0.,0.,-1.));
#964=DIRECTION('',(1.,0.,0.));
#965=DIRECTION('',(0.,0.,-1.));
#966=DIRECTION('',(1.,6.05488124250195E-17,0.));
#967=DIRECTION('',(-6.05488124250195E-17,1.,0.));
#968=DIRECTION('',(6.05488124250195E-17,-1.,0.));
#969=DIRECTION('',(0.,0.,-1.));
#970=DIRECTION('',(6.05488124250195E-17,-1.,0.));
#971=DIRECTION('',(0.,1.,0.));
#972=DIRECTION('',(0.,0.,1.));
#973=DIRECTION('',(1.,0.,0.));
#974=DIRECTION('',(0.,0.,-1.));
#975=DIRECTION('',(1.,0.,0.));
#976=DIRECTION('',(0.,0.,-1.));
#977=DIRECTION('',(-1.,0.,0.));
#978=DIRECTION('',(0.,0.,1.));
#979=DIRECTION('',(-0.999998059945365,0.00196979834149457,0.));
#980=DIRECTION('',(0.,0.,-1.));
#981=DIRECTION('',(0.,0.,1.));
#982=DIRECTION('',(-0.999998059945365,0.00196979834149457,0.));
#983=DIRECTION('',(0.,0.,-1.));
#984=DIRECTION('',(-0.999998059945365,0.00196979834147003,0.));
#985=DIRECTION('',(-0.00196979834147003,-0.999998059945365,0.));
#986=DIRECTION('',(0.00196979834147003,0.999998059945365,0.));
#987=DIRECTION('',(0.,0.,-1.));
#988=DIRECTION('',(0.00196979834147003,0.999998059945365,0.));
#989=DIRECTION('',(0.,0.,-1.));
#990=DIRECTION('',(-1.,0.,0.));
#991=DIRECTION('',(0.,0.,1.));
#992=DIRECTION('',(0.00196979834146681,0.999998059945365,0.));
#993=DIRECTION('',(0.,0.,-1.));
#994=DIRECTION('',(0.,0.,1.));
#995=DIRECTION('',(0.00196979834146681,0.999998059945365,0.));
#996=DIRECTION('',(0.00196979834147003,0.999998059945365,0.));
#997=DIRECTION('',(-0.999998059945365,0.00196979834147003,0.));
#998=DIRECTION('',(0.999998059945365,-0.00196979834147003,0.));
#999=DIRECTION('',(0.,0.,-1.));
#1000=DIRECTION('',(0.999998059945365,-0.00196979834147003,0.));
#1001=DIRECTION('',(0.,0.,-1.));
#1002=DIRECTION('',(-1.,0.,0.));
#1003=DIRECTION('',(0.,0.,1.));
#1004=DIRECTION('',(0.999998059945365,-0.00196979834146681,0.));
#1005=DIRECTION('',(0.,0.,-1.));
#1006=DIRECTION('',(0.,0.,1.));
#1007=DIRECTION('',(0.999998059945365,-0.00196979834146681,0.));
#1008=DIRECTION('',(-0.999998059945365,0.00196979834147003,0.));
#1009=DIRECTION('',(-0.00196979834147003,-0.999998059945365,0.));
#1010=DIRECTION('',(0.00196979834147003,0.999998059945365,0.));
#1011=DIRECTION('',(0.,0.,-1.));
#1012=DIRECTION('',(0.00196979834147003,0.999998059945365,0.));
#1013=DIRECTION('',(0.,0.,-1.));
#1014=DIRECTION('',(-1.,0.,0.));
#1015=DIRECTION('',(0.,0.,1.));
#1016=DIRECTION('',(-0.00196979834146677,-0.999998059945365,0.));
#1017=DIRECTION('',(0.,0.,-1.));
#1018=DIRECTION('',(0.,0.,1.));
#1019=DIRECTION('',(-0.00196979834146677,-0.999998059945365,0.));
#1020=DIRECTION('',(0.,0.,-1.));
#1021=DIRECTION('',(-1.,0.,0.));
#1022=DIRECTION('',(0.,0.,1.));
#1023=DIRECTION('',(-0.999998059945365,0.00196979834149283,0.));
#1024=DIRECTION('',(0.,0.,-1.));
#1025=DIRECTION('',(0.,0.,1.));
#1026=DIRECTION('',(-0.999998059945365,0.00196979834149283,0.));
#1027=DIRECTION('',(0.,0.,-1.));
#1028=DIRECTION('',(-0.999998059945365,0.00196979834147002,0.));
#1029=DIRECTION('',(-0.00196979834147002,-0.999998059945365,0.));
#1030=DIRECTION('',(0.00196979834147002,0.999998059945365,0.));
#1031=DIRECTION('',(0.,0.,-1.));
#1032=DIRECTION('',(0.00196979834147002,0.999998059945365,0.));
#1033=DIRECTION('',(0.,0.,-1.));
#1034=DIRECTION('',(-1.,0.,0.));
#1035=DIRECTION('',(0.,0.,1.));
#1036=DIRECTION('',(0.00196979834146681,0.999998059945365,0.));
#1037=DIRECTION('',(0.,0.,-1.));
#1038=DIRECTION('',(0.,0.,1.));
#1039=DIRECTION('',(0.00196979834146681,0.999998059945365,0.));
#1040=DIRECTION('',(0.00196979834147002,0.999998059945365,0.));
#1041=DIRECTION('',(-0.999998059945365,0.00196979834147003,0.));
#1042=DIRECTION('',(0.999998059945365,-0.00196979834147003,0.));
#1043=DIRECTION('',(0.,0.,-1.));
#1044=DIRECTION('',(0.999998059945365,-0.00196979834147003,0.));
#1045=DIRECTION('',(0.,0.,-1.));
#1046=DIRECTION('',(-1.,0.,0.));
#1047=DIRECTION('',(0.,0.,1.));
#1048=DIRECTION('',(0.999998059945365,-0.00196979834146679,0.));
#1049=DIRECTION('',(0.,0.,-1.));
#1050=DIRECTION('',(0.,0.,1.));
#1051=DIRECTION('',(0.999998059945365,-0.00196979834146679,0.));
#1052=DIRECTION('',(-0.999998059945365,0.00196979834147002,0.));
#1053=DIRECTION('',(-0.00196979834147003,-0.999998059945365,0.));
#1054=DIRECTION('',(0.00196979834147003,0.999998059945365,0.));
#1055=DIRECTION('',(0.,0.,-1.));
#1056=DIRECTION('',(0.00196979834147003,0.999998059945365,0.));
#1057=DIRECTION('',(0.,0.,-1.));
#1058=DIRECTION('',(-1.,0.,0.));
#1059=DIRECTION('',(0.,0.,1.));
#1060=DIRECTION('',(-0.00196979834146682,-0.999998059945365,0.));
#1061=DIRECTION('',(0.,0.,-1.));
#1062=DIRECTION('',(0.,0.,1.));
#1063=DIRECTION('',(-0.00196979834146682,-0.999998059945365,0.));
#1064=DIRECTION('',(0.,0.,-1.));
#1065=DIRECTION('',(-1.,0.,0.));
#1066=DIRECTION('',(0.,0.,1.));
#1067=DIRECTION('',(-0.999998059945365,0.00196979834148244,0.));
#1068=DIRECTION('',(0.,0.,-1.));
#1069=DIRECTION('',(0.,0.,1.));
#1070=DIRECTION('',(-0.999998059945365,0.00196979834148244,0.));
#1071=DIRECTION('',(0.,0.,-1.));
#1072=DIRECTION('',(-0.999998059945365,0.00196979834147002,0.));
#1073=DIRECTION('',(-0.00196979834147002,-0.999998059945365,0.));
#1074=DIRECTION('',(0.00196979834147002,0.999998059945365,0.));
#1075=DIRECTION('',(0.,0.,-1.));
#1076=DIRECTION('',(0.00196979834147002,0.999998059945365,0.));
#1077=DIRECTION('',(0.,0.,-1.));
#1078=DIRECTION('',(-1.,0.,0.));
#1079=DIRECTION('',(0.,0.,1.));
#1080=DIRECTION('',(0.00196979834146682,0.999998059945365,0.));
#1081=DIRECTION('',(0.,0.,-1.));
#1082=DIRECTION('',(0.,0.,1.));
#1083=DIRECTION('',(0.00196979834146682,0.999998059945365,0.));
#1084=DIRECTION('',(0.00196979834147002,0.999998059945365,0.));
#1085=DIRECTION('',(-0.999998059945365,0.00196979834147002,0.));
#1086=DIRECTION('',(0.999998059945365,-0.00196979834147002,0.));
#1087=DIRECTION('',(0.,0.,-1.));
#1088=DIRECTION('',(0.999998059945365,-0.00196979834147002,0.));
#1089=DIRECTION('',(0.,0.,-1.));
#1090=DIRECTION('',(-1.,0.,0.));
#1091=DIRECTION('',(0.,0.,1.));
#1092=DIRECTION('',(0.999998059945365,-0.00196979834146681,0.));
#1093=DIRECTION('',(0.,0.,-1.));
#1094=DIRECTION('',(0.,0.,1.));
#1095=DIRECTION('',(0.999998059945365,-0.00196979834146681,0.));
#1096=DIRECTION('',(-0.999998059945365,0.00196979834147002,0.));
#1097=DIRECTION('',(-0.00196979834147002,-0.999998059945365,0.));
#1098=DIRECTION('',(0.00196979834147002,0.999998059945365,0.));
#1099=DIRECTION('',(0.,0.,-1.));
#1100=DIRECTION('',(0.00196979834147002,0.999998059945365,0.));
#1101=DIRECTION('',(0.,0.,-1.));
#1102=DIRECTION('',(-1.,0.,0.));
#1103=DIRECTION('',(0.,0.,1.));
#1104=DIRECTION('',(-0.00196979834146682,-0.999998059945365,0.));
#1105=DIRECTION('',(0.,0.,-1.));
#1106=DIRECTION('',(0.,0.,1.));
#1107=DIRECTION('',(-0.00196979834146682,-0.999998059945365,0.));
#1108=DIRECTION('',(0.,0.,-1.));
#1109=DIRECTION('',(-1.,0.,0.));
#1110=DIRECTION('',(0.,0.,1.));
#1111=DIRECTION('',(-0.999998059945365,0.0019697983414703,0.));
#1112=DIRECTION('',(0.,0.,-1.));
#1113=DIRECTION('',(0.,0.,1.));
#1114=DIRECTION('',(-0.999998059945365,0.0019697983414703,0.));
#1115=DIRECTION('',(0.,0.,-1.));
#1116=DIRECTION('',(-0.999998059945365,0.00196979834147009,0.));
#1117=DIRECTION('',(-0.00196979834147009,-0.999998059945365,0.));
#1118=DIRECTION('',(0.00196979834147009,0.999998059945365,0.));
#1119=DIRECTION('',(0.,0.,-1.));
#1120=DIRECTION('',(0.00196979834147009,0.999998059945365,0.));
#1121=DIRECTION('',(0.,0.,-1.));
#1122=DIRECTION('',(-1.,0.,0.));
#1123=DIRECTION('',(0.,0.,1.));
#1124=DIRECTION('',(0.00196979834145815,0.999998059945365,0.));
#1125=DIRECTION('',(0.,0.,-1.));
#1126=DIRECTION('',(0.,0.,1.));
#1127=DIRECTION('',(0.00196979834145815,0.999998059945365,0.));
#1128=DIRECTION('',(0.00196979834147002,0.999998059945365,0.));
#1129=DIRECTION('',(-0.999998059945365,0.00196979834147003,0.));
#1130=DIRECTION('',(0.999998059945365,-0.00196979834147003,0.));
#1131=DIRECTION('',(0.,0.,-1.));
#1132=DIRECTION('',(0.999998059945365,-0.00196979834147003,0.));
#1133=DIRECTION('',(0.,0.,-1.));
#1134=DIRECTION('',(-1.,0.,0.));
#1135=DIRECTION('',(0.,0.,1.));
#1136=DIRECTION('',(0.999998059945365,-0.00196979834146682,0.));
#1137=DIRECTION('',(0.,0.,-1.));
#1138=DIRECTION('',(0.,0.,1.));
#1139=DIRECTION('',(0.999998059945365,-0.00196979834146682,0.));
#1140=DIRECTION('',(-0.999998059945365,0.00196979834147002,0.));
#1141=DIRECTION('',(-0.00196979834147002,-0.999998059945365,0.));
#1142=DIRECTION('',(0.00196979834147002,0.999998059945365,0.));
#1143=DIRECTION('',(0.,0.,-1.));
#1144=DIRECTION('',(0.00196979834147002,0.999998059945365,0.));
#1145=DIRECTION('',(0.,0.,-1.));
#1146=DIRECTION('',(-1.,0.,0.));
#1147=DIRECTION('',(0.,0.,1.));
#1148=DIRECTION('',(-0.00196979834146682,-0.999998059945365,0.));
#1149=DIRECTION('',(0.,0.,-1.));
#1150=DIRECTION('',(0.,0.,1.));
#1151=DIRECTION('',(-0.00196979834146682,-0.999998059945365,0.));
#1152=DIRECTION('',(0.,0.,-1.));
#1153=DIRECTION('',(-1.,0.,0.));
#1154=DIRECTION('',(0.,0.,1.));
#1155=DIRECTION('',(1.,0.,0.));
#1156=DIRECTION('',(0.,0.,1.));
#1157=DIRECTION('',(1.,0.,0.));
#1158=DIRECTION('',(0.,0.,-1.));
#1159=DIRECTION('',(-1.,0.,0.));
#1160=DIRECTION('',(0.,0.,1.));
#1161=DIRECTION('',(1.,0.,0.));
#1162=DIRECTION('',(0.,0.,1.));
#1163=DIRECTION('',(1.,0.,0.));
#1164=DIRECTION('',(0.,0.,-1.));
#1165=DIRECTION('',(-1.,0.,0.));
#1166=DIRECTION('',(0.,0.,1.));
#1167=DIRECTION('',(1.,0.,0.));
#1168=DIRECTION('',(0.,0.,1.));
#1169=DIRECTION('',(1.,0.,0.));
#1170=DIRECTION('',(0.,0.,-1.));
#1171=DIRECTION('',(-1.,0.,0.));
#1172=DIRECTION('',(0.,0.,1.));
#1173=DIRECTION('',(1.,0.,0.));
#1174=DIRECTION('',(0.,0.,1.));
#1175=DIRECTION('',(1.,0.,0.));
#1176=DIRECTION('',(-1.,0.,0.));
#1177=DIRECTION('',(0.,0.,1.));
#1178=DIRECTION('',(0.,1.,0.));
#1179=DIRECTION('',(0.,1.,0.));
#1180=DIRECTION('',(0.00196979834147003,0.999998059945365,0.));
#1181=DIRECTION('',(-0.999998059945365,0.00196979834147003,0.));
#1182=DIRECTION('',(0.999998059945365,-0.00196979834147003,0.));
#1183=DIRECTION('',(0.999998059945365,-0.00196979834147003,0.));
#1184=DIRECTION('',(0.00196979834147009,0.999998059945365,0.));
#1185=DIRECTION('',(-0.999998059945365,0.00196979834147009,0.));
#1186=DIRECTION('',(0.999998059945365,-0.00196979834147009,0.));
#1187=DIRECTION('',(0.999998059945365,-0.00196979834147009,0.));
#1188=DIRECTION('',(0.00196979834147009,0.999998059945365,0.));
#1189=DIRECTION('',(-0.999998059945365,0.00196979834147009,0.));
#1190=DIRECTION('',(0.999998059945365,-0.00196979834147009,0.));
#1191=DIRECTION('',(0.999998059945365,-0.00196979834147009,0.));
#1192=DIRECTION('',(0.00196979834147009,0.999998059945365,0.));
#1193=DIRECTION('',(-0.999998059945365,0.00196979834147009,0.));
#1194=DIRECTION('',(0.999998059945365,-0.00196979834147009,0.));
#1195=DIRECTION('',(0.999998059945365,-0.00196979834147009,0.));
#1196=DIRECTION('',(0.,0.,-1.));
#1197=DIRECTION('',(-1.,0.,0.));
#1198=DIRECTION('',(0.,0.,1.));
#1199=DIRECTION('',(1.,0.,0.));
#1200=DIRECTION('',(0.,0.,1.));
#1201=DIRECTION('',(1.,0.,0.));
#1202=DIRECTION('',(0.,0.,1.));
#1203=DIRECTION('',(1.,0.,0.));
#1204=DIRECTION('',(0.,0.,1.));
#1205=DIRECTION('',(1.,0.,0.));
#1206=CARTESIAN_POINT('',(0.,0.,0.));
#1207=CARTESIAN_POINT('',(0.0298720023989677,0.052380882916227,0.016));
#1208=CARTESIAN_POINT('',(0.0298720023989677,0.052380882916227,0.013));
#1209=CARTESIAN_POINT('',(-0.00502799760103232,0.052380882916227,0.013));
#1210=CARTESIAN_POINT('',(0.0647720023989677,0.052380882916227,0.013));
#1211=CARTESIAN_POINT('',(-0.00502799760103232,0.052380882916227,0.016));
#1212=CARTESIAN_POINT('',(-0.00502799760103232,0.052380882916227,0.016));
#1213=CARTESIAN_POINT('',(0.0298720023989677,0.052380882916227,0.016));
#1214=CARTESIAN_POINT('',(0.0647720023989677,0.052380882916227,0.016));
#1215=CARTESIAN_POINT('',(0.0647720023989677,0.052380882916227,0.016));
#1216=CARTESIAN_POINT('',(-0.00502799760103231,0.023730882916227,0.016));
#1217=CARTESIAN_POINT('',(-0.00502799760103231,0.023730882916227,0.013));
#1218=CARTESIAN_POINT('',(-0.00502799760103231,-0.00491911708377302,0.013));
#1219=CARTESIAN_POINT('',(-0.00502799760103231,-0.00491911708377302,0.016));
#1220=CARTESIAN_POINT('',(-0.00502799760103231,-0.00491911708377302,0.016));
#1221=CARTESIAN_POINT('',(-0.00502799760103231,0.023730882916227,0.016));
#1222=CARTESIAN_POINT('',(0.0298720023989677,-0.00491911708377302,0.016));
#1223=CARTESIAN_POINT('',(0.0298720023989677,-0.00491911708377302,0.013));
#1224=CARTESIAN_POINT('',(0.0647720023989677,-0.00491911708377302,0.013));
#1225=CARTESIAN_POINT('',(0.0647720023989677,-0.00491911708377302,0.016));
#1226=CARTESIAN_POINT('',(0.0647720023989677,-0.00491911708377302,0.016));
#1227=CARTESIAN_POINT('',(0.0298720023989677,-0.00491911708377302,0.016));
#1228=CARTESIAN_POINT('',(0.0427250232299309,0.0256637751639182,0.016));
#1229=CARTESIAN_POINT('',(0.0427250232299309,0.0256637751639182,0.013));
#1230=CARTESIAN_POINT('',(0.0422250241999583,0.0256647600630889,0.013));
#1231=CARTESIAN_POINT('',(0.0427240383307602,0.0251637761339456,0.013));
#1232=CARTESIAN_POINT('',(0.0422250241999583,0.0256647600630889,0.016));
#1233=CARTESIAN_POINT('',(0.0422250241999583,0.0256647600630889,0.016));
#1234=CARTESIAN_POINT('',(0.0427250232299309,0.0256637751639182,0.016));
#1235=CARTESIAN_POINT('',(0.0427240383307602,0.0251637761339456,0.016));
#1236=CARTESIAN_POINT('',(0.0427240383307602,0.0251637761339456,0.016));
#1237=CARTESIAN_POINT('',(0.0422378278891778,0.0321647474527339,0.016));
#1238=CARTESIAN_POINT('',(0.0422378278891778,0.0321647474527339,0.013));
#1239=CARTESIAN_POINT('',(0.0422506315783973,0.0386647348423787,0.013));
#1240=CARTESIAN_POINT('',(0.0422506315783973,0.0386647348423787,0.016));
#1241=CARTESIAN_POINT('',(0.0422506315783973,0.0386647348423787,0.016));
#1242=CARTESIAN_POINT('',(0.0422378278891778,0.0321647474527339,0.016));
#1243=CARTESIAN_POINT('',(0.04275063060837,0.038663749943208,0.016));
#1244=CARTESIAN_POINT('',(0.04275063060837,0.038663749943208,0.013));
#1245=CARTESIAN_POINT('',(0.0427516155075408,0.0391637489731807,0.013));
#1246=CARTESIAN_POINT('',(0.0427516155075408,0.0391637489731807,0.016));
#1247=CARTESIAN_POINT('',(0.0427516155075408,0.0391637489731807,0.016));
#1248=CARTESIAN_POINT('',(0.04275063060837,0.038663749943208,0.016));
#1249=CARTESIAN_POINT('',(0.0492516028971856,0.0391509452839611,0.016));
#1250=CARTESIAN_POINT('',(0.0492516028971856,0.0391509452839611,0.013));
#1251=CARTESIAN_POINT('',(0.0557515902868305,0.0391381415947415,0.013));
#1252=CARTESIAN_POINT('',(0.0557515902868305,0.0391381415947415,0.016));
#1253=CARTESIAN_POINT('',(0.0557515902868305,0.0391381415947415,0.016));
#1254=CARTESIAN_POINT('',(0.0492516028971856,0.0391509452839611,0.016));
#1255=CARTESIAN_POINT('',(0.0557506053876598,0.0386381425647689,0.016));
#1256=CARTESIAN_POINT('',(0.0557506053876598,0.0386381425647689,0.013));
#1257=CARTESIAN_POINT('',(0.0562506044176325,0.0386371576655982,0.013));
#1258=CARTESIAN_POINT('',(0.0562506044176325,0.0386371576655982,0.016));
#1259=CARTESIAN_POINT('',(0.0562506044176325,0.0386371576655982,0.016));
#1260=CARTESIAN_POINT('',(0.0557506053876598,0.0386381425647689,0.016));
#1261=CARTESIAN_POINT('',(0.0562378007284129,0.0321371702759533,0.016));
#1262=CARTESIAN_POINT('',(0.0562378007284129,0.0321371702759533,0.013));
#1263=CARTESIAN_POINT('',(0.0562249970391934,0.0256371828863084,0.013));
#1264=CARTESIAN_POINT('',(0.0562249970391934,0.0256371828863084,0.016));
#1265=CARTESIAN_POINT('',(0.0562249970391934,0.0256371828863084,0.016));
#1266=CARTESIAN_POINT('',(0.0562378007284129,0.0321371702759533,0.016));
#1267=CARTESIAN_POINT('',(0.0557249980092207,0.0256381677854791,0.016));
#1268=CARTESIAN_POINT('',(0.0557249980092207,0.0256381677854791,0.013));
#1269=CARTESIAN_POINT('',(0.0557240131100499,0.0251381687555064,0.013));
#1270=CARTESIAN_POINT('',(0.0557240131100499,0.0251381687555064,0.016));
#1271=CARTESIAN_POINT('',(0.0557240131100499,0.0251381687555064,0.016));
#1272=CARTESIAN_POINT('',(0.0557249980092207,0.0256381677854791,0.016));
#1273=CARTESIAN_POINT('',(0.0426874985715259,0.00661381212195898,0.016));
#1274=CARTESIAN_POINT('',(0.0426874985715259,0.00661381212195898,0.013));
#1275=CARTESIAN_POINT('',(0.0421874995415532,0.00661479702112973,0.013));
#1276=CARTESIAN_POINT('',(0.0426865136723552,0.00611381309198631,0.013));
#1277=CARTESIAN_POINT('',(0.0421874995415532,0.00661479702112973,0.016));
#1278=CARTESIAN_POINT('',(0.0421874995415532,0.00661479702112973,0.016));
#1279=CARTESIAN_POINT('',(0.0426874985715259,0.00661381212195898,0.016));
#1280=CARTESIAN_POINT('',(0.0426865136723552,0.00611381309198631,0.016));
#1281=CARTESIAN_POINT('',(0.0426865136723552,0.00611381309198631,0.016));
#1282=CARTESIAN_POINT('',(0.0422003032307728,0.0131147844107746,0.016));
#1283=CARTESIAN_POINT('',(0.0422003032307728,0.0131147844107746,0.013));
#1284=CARTESIAN_POINT('',(0.0422131069199923,0.0196147718004195,0.013));
#1285=CARTESIAN_POINT('',(0.0422131069199923,0.0196147718004195,0.016));
#1286=CARTESIAN_POINT('',(0.0422131069199923,0.0196147718004195,0.016));
#1287=CARTESIAN_POINT('',(0.0422003032307728,0.0131147844107746,0.016));
#1288=CARTESIAN_POINT('',(0.0427131059499651,0.0196137869012488,0.016));
#1289=CARTESIAN_POINT('',(0.0427131059499651,0.0196137869012488,0.013));
#1290=CARTESIAN_POINT('',(0.0427140908491358,0.0201137859312214,0.013));
#1291=CARTESIAN_POINT('',(0.0427140908491358,0.0201137859312214,0.016));
#1292=CARTESIAN_POINT('',(0.0427140908491358,0.0201137859312214,0.016));
#1293=CARTESIAN_POINT('',(0.0427131059499651,0.0196137869012488,0.016));
#1294=CARTESIAN_POINT('',(0.0492140782387806,0.0201009822420018,0.016));
#1295=CARTESIAN_POINT('',(0.0492140782387806,0.0201009822420018,0.013));
#1296=CARTESIAN_POINT('',(0.0557140656284255,0.0200881785527823,0.013));
#1297=CARTESIAN_POINT('',(0.0557140656284255,0.0200881785527823,0.016));
#1298=CARTESIAN_POINT('',(0.0557140656284255,0.0200881785527823,0.016));
#1299=CARTESIAN_POINT('',(0.0492140782387806,0.0201009822420018,0.016));
#1300=CARTESIAN_POINT('',(0.0557130807292548,0.0195881795228096,0.016));
#1301=CARTESIAN_POINT('',(0.0557130807292548,0.0195881795228096,0.013));
#1302=CARTESIAN_POINT('',(0.0562130797592275,0.0195871946236389,0.013));
#1303=CARTESIAN_POINT('',(0.0562130797592275,0.0195871946236389,0.016));
#1304=CARTESIAN_POINT('',(0.0562130797592275,0.0195871946236389,0.016));
#1305=CARTESIAN_POINT('',(0.0557130807292548,0.0195881795228096,0.016));
#1306=CARTESIAN_POINT('',(0.0562002760700079,0.013087207233994,0.016));
#1307=CARTESIAN_POINT('',(0.0562002760700079,0.013087207233994,0.013));
#1308=CARTESIAN_POINT('',(0.0561874723807884,0.00658721984434915,0.013));
#1309=CARTESIAN_POINT('',(0.0561874723807884,0.00658721984434915,0.016));
#1310=CARTESIAN_POINT('',(0.0561874723807884,0.00658721984434915,0.016));
#1311=CARTESIAN_POINT('',(0.0562002760700079,0.013087207233994,0.016));
#1312=CARTESIAN_POINT('',(0.0556874733508157,0.00658820474351989,0.016));
#1313=CARTESIAN_POINT('',(0.0556874733508157,0.00658820474351989,0.013));
#1314=CARTESIAN_POINT('',(0.0556864884516449,0.0060882057135472,0.013));
#1315=CARTESIAN_POINT('',(0.0556864884516449,0.0060882057135472,0.016));
#1316=CARTESIAN_POINT('',(0.0556864884516449,0.0060882057135472,0.016));
#1317=CARTESIAN_POINT('',(0.0556874733508157,0.00658820474351989,0.016));
#1318=CARTESIAN_POINT('',(0.0236375355295667,0.00665133678036399,0.016));
#1319=CARTESIAN_POINT('',(0.0236375355295667,0.00665133678036399,0.013));
#1320=CARTESIAN_POINT('',(0.023137536499594,0.00665232167953474,0.013));
#1321=CARTESIAN_POINT('',(0.0236365506303959,0.00615133775039132,0.013));
#1322=CARTESIAN_POINT('',(0.023137536499594,0.00665232167953474,0.016));
#1323=CARTESIAN_POINT('',(0.023137536499594,0.00665232167953474,0.016));
#1324=CARTESIAN_POINT('',(0.0236375355295667,0.00665133678036399,0.016));
#1325=CARTESIAN_POINT('',(0.0236365506303959,0.00615133775039132,0.016));
#1326=CARTESIAN_POINT('',(0.0236365506303959,0.00615133775039132,0.016));
#1327=CARTESIAN_POINT('',(0.0231503401888136,0.0131523090691796,0.016));
#1328=CARTESIAN_POINT('',(0.0231503401888136,0.0131523090691796,0.013));
#1329=CARTESIAN_POINT('',(0.0231631438780332,0.0196522964588245,0.013));
#1330=CARTESIAN_POINT('',(0.0231631438780332,0.0196522964588245,0.016));
#1331=CARTESIAN_POINT('',(0.0231631438780332,0.0196522964588245,0.016));
#1332=CARTESIAN_POINT('',(0.0231503401888136,0.0131523090691796,0.016));
#1333=CARTESIAN_POINT('',(0.0236631429080058,0.0196513115596538,0.016));
#1334=CARTESIAN_POINT('',(0.0236631429080058,0.0196513115596538,0.013));
#1335=CARTESIAN_POINT('',(0.0236641278071766,0.0201513105896265,0.013));
#1336=CARTESIAN_POINT('',(0.0236641278071766,0.0201513105896265,0.016));
#1337=CARTESIAN_POINT('',(0.0236641278071766,0.0201513105896265,0.016));
#1338=CARTESIAN_POINT('',(0.0236631429080058,0.0196513115596538,0.016));
#1339=CARTESIAN_POINT('',(0.0301641151968214,0.0201385069004069,0.016));
#1340=CARTESIAN_POINT('',(0.0301641151968214,0.0201385069004069,0.013));
#1341=CARTESIAN_POINT('',(0.0366641025864663,0.0201257032111873,0.013));
#1342=CARTESIAN_POINT('',(0.0366641025864663,0.0201257032111873,0.016));
#1343=CARTESIAN_POINT('',(0.0366641025864663,0.0201257032111873,0.016));
#1344=CARTESIAN_POINT('',(0.0301641151968214,0.0201385069004069,0.016));
#1345=CARTESIAN_POINT('',(0.0366631176872956,0.0196257041812146,0.016));
#1346=CARTESIAN_POINT('',(0.0366631176872956,0.0196257041812146,0.013));
#1347=CARTESIAN_POINT('',(0.0371631167172682,0.0196247192820439,0.013));
#1348=CARTESIAN_POINT('',(0.0371631167172682,0.0196247192820439,0.016));
#1349=CARTESIAN_POINT('',(0.0371631167172682,0.0196247192820439,0.016));
#1350=CARTESIAN_POINT('',(0.0366631176872956,0.0196257041812146,0.016));
#1351=CARTESIAN_POINT('',(0.0371503130280487,0.013124731892399,0.016));
#1352=CARTESIAN_POINT('',(0.0371503130280487,0.013124731892399,0.013));
#1353=CARTESIAN_POINT('',(0.0371375093388292,0.00662474450275415,0.013));
#1354=CARTESIAN_POINT('',(0.0371375093388292,0.00662474450275415,0.016));
#1355=CARTESIAN_POINT('',(0.0371375093388292,0.00662474450275415,0.016));
#1356=CARTESIAN_POINT('',(0.0371503130280487,0.013124731892399,0.016));
#1357=CARTESIAN_POINT('',(0.0366375103088565,0.00662572940192489,0.016));
#1358=CARTESIAN_POINT('',(0.0366375103088565,0.00662572940192489,0.013));
#1359=CARTESIAN_POINT('',(0.0366365254096858,0.00612573037195221,0.013));
#1360=CARTESIAN_POINT('',(0.0366365254096858,0.00612573037195221,0.016));
#1361=CARTESIAN_POINT('',(0.0366365254096858,0.00612573037195221,0.016));
#1362=CARTESIAN_POINT('',(0.0366375103088565,0.00662572940192489,0.016));
#1363=CARTESIAN_POINT('',(0.00458757248760748,0.00668886143876901,0.016));
#1364=CARTESIAN_POINT('',(0.00458757248760748,0.00668886143876901,0.013));
#1365=CARTESIAN_POINT('',(0.0040875734576348,0.00668984633793974,0.013));
#1366=CARTESIAN_POINT('',(0.00458658758843675,0.00618886240879632,0.013));
#1367=CARTESIAN_POINT('',(0.0040875734576348,0.00668984633793974,0.016));
#1368=CARTESIAN_POINT('',(0.0040875734576348,0.00668984633793974,0.016));
#1369=CARTESIAN_POINT('',(0.00458757248760748,0.00668886143876901,0.016));
#1370=CARTESIAN_POINT('',(0.00458658758843675,0.00618886240879632,0.016));
#1371=CARTESIAN_POINT('',(0.00458658758843675,0.00618886240879632,0.016));
#1372=CARTESIAN_POINT('',(0.00410037714685435,0.0131898337275846,0.016));
#1373=CARTESIAN_POINT('',(0.00410037714685435,0.0131898337275846,0.013));
#1374=CARTESIAN_POINT('',(0.00411318083607391,0.0196898211172295,0.013));
#1375=CARTESIAN_POINT('',(0.00411318083607391,0.0196898211172295,0.016));
#1376=CARTESIAN_POINT('',(0.00411318083607391,0.0196898211172295,0.016));
#1377=CARTESIAN_POINT('',(0.00410037714685435,0.0131898337275846,0.016));
#1378=CARTESIAN_POINT('',(0.0046131798660466,0.0196888362180588,0.016));
#1379=CARTESIAN_POINT('',(0.0046131798660466,0.0196888362180588,0.013));
#1380=CARTESIAN_POINT('',(0.00461416476521733,0.0201888352480315,0.013));
#1381=CARTESIAN_POINT('',(0.00461416476521733,0.0201888352480315,0.016));
#1382=CARTESIAN_POINT('',(0.00461416476521733,0.0201888352480315,0.016));
#1383=CARTESIAN_POINT('',(0.0046131798660466,0.0196888362180588,0.016));
#1384=CARTESIAN_POINT('',(0.0111141521548622,0.0201760315588119,0.016));
#1385=CARTESIAN_POINT('',(0.0111141521548622,0.0201760315588119,0.013));
#1386=CARTESIAN_POINT('',(0.0176141395445071,0.0201632278695924,0.013));
#1387=CARTESIAN_POINT('',(0.0176141395445071,0.0201632278695924,0.016));
#1388=CARTESIAN_POINT('',(0.0176141395445071,0.0201632278695924,0.016));
#1389=CARTESIAN_POINT('',(0.0111141521548622,0.0201760315588119,0.016));
#1390=CARTESIAN_POINT('',(0.0176131546453363,0.0196632288396196,0.016));
#1391=CARTESIAN_POINT('',(0.0176131546453363,0.0196632288396196,0.013));
#1392=CARTESIAN_POINT('',(0.018113153675309,0.0196622439404489,0.013));
#1393=CARTESIAN_POINT('',(0.018113153675309,0.0196622439404489,0.016));
#1394=CARTESIAN_POINT('',(0.018113153675309,0.0196622439404489,0.016));
#1395=CARTESIAN_POINT('',(0.0176131546453363,0.0196632288396196,0.016));
#1396=CARTESIAN_POINT('',(0.0181003499860894,0.013162256550804,0.016));
#1397=CARTESIAN_POINT('',(0.0181003499860894,0.013162256550804,0.013));
#1398=CARTESIAN_POINT('',(0.0180875462968699,0.00666226916115916,0.013));
#1399=CARTESIAN_POINT('',(0.0180875462968699,0.00666226916115916,0.016));
#1400=CARTESIAN_POINT('',(0.0180875462968699,0.00666226916115916,0.016));
#1401=CARTESIAN_POINT('',(0.0181003499860894,0.013162256550804,0.016));
#1402=CARTESIAN_POINT('',(0.0175875472668972,0.00666325406032989,0.016));
#1403=CARTESIAN_POINT('',(0.0175875472668972,0.00666325406032989,0.013));
#1404=CARTESIAN_POINT('',(0.0175865623677265,0.00616325503035721,0.013));
#1405=CARTESIAN_POINT('',(0.0175865623677265,0.00616325503035721,0.016));
#1406=CARTESIAN_POINT('',(0.0175865623677265,0.00616325503035721,0.016));
#1407=CARTESIAN_POINT('',(0.0175875472668972,0.00666325406032989,0.016));
#1408=CARTESIAN_POINT('',(0.0622686117895101,-0.0020754230208695,0.016));
#1409=CARTESIAN_POINT('',(0.0622686117895101,-0.0020754230208695,0.016));
#1410=CARTESIAN_POINT('',(0.0637186117895101,-0.0020754230208695,0.016));
#1411=CARTESIAN_POINT('',(0.0622686117895101,-0.0020754230208695,0.013));
#1412=CARTESIAN_POINT('',(0.0637186117895101,-0.0020754230208695,0.013));
#1413=CARTESIAN_POINT('',(-0.00236215914187064,-0.002057224194686,0.016));
#1414=CARTESIAN_POINT('',(-0.00236215914187064,-0.002057224194686,0.016));
#1415=CARTESIAN_POINT('',(-0.00091215914187064,-0.002057224194686,0.016));
#1416=CARTESIAN_POINT('',(-0.00236215914187064,-0.002057224194686,0.013));
#1417=CARTESIAN_POINT('',(-0.00091215914187064,-0.002057224194686,0.013));
#1418=CARTESIAN_POINT('',(-0.0022329562343657,0.0497189164161682,0.016));
#1419=CARTESIAN_POINT('',(-0.0022329562343657,0.0497189164161682,0.016));
#1420=CARTESIAN_POINT('',(-0.0007829562343657,0.0497189164161682,0.016));
#1421=CARTESIAN_POINT('',(-0.0022329562343657,0.0497189164161682,0.013));
#1422=CARTESIAN_POINT('',(-0.0007829562343657,0.0497189164161682,0.013));
#1423=CARTESIAN_POINT('',(0.0112499985843897,0.0320400036871433,0.016));
#1424=CARTESIAN_POINT('',(0.0112499985843897,0.0320400036871433,0.016));
#1425=CARTESIAN_POINT('',(0.0149999985843897,0.0320400036871433,0.016));
#1426=CARTESIAN_POINT('',(0.0112499985843897,0.0320400036871433,0.013));
#1427=CARTESIAN_POINT('',(0.0149999985843897,0.0320400036871433,0.013));
#1428=CARTESIAN_POINT('',(0.0647720023989677,0.023730882916227,0.016));
#1429=CARTESIAN_POINT('',(0.0647720023989677,0.023730882916227,0.013));
#1430=CARTESIAN_POINT('',(0.0647720023989677,0.023730882916227,0.016));
#1431=CARTESIAN_POINT('',(0.0492240257204051,0.0251509724447259,0.016));
#1432=CARTESIAN_POINT('',(0.0492240257204051,0.0251509724447259,0.013));
#1433=CARTESIAN_POINT('',(0.0492240257204051,0.0251509724447259,0.016));
#1434=CARTESIAN_POINT('',(0.0491865010620001,0.00610100940276676,0.016));
#1435=CARTESIAN_POINT('',(0.0491865010620001,0.00610100940276676,0.013));
#1436=CARTESIAN_POINT('',(0.0491865010620001,0.00610100940276676,0.016));
#1437=CARTESIAN_POINT('',(0.0301365380200409,0.00613853406117176,0.016));
#1438=CARTESIAN_POINT('',(0.0301365380200409,0.00613853406117176,0.013));
#1439=CARTESIAN_POINT('',(0.0301365380200409,0.00613853406117176,0.016));
#1440=CARTESIAN_POINT('',(0.0110865749780816,0.00617605871957676,0.016));
#1441=CARTESIAN_POINT('',(0.0110865749780816,0.00617605871957676,0.013));
#1442=CARTESIAN_POINT('',(0.0110865749780816,0.00617605871957676,0.016));
#1443=CARTESIAN_POINT('',(0.0618211283771179,0.0495304916624399,0.016));
#1444=CARTESIAN_POINT('',(0.0618211283771179,0.0495304916624399,0.016));
#1445=CARTESIAN_POINT('',(0.0632711283771179,0.0495304916624399,0.016));
#1446=CARTESIAN_POINT('',(0.0618211283771179,0.0495304916624399,0.013));
#1447=CARTESIAN_POINT('',(0.0632711283771179,0.0495304916624399,0.013));
#1448=CARTESIAN_POINT('',(0.0298720023989677,0.023730882916227,0.016));
#1449=CARTESIAN_POINT('',(0.0298720023989677,0.023730882916227,0.013));
#1450=MECHANICAL_DESIGN_GEOMETRIC_PRESENTATION_REPRESENTATION('',(#861),
#1451);
#1451=(
GEOMETRIC_REPRESENTATION_CONTEXT(3)
GLOBAL_UNCERTAINTY_ASSIGNED_CONTEXT((#1452))
GLOBAL_UNIT_ASSIGNED_CONTEXT((#1455,#1454,#1453))
REPRESENTATION_CONTEXT('plate','TOP_LEVEL_ASSEMBLY_PART')
);
#1452=UNCERTAINTY_MEASURE_WITH_UNIT(LENGTH_MEASURE(1.E-8),#1455,
'DISTANCE_ACCURACY_VALUE','Maximum Tolerance applied to model');
#1453=(
NAMED_UNIT(*)
SI_UNIT($,.STERADIAN.)
SOLID_ANGLE_UNIT()
);
#1454=(
NAMED_UNIT(*)
PLANE_ANGLE_UNIT()
SI_UNIT($,.RADIAN.)
);
#1455=(
LENGTH_UNIT()
NAMED_UNIT(*)
SI_UNIT($,.METRE.)
);
#1456=PRODUCT_DEFINITION_SHAPE('','',#1457);
#1457=PRODUCT_DEFINITION('','',#1459,#1458);
#1458=PRODUCT_DEFINITION_CONTEXT('',#1465,'design');
#1459=PRODUCT_DEFINITION_FORMATION_WITH_SPECIFIED_SOURCE('','',#1461,
 .NOT_KNOWN.);
#1460=PRODUCT_RELATED_PRODUCT_CATEGORY('','',(#1461));
#1461=PRODUCT('plate','plate','plate',(#1463));
#1462=PRODUCT_CATEGORY('','');
#1463=PRODUCT_CONTEXT('',#1465,'mechanical');
#1464=APPLICATION_PROTOCOL_DEFINITION('international standard',
'ap242_managed_model_based_3d_engineering',2020,#1465);
#1465=APPLICATION_CONTEXT('managed model based 3d engineering');
ENDSEC;
END-ISO-10303-21;
