ISO-10303-21;
HEADER;
FILE_DESCRIPTION(('FreeCAD Model'),'2;1');
FILE_NAME('Open CASCADE Shape Model','2026-08-05T21:41:02',('Author'),(
    ''),'Open CASCADE STEP processor 7.8','FreeCAD','Unknown');
FILE_SCHEMA(('AUTOMOTIVE_DESIGN { 1 0 10303 214 1 1 1 1 }'));
ENDSEC;
DATA;
#1 = APPLICATION_PROTOCOL_DEFINITION('international standard',
  'automotive_design',2000,#2);
#2 = APPLICATION_CONTEXT(
  'core data for automotive mechanical design processes');
#3 = SHAPE_DEFINITION_REPRESENTATION(#4,#10);
#4 = PRODUCT_DEFINITION_SHAPE('','',#5);
#5 = PRODUCT_DEFINITION('design','',#6,#9);
#6 = PRODUCT_DEFINITION_FORMATION('','',#7);
#7 = PRODUCT('1x1 R1 v23','1x1 R1 v23','',(#8));
#8 = PRODUCT_CONTEXT('',#2,'mechanical');
#9 = PRODUCT_DEFINITION_CONTEXT('part definition',#2,'design');
#10 = ADVANCED_BREP_SHAPE_REPRESENTATION('',(#11,#15),#1466);
#11 = AXIS2_PLACEMENT_3D('',#12,#13,#14);
#12 = CARTESIAN_POINT('',(0.,0.,0.));
#13 = DIRECTION('',(0.,0.,1.));
#14 = DIRECTION('',(1.,0.,-0.));
#15 = MANIFOLD_SOLID_BREP('',#16);
#16 = CLOSED_SHELL('',(#17,#57,#89,#120,#152,#183,#215,#288,#320,#351,
    #383,#414,#446,#468,#492,#577,#608,#640,#664,#688,#705,#772,#804,
    #841,#913,#1008,#1056,#1081,#1112,#1146,#1200,#1225,#1261,#1315,
    #1369,#1394,#1427,#1444));
#17 = ADVANCED_FACE('',(#18),#52,.T.);
#18 = FACE_BOUND('',#19,.T.);
#19 = EDGE_LOOP('',(#20,#30,#38,#46));
#20 = ORIENTED_EDGE('',*,*,#21,.F.);
#21 = EDGE_CURVE('',#22,#24,#26,.T.);
#22 = VERTEX_POINT('',#23);
#23 = CARTESIAN_POINT('',(-0.55,7.248587705072,-0.6));
#24 = VERTEX_POINT('',#25);
#25 = CARTESIAN_POINT('',(-0.55,7.028547344694,-2.));
#26 = LINE('',#27,#28);
#27 = CARTESIAN_POINT('',(-0.55,7.248587705072,-0.6));
#28 = VECTOR('',#29,1.);
#29 = DIRECTION('',(1.95849835864E-16,-0.155265626843,-0.987872757556));
#30 = ORIENTED_EDGE('',*,*,#31,.F.);
#31 = EDGE_CURVE('',#32,#22,#34,.T.);
#32 = VERTEX_POINT('',#33);
#33 = CARTESIAN_POINT('',(-0.55,0.,-0.6));
#34 = LINE('',#35,#36);
#35 = CARTESIAN_POINT('',(-0.55,0.,-0.6));
#36 = VECTOR('',#37,1.);
#37 = DIRECTION('',(0.,1.,0.));
#38 = ORIENTED_EDGE('',*,*,#39,.T.);
#39 = EDGE_CURVE('',#32,#40,#42,.T.);
#40 = VERTEX_POINT('',#41);
#41 = CARTESIAN_POINT('',(-0.55,0.,-2.));
#42 = LINE('',#43,#44);
#43 = CARTESIAN_POINT('',(-0.55,0.,-2.));
#44 = VECTOR('',#45,1.);
#45 = DIRECTION('',(1.982541115402E-16,0.,-1.));
#46 = ORIENTED_EDGE('',*,*,#47,.T.);
#47 = EDGE_CURVE('',#40,#24,#48,.T.);
#48 = LINE('',#49,#50);
#49 = CARTESIAN_POINT('',(-0.55,0.,-2.));
#50 = VECTOR('',#51,1.);
#51 = DIRECTION('',(0.,1.,0.));
#52 = PLANE('',#53);
#53 = AXIS2_PLACEMENT_3D('',#54,#55,#56);
#54 = CARTESIAN_POINT('',(-0.55,0.,-0.6));
#55 = DIRECTION('',(1.,0.,1.982541115402E-16));
#56 = DIRECTION('',(1.982541115402E-16,0.,-1.));
#57 = ADVANCED_FACE('',(#58),#84,.T.);
#58 = FACE_BOUND('',#59,.T.);
#59 = EDGE_LOOP('',(#60,#69,#77,#83));
#60 = ORIENTED_EDGE('',*,*,#61,.F.);
#61 = EDGE_CURVE('',#62,#22,#64,.T.);
#62 = VERTEX_POINT('',#63);
#63 = CARTESIAN_POINT('',(-2.,7.280086079902,-0.6));
#64 = ELLIPSE('',#65,6.68058555699,0.741435499213);
#65 = AXIS2_PLACEMENT_3D('',#66,#67,#68);
#66 = CARTESIAN_POINT('',(5.496733868156E-03,7.987505872715,-0.6));
#67 = DIRECTION('',(2.006303143062E-15,-1.649571518968E-16,1.));
#68 = DIRECTION('',(0.999999995801,9.164388524528E-05,
    -2.006288017323E-15));
#69 = ORIENTED_EDGE('',*,*,#70,.F.);
#70 = EDGE_CURVE('',#71,#62,#73,.T.);
#71 = VERTEX_POINT('',#72);
#72 = CARTESIAN_POINT('',(-2.,0.,-0.6));
#73 = LINE('',#74,#75);
#74 = CARTESIAN_POINT('',(-2.,0.,-0.6));
#75 = VECTOR('',#76,1.);
#76 = DIRECTION('',(0.,1.,0.));
#77 = ORIENTED_EDGE('',*,*,#78,.T.);
#78 = EDGE_CURVE('',#71,#32,#79,.T.);
#79 = LINE('',#80,#81);
#80 = CARTESIAN_POINT('',(-0.55,0.,-0.6));
#81 = VECTOR('',#82,1.);
#82 = DIRECTION('',(1.,0.,-2.009886510097E-15));
#83 = ORIENTED_EDGE('',*,*,#31,.T.);
#84 = PLANE('',#85);
#85 = AXIS2_PLACEMENT_3D('',#86,#87,#88);
#86 = CARTESIAN_POINT('',(-2.,0.,-0.6));
#87 = DIRECTION('',(2.009886510097E-15,0.,1.));
#88 = DIRECTION('',(1.,0.,-2.009886510097E-15));
#89 = ADVANCED_FACE('',(#90),#115,.T.);
#90 = FACE_BOUND('',#91,.T.);
#91 = EDGE_LOOP('',(#92,#100,#108,#114));
#92 = ORIENTED_EDGE('',*,*,#93,.F.);
#93 = EDGE_CURVE('',#94,#62,#96,.T.);
#94 = VERTEX_POINT('',#95);
#95 = CARTESIAN_POINT('',(-2.,7.469145980476,0.6));
#96 = LINE('',#97,#98);
#97 = CARTESIAN_POINT('',(-2.,7.469145980476,0.6));
#98 = VECTOR('',#99,1.);
#99 = DIRECTION('',(0.,-0.155630231752,-0.987815383037));
#100 = ORIENTED_EDGE('',*,*,#101,.F.);
#101 = EDGE_CURVE('',#102,#94,#104,.T.);
#102 = VERTEX_POINT('',#103);
#103 = CARTESIAN_POINT('',(-2.,0.,0.6));
#104 = LINE('',#105,#106);
#105 = CARTESIAN_POINT('',(-2.,0.,0.6));
#106 = VECTOR('',#107,1.);
#107 = DIRECTION('',(0.,1.,0.));
#108 = ORIENTED_EDGE('',*,*,#109,.T.);
#109 = EDGE_CURVE('',#102,#71,#110,.T.);
#110 = LINE('',#111,#112);
#111 = CARTESIAN_POINT('',(-2.,0.,-0.6));
#112 = VECTOR('',#113,1.);
#113 = DIRECTION('',(0.,0.,-1.));
#114 = ORIENTED_EDGE('',*,*,#70,.T.);
#115 = PLANE('',#116);
#116 = AXIS2_PLACEMENT_3D('',#117,#118,#119);
#117 = CARTESIAN_POINT('',(-2.,0.,0.6));
#118 = DIRECTION('',(1.,0.,0.));
#119 = DIRECTION('',(0.,0.,-1.));
#120 = ADVANCED_FACE('',(#121),#147,.T.);
#121 = FACE_BOUND('',#122,.T.);
#122 = EDGE_LOOP('',(#123,#132,#140,#146));
#123 = ORIENTED_EDGE('',*,*,#124,.F.);
#124 = EDGE_CURVE('',#125,#94,#127,.T.);
#125 = VERTEX_POINT('',#126);
#126 = CARTESIAN_POINT('',(-0.55,7.437194513328,0.6));
#127 = ELLIPSE('',#128,6.636716415165,0.741991397858);
#128 = AXIS2_PLACEMENT_3D('',#129,#130,#131);
#129 = CARTESIAN_POINT('',(5.654559174141E-03,8.17663320817,0.6));
#130 = DIRECTION('',(-1.33747129804E-15,1.113223038917E-16,-1.));
#131 = DIRECTION('',(0.99999999543,9.560340765417E-05,
    -1.337460649136E-15));
#132 = ORIENTED_EDGE('',*,*,#133,.F.);
#133 = EDGE_CURVE('',#134,#125,#136,.T.);
#134 = VERTEX_POINT('',#135);
#135 = CARTESIAN_POINT('',(-0.55,0.,0.6));
#136 = LINE('',#137,#138);
#137 = CARTESIAN_POINT('',(-0.55,0.,0.6));
#138 = VECTOR('',#139,1.);
#139 = DIRECTION('',(0.,1.,0.));
#140 = ORIENTED_EDGE('',*,*,#141,.T.);
#141 = EDGE_CURVE('',#134,#102,#142,.T.);
#142 = LINE('',#143,#144);
#143 = CARTESIAN_POINT('',(-2.,0.,0.6));
#144 = VECTOR('',#145,1.);
#145 = DIRECTION('',(-1.,0.,1.339924340065E-15));
#146 = ORIENTED_EDGE('',*,*,#101,.T.);
#147 = PLANE('',#148);
#148 = AXIS2_PLACEMENT_3D('',#149,#150,#151);
#149 = CARTESIAN_POINT('',(-0.55,0.,0.6));
#150 = DIRECTION('',(-1.339924340065E-15,0.,-1.));
#151 = DIRECTION('',(-1.,0.,1.339924340065E-15));
#152 = ADVANCED_FACE('',(#153),#178,.T.);
#153 = FACE_BOUND('',#154,.T.);
#154 = EDGE_LOOP('',(#155,#163,#171,#177));
#155 = ORIENTED_EDGE('',*,*,#156,.F.);
#156 = EDGE_CURVE('',#157,#125,#159,.T.);
#157 = VERTEX_POINT('',#158);
#158 = CARTESIAN_POINT('',(-0.55,7.657236734011,2.));
#159 = LINE('',#160,#161);
#160 = CARTESIAN_POINT('',(-0.55,7.657236734011,2.));
#161 = VECTOR('',#162,1.);
#162 = DIRECTION('',(-4.406620408809E-16,-0.155266907872,-0.987872556214
    ));
#163 = ORIENTED_EDGE('',*,*,#164,.F.);
#164 = EDGE_CURVE('',#165,#157,#167,.T.);
#165 = VERTEX_POINT('',#166);
#166 = CARTESIAN_POINT('',(-0.55,0.,2.));
#167 = LINE('',#168,#169);
#168 = CARTESIAN_POINT('',(-0.55,0.,2.));
#169 = VECTOR('',#170,1.);
#170 = DIRECTION('',(0.,1.,0.));
#171 = ORIENTED_EDGE('',*,*,#172,.T.);
#172 = EDGE_CURVE('',#165,#134,#173,.T.);
#173 = LINE('',#174,#175);
#174 = CARTESIAN_POINT('',(-0.55,0.,0.6));
#175 = VECTOR('',#176,1.);
#176 = DIRECTION('',(-4.460717509655E-16,0.,-1.));
#177 = ORIENTED_EDGE('',*,*,#133,.T.);
#178 = PLANE('',#179);
#179 = AXIS2_PLACEMENT_3D('',#180,#181,#182);
#180 = CARTESIAN_POINT('',(-0.55,0.,2.));
#181 = DIRECTION('',(1.,0.,-4.460717509655E-16));
#182 = DIRECTION('',(-4.460717509655E-16,0.,-1.));
#183 = ADVANCED_FACE('',(#184),#210,.T.);
#184 = FACE_BOUND('',#185,.T.);
#185 = EDGE_LOOP('',(#186,#195,#203,#209));
#186 = ORIENTED_EDGE('',*,*,#187,.F.);
#187 = EDGE_CURVE('',#188,#157,#190,.T.);
#188 = VERTEX_POINT('',#189);
#189 = CARTESIAN_POINT('',(0.55,7.657236734011,2.));
#190 = CIRCLE('',#191,58.286288781002);
#191 = AXIS2_PLACEMENT_3D('',#192,#193,#194);
#192 = CARTESIAN_POINT('',(-5.825756543842E-12,65.940930507332,2.));
#193 = DIRECTION('',(0.,0.,-1.));
#194 = DIRECTION('',(-9.436181501634E-03,-0.999955478248,-0.));
#195 = ORIENTED_EDGE('',*,*,#196,.F.);
#196 = EDGE_CURVE('',#197,#188,#199,.T.);
#197 = VERTEX_POINT('',#198);
#198 = CARTESIAN_POINT('',(0.55,0.,2.));
#199 = LINE('',#200,#201);
#200 = CARTESIAN_POINT('',(0.55,0.,2.));
#201 = VECTOR('',#202,1.);
#202 = DIRECTION('',(0.,1.,0.));
#203 = ORIENTED_EDGE('',*,*,#204,.T.);
#204 = EDGE_CURVE('',#197,#165,#205,.T.);
#205 = LINE('',#206,#207);
#206 = CARTESIAN_POINT('',(-0.55,0.,2.));
#207 = VECTOR('',#208,1.);
#208 = DIRECTION('',(-1.,0.,0.));
#209 = ORIENTED_EDGE('',*,*,#164,.T.);
#210 = PLANE('',#211);
#211 = AXIS2_PLACEMENT_3D('',#212,#213,#214);
#212 = CARTESIAN_POINT('',(0.55,0.,2.));
#213 = DIRECTION('',(0.,0.,-1.));
#214 = DIRECTION('',(-1.,0.,0.));
#215 = ADVANCED_FACE('',(#216),#283,.T.);
#216 = FACE_BOUND('',#217,.T.);
#217 = EDGE_LOOP('',(#218,#229,#236,#275,#276));
#218 = ORIENTED_EDGE('',*,*,#219,.T.);
#219 = EDGE_CURVE('',#220,#222,#224,.T.);
#220 = VERTEX_POINT('',#221);
#221 = CARTESIAN_POINT('',(-2.8,0.,2.563347153012E-15));
#222 = VERTEX_POINT('',#223);
#223 = CARTESIAN_POINT('',(-2.58695079635,0.,-1.071300880828));
#224 = CIRCLE('',#225,2.8);
#225 = AXIS2_PLACEMENT_3D('',#226,#227,#228);
#226 = CARTESIAN_POINT('',(4.1633356806E-17,0.,2.22044604925E-15));
#227 = DIRECTION('',(-0.,1.,0.));
#228 = DIRECTION('',(1.,0.,0.));
#229 = ORIENTED_EDGE('',*,*,#230,.T.);
#230 = EDGE_CURVE('',#222,#231,#233,.T.);
#231 = VERTEX_POINT('',#232);
#232 = CARTESIAN_POINT('',(-2.58695079635,7.229549003149,-1.071300880828
    ));
#233 = B_SPLINE_CURVE_WITH_KNOTS('',1,(#234,#235),.UNSPECIFIED.,.F.,.F.,
  (2,2),(0.,7.229549003149),.PIECEWISE_BEZIER_KNOTS.);
#234 = CARTESIAN_POINT('',(-2.58695079635,0.,-1.071300880828));
#235 = CARTESIAN_POINT('',(-2.58695079635,7.229549003149,-1.071300880828
    ));
#236 = ORIENTED_EDGE('',*,*,#237,.F.);
#237 = EDGE_CURVE('',#231,#231,#238,.T.);
#238 = B_SPLINE_CURVE_WITH_KNOTS('',3,(#239,#240,#241,#242,#243,#244,
    #245,#246,#247,#248,#249,#250,#251,#252,#253,#254,#255,#256,#257,
    #258,#259,#260,#261,#262,#263,#264,#265,#266,#267,#268,#269,#270,
    #271,#272,#273,#274),.UNSPECIFIED.,.T.,.F.,(1,3,2,2,2,2,2,2,2,2,2,2,
    2,2,2,2,2,2,3,1),(-1.889957487656,-1.776332697346,-1.761521912111,
    -1.647414889074,-1.536487056801,-1.427246675662,-1.316165552128,
    -1.209338655843,-1.10157569307,-0.990025888061,-0.877918071955,
    -0.765755752939,-0.6530198658,-0.543529164521,-0.432190012332,
    -0.32885656887,-0.224920975538,-0.11362479031,0.,1.481078523569E-02)
  ,.UNSPECIFIED.);
#239 = CARTESIAN_POINT('',(-2.58695079635,7.229549003149,-1.071300880828
    ));
#240 = CARTESIAN_POINT('',(-2.605592143531,7.237518101,-1.026286218004)
  );
#241 = CARTESIAN_POINT('',(-2.62305372266,7.245519905301,-0.980796685317
    ));
#242 = CARTESIAN_POINT('',(-2.764626043054,7.315348512581,
    -0.581114570733));
#243 = CARTESIAN_POINT('',(-2.817641730477,7.377603656644,
    -0.205441466139));
#244 = CARTESIAN_POINT('',(-2.772689062773,7.492185361738,0.534548312785
    ));
#245 = CARTESIAN_POINT('',(-2.679294977906,7.543719603437,0.892232443115
    ));
#246 = CARTESIAN_POINT('',(-2.361269386732,7.6324402324,1.54759174267));
#247 = CARTESIAN_POINT('',(-2.141690658527,7.669082050347,1.839791184341
    ));
#248 = CARTESIAN_POINT('',(-1.597416582571,7.727921001993,2.329035320206
    ));
#249 = CARTESIAN_POINT('',(-1.276571633499,7.74934953896,2.519359563177)
  );
#250 = CARTESIAN_POINT('',(-0.591958452913,7.776072855682,2.759730886998
    ));
#251 = CARTESIAN_POINT('',(-0.236781583371,7.781724797574,2.812583504426
    ));
#252 = CARTESIAN_POINT('',(0.477568027378,7.778424085054,2.782238352957)
  );
#253 = CARTESIAN_POINT('',(0.829885649889,7.769373132184,2.69813764169)
  );
#254 = CARTESIAN_POINT('',(1.494683926548,7.735415696351,2.396618010811)
  );
#255 = CARTESIAN_POINT('',(1.798466351573,7.710275325398,2.177750339119)
  );
#256 = CARTESIAN_POINT('',(2.303943175047,7.643268895992,1.634104787112)
  );
#257 = CARTESIAN_POINT('',(2.499879913218,7.601912974146,1.31448348414)
  );
#258 = CARTESIAN_POINT('',(2.755788281035,7.504491079144,0.618894871062)
  );
#259 = CARTESIAN_POINT('',(2.813164996812,7.449292697145,0.249825858508)
  );
#260 = CARTESIAN_POINT('',(2.781691331448,7.330827567142,-0.489797170705
    ));
#261 = CARTESIAN_POINT('',(2.69236535344,7.268623716267,-0.853676320439)
  );
#262 = CARTESIAN_POINT('',(2.38174283696,7.150127158014,-1.515614730762)
  );
#263 = CARTESIAN_POINT('',(2.166851106679,7.094783486657,-1.809880569157
    ));
#264 = CARTESIAN_POINT('',(1.631127210204,6.999392064866,-2.305383458297
    ));
#265 = CARTESIAN_POINT('',(1.313638754851,6.960591300001,-2.50026436713)
  );
#266 = CARTESIAN_POINT('',(0.643902243067,6.911257793707,-2.74651954219)
  );
#267 = CARTESIAN_POINT('',(0.302123973161,6.89937163347,-2.804861125161)
  );
#268 = CARTESIAN_POINT('',(-0.388352790836,6.901474762088,
    -2.794475319073));
#269 = CARTESIAN_POINT('',(-0.730087043861,6.915593881776,
    -2.725111856961));
#270 = CARTESIAN_POINT('',(-1.393019472423,6.969218398027,
    -2.456877804641));
#271 = CARTESIAN_POINT('',(-1.703852748735,7.00985049571,-2.252114594008
    ));
#272 = CARTESIAN_POINT('',(-2.232919277747,7.109786124196,
    -1.730583632989));
#273 = CARTESIAN_POINT('',(-2.443938853988,7.168411996716,
    -1.416642572227));
#274 = CARTESIAN_POINT('',(-2.58695079635,7.229549003149,-1.071300880828
    ));
#275 = ORIENTED_EDGE('',*,*,#230,.F.);
#276 = ORIENTED_EDGE('',*,*,#277,.T.);
#277 = EDGE_CURVE('',#222,#220,#278,.T.);
#278 = CIRCLE('',#279,2.8);
#279 = AXIS2_PLACEMENT_3D('',#280,#281,#282);
#280 = CARTESIAN_POINT('',(4.1633356806E-17,0.,2.22044604925E-15));
#281 = DIRECTION('',(-0.,1.,0.));
#282 = DIRECTION('',(1.,0.,0.));
#283 = CYLINDRICAL_SURFACE('',#284,2.8);
#284 = AXIS2_PLACEMENT_3D('',#285,#286,#287);
#285 = CARTESIAN_POINT('',(4.1633356806E-17,0.,2.22044604925E-15));
#286 = DIRECTION('',(0.,1.,0.));
#287 = DIRECTION('',(1.,0.,0.));
#288 = ADVANCED_FACE('',(#289),#315,.T.);
#289 = FACE_BOUND('',#290,.T.);
#290 = EDGE_LOOP('',(#291,#300,#301,#309));
#291 = ORIENTED_EDGE('',*,*,#292,.F.);
#292 = EDGE_CURVE('',#24,#293,#295,.T.);
#293 = VERTEX_POINT('',#294);
#294 = CARTESIAN_POINT('',(0.55,7.028547344694,-2.));
#295 = CIRCLE('',#296,61.061849802478);
#296 = AXIS2_PLACEMENT_3D('',#297,#298,#299);
#297 = CARTESIAN_POINT('',(-4.819825094593E-12,68.087920100237,-2.));
#298 = DIRECTION('',(0.,0.,1.));
#299 = DIRECTION('',(9.007260700158E-03,-0.999959433805,0.));
#300 = ORIENTED_EDGE('',*,*,#47,.F.);
#301 = ORIENTED_EDGE('',*,*,#302,.T.);
#302 = EDGE_CURVE('',#40,#303,#305,.T.);
#303 = VERTEX_POINT('',#304);
#304 = CARTESIAN_POINT('',(0.55,0.,-2.));
#305 = LINE('',#306,#307);
#306 = CARTESIAN_POINT('',(0.55,0.,-2.));
#307 = VECTOR('',#308,1.);
#308 = DIRECTION('',(1.,0.,0.));
#309 = ORIENTED_EDGE('',*,*,#310,.T.);
#310 = EDGE_CURVE('',#303,#293,#311,.T.);
#311 = LINE('',#312,#313);
#312 = CARTESIAN_POINT('',(0.55,0.,-2.));
#313 = VECTOR('',#314,1.);
#314 = DIRECTION('',(0.,1.,0.));
#315 = PLANE('',#316);
#316 = AXIS2_PLACEMENT_3D('',#317,#318,#319);
#317 = CARTESIAN_POINT('',(-0.55,0.,-2.));
#318 = DIRECTION('',(0.,0.,1.));
#319 = DIRECTION('',(1.,0.,-0.));
#320 = ADVANCED_FACE('',(#321),#346,.T.);
#321 = FACE_BOUND('',#322,.T.);
#322 = EDGE_LOOP('',(#323,#331,#339,#345));
#323 = ORIENTED_EDGE('',*,*,#324,.F.);
#324 = EDGE_CURVE('',#325,#188,#327,.T.);
#325 = VERTEX_POINT('',#326);
#326 = CARTESIAN_POINT('',(0.55,7.437194513328,0.6));
#327 = LINE('',#328,#329);
#328 = CARTESIAN_POINT('',(0.55,7.437194513328,0.6));
#329 = VECTOR('',#330,1.);
#330 = DIRECTION('',(-1.66472326555E-15,0.155266907872,0.987872556214));
#331 = ORIENTED_EDGE('',*,*,#332,.F.);
#332 = EDGE_CURVE('',#333,#325,#335,.T.);
#333 = VERTEX_POINT('',#334);
#334 = CARTESIAN_POINT('',(0.55,0.,0.6));
#335 = LINE('',#336,#337);
#336 = CARTESIAN_POINT('',(0.55,0.,0.6));
#337 = VECTOR('',#338,1.);
#338 = DIRECTION('',(0.,1.,0.));
#339 = ORIENTED_EDGE('',*,*,#340,.T.);
#340 = EDGE_CURVE('',#333,#197,#341,.T.);
#341 = LINE('',#342,#343);
#342 = CARTESIAN_POINT('',(0.55,0.,2.));
#343 = VECTOR('',#344,1.);
#344 = DIRECTION('',(-1.685159948092E-15,0.,1.));
#345 = ORIENTED_EDGE('',*,*,#196,.T.);
#346 = PLANE('',#347);
#347 = AXIS2_PLACEMENT_3D('',#348,#349,#350);
#348 = CARTESIAN_POINT('',(0.55,0.,0.6));
#349 = DIRECTION('',(-1.,0.,-1.685159948092E-15));
#350 = DIRECTION('',(-1.685159948092E-15,0.,1.));
#351 = ADVANCED_FACE('',(#352),#378,.T.);
#352 = FACE_BOUND('',#353,.T.);
#353 = EDGE_LOOP('',(#354,#363,#371,#377));
#354 = ORIENTED_EDGE('',*,*,#355,.F.);
#355 = EDGE_CURVE('',#356,#325,#358,.T.);
#356 = VERTEX_POINT('',#357);
#357 = CARTESIAN_POINT('',(2.,7.469145980476,0.6));
#358 = ELLIPSE('',#359,6.636716414508,0.741991397719);
#359 = AXIS2_PLACEMENT_3D('',#360,#361,#362);
#360 = CARTESIAN_POINT('',(-5.65455893685E-03,8.17663320803,0.6));
#361 = DIRECTION('',(5.9242030822E-16,-7.339537633212E-15,-1.));
#362 = DIRECTION('',(0.99999999543,-9.560340366753E-05,
    5.931219902917E-16));
#363 = ORIENTED_EDGE('',*,*,#364,.F.);
#364 = EDGE_CURVE('',#365,#356,#367,.T.);
#365 = VERTEX_POINT('',#366);
#366 = CARTESIAN_POINT('',(2.,0.,0.6));
#367 = LINE('',#368,#369);
#368 = CARTESIAN_POINT('',(2.,0.,0.6));
#369 = VECTOR('',#370,1.);
#370 = DIRECTION('',(0.,1.,0.));
#371 = ORIENTED_EDGE('',*,*,#372,.T.);
#372 = EDGE_CURVE('',#365,#333,#373,.T.);
#373 = LINE('',#374,#375);
#374 = CARTESIAN_POINT('',(0.55,0.,0.6));
#375 = VECTOR('',#376,1.);
#376 = DIRECTION('',(-1.,0.,-4.306899664494E-16));
#377 = ORIENTED_EDGE('',*,*,#332,.T.);
#378 = PLANE('',#379);
#379 = AXIS2_PLACEMENT_3D('',#380,#381,#382);
#380 = CARTESIAN_POINT('',(2.,0.,0.6));
#381 = DIRECTION('',(4.306899664494E-16,0.,-1.));
#382 = DIRECTION('',(-1.,0.,-4.306899664494E-16));
#383 = ADVANCED_FACE('',(#384),#409,.T.);
#384 = FACE_BOUND('',#385,.T.);
#385 = EDGE_LOOP('',(#386,#394,#402,#408));
#386 = ORIENTED_EDGE('',*,*,#387,.F.);
#387 = EDGE_CURVE('',#388,#356,#390,.T.);
#388 = VERTEX_POINT('',#389);
#389 = CARTESIAN_POINT('',(2.,7.280086079902,-0.6));
#390 = LINE('',#391,#392);
#391 = CARTESIAN_POINT('',(2.,7.280086079902,-0.6));
#392 = VECTOR('',#393,1.);
#393 = DIRECTION('',(0.,0.155630231752,0.987815383037));
#394 = ORIENTED_EDGE('',*,*,#395,.F.);
#395 = EDGE_CURVE('',#396,#388,#398,.T.);
#396 = VERTEX_POINT('',#397);
#397 = CARTESIAN_POINT('',(2.,0.,-0.6));
#398 = LINE('',#399,#400);
#399 = CARTESIAN_POINT('',(2.,0.,-0.6));
#400 = VECTOR('',#401,1.);
#401 = DIRECTION('',(0.,1.,0.));
#402 = ORIENTED_EDGE('',*,*,#403,.T.);
#403 = EDGE_CURVE('',#396,#365,#404,.T.);
#404 = LINE('',#405,#406);
#405 = CARTESIAN_POINT('',(2.,0.,0.6));
#406 = VECTOR('',#407,1.);
#407 = DIRECTION('',(0.,0.,1.));
#408 = ORIENTED_EDGE('',*,*,#364,.T.);
#409 = PLANE('',#410);
#410 = AXIS2_PLACEMENT_3D('',#411,#412,#413);
#411 = CARTESIAN_POINT('',(2.,0.,-0.6));
#412 = DIRECTION('',(-1.,0.,0.));
#413 = DIRECTION('',(0.,0.,1.));
#414 = ADVANCED_FACE('',(#415),#441,.T.);
#415 = FACE_BOUND('',#416,.T.);
#416 = EDGE_LOOP('',(#417,#426,#434,#440));
#417 = ORIENTED_EDGE('',*,*,#418,.F.);
#418 = EDGE_CURVE('',#419,#388,#421,.T.);
#419 = VERTEX_POINT('',#420);
#420 = CARTESIAN_POINT('',(0.55,7.248587705072,-0.6));
#421 = ELLIPSE('',#422,6.680585557735,0.741435499371);
#422 = AXIS2_PLACEMENT_3D('',#423,#424,#425);
#423 = CARTESIAN_POINT('',(-5.496734131279E-03,7.987505872873,-0.6));
#424 = DIRECTION('',(-1.719688126157E-15,-1.4140483447E-16,1.));
#425 = DIRECTION('',(0.999999995801,-9.16438896101E-05,
    1.719675160047E-15));
#426 = ORIENTED_EDGE('',*,*,#427,.F.);
#427 = EDGE_CURVE('',#428,#419,#430,.T.);
#428 = VERTEX_POINT('',#429);
#429 = CARTESIAN_POINT('',(0.55,0.,-0.6));
#430 = LINE('',#431,#432);
#431 = CARTESIAN_POINT('',(0.55,0.,-0.6));
#432 = VECTOR('',#433,1.);
#433 = DIRECTION('',(0.,1.,0.));
#434 = ORIENTED_EDGE('',*,*,#435,.T.);
#435 = EDGE_CURVE('',#428,#396,#436,.T.);
#436 = LINE('',#437,#438);
#437 = CARTESIAN_POINT('',(2.,0.,-0.6));
#438 = VECTOR('',#439,1.);
#439 = DIRECTION('',(1.,0.,1.722759865798E-15));
#440 = ORIENTED_EDGE('',*,*,#395,.T.);
#441 = PLANE('',#442);
#442 = AXIS2_PLACEMENT_3D('',#443,#444,#445);
#443 = CARTESIAN_POINT('',(0.55,0.,-0.6));
#444 = DIRECTION('',(-1.722759865798E-15,0.,1.));
#445 = DIRECTION('',(1.,0.,1.722759865798E-15));
#446 = ADVANCED_FACE('',(#447),#463,.T.);
#447 = FACE_BOUND('',#448,.T.);
#448 = EDGE_LOOP('',(#449,#455,#456,#462));
#449 = ORIENTED_EDGE('',*,*,#450,.F.);
#450 = EDGE_CURVE('',#293,#419,#451,.T.);
#451 = LINE('',#452,#453);
#452 = CARTESIAN_POINT('',(0.55,7.028547344694,-2.));
#453 = VECTOR('',#454,1.);
#454 = DIRECTION('',(4.40662130694E-16,0.155265626843,0.987872757556));
#455 = ORIENTED_EDGE('',*,*,#310,.F.);
#456 = ORIENTED_EDGE('',*,*,#457,.T.);
#457 = EDGE_CURVE('',#303,#428,#458,.T.);
#458 = LINE('',#459,#460);
#459 = CARTESIAN_POINT('',(0.55,0.,-0.6));
#460 = VECTOR('',#461,1.);
#461 = DIRECTION('',(4.460717509655E-16,0.,1.));
#462 = ORIENTED_EDGE('',*,*,#427,.T.);
#463 = PLANE('',#464);
#464 = AXIS2_PLACEMENT_3D('',#465,#466,#467);
#465 = CARTESIAN_POINT('',(0.55,0.,-2.));
#466 = DIRECTION('',(-1.,0.,4.460717509655E-16));
#467 = DIRECTION('',(4.460717509655E-16,0.,1.));
#468 = ADVANCED_FACE('',(#469,#473),#487,.F.);
#469 = FACE_BOUND('',#470,.T.);
#470 = EDGE_LOOP('',(#471,#472));
#471 = ORIENTED_EDGE('',*,*,#219,.F.);
#472 = ORIENTED_EDGE('',*,*,#277,.F.);
#473 = FACE_BOUND('',#474,.T.);
#474 = EDGE_LOOP('',(#475,#476,#477,#478,#479,#480,#481,#482,#483,#484,
    #485,#486));
#475 = ORIENTED_EDGE('',*,*,#457,.F.);
#476 = ORIENTED_EDGE('',*,*,#302,.F.);
#477 = ORIENTED_EDGE('',*,*,#39,.F.);
#478 = ORIENTED_EDGE('',*,*,#78,.F.);
#479 = ORIENTED_EDGE('',*,*,#109,.F.);
#480 = ORIENTED_EDGE('',*,*,#141,.F.);
#481 = ORIENTED_EDGE('',*,*,#172,.F.);
#482 = ORIENTED_EDGE('',*,*,#204,.F.);
#483 = ORIENTED_EDGE('',*,*,#340,.F.);
#484 = ORIENTED_EDGE('',*,*,#372,.F.);
#485 = ORIENTED_EDGE('',*,*,#403,.F.);
#486 = ORIENTED_EDGE('',*,*,#435,.F.);
#487 = PLANE('',#488);
#488 = AXIS2_PLACEMENT_3D('',#489,#490,#491);
#489 = CARTESIAN_POINT('',(0.,0.,2.22044604925E-15));
#490 = DIRECTION('',(0.,1.,0.));
#491 = DIRECTION('',(1.,0.,0.));
#492 = ADVANCED_FACE('',(#493,#545),#548,.F.);
#493 = FACE_BOUND('',#494,.F.);
#494 = EDGE_LOOP('',(#495,#512,#524,#535));
#495 = ORIENTED_EDGE('',*,*,#496,.F.);
#496 = EDGE_CURVE('',#497,#499,#501,.T.);
#497 = VERTEX_POINT('',#498);
#498 = CARTESIAN_POINT('',(-5.908765295265,6.471536313157,-7.75));
#499 = VERTEX_POINT('',#500);
#500 = CARTESIAN_POINT('',(5.908765295265,6.471536313157,-7.75));
#501 = B_SPLINE_CURVE_WITH_KNOTS('',3,(#502,#503,#504,#505,#506,#507,
    #508,#509,#510,#511),.UNSPECIFIED.,.F.,.F.,(4,3,3,4),(
    -0.524725735797,-0.41420724431,-0.364457962884,-8.26517698494E-02),
  .UNSPECIFIED.);
#502 = CARTESIAN_POINT('',(-5.908765295265,6.471536313157,-7.75));
#503 = CARTESIAN_POINT('',(-4.636359385821,6.257960939986,-7.75));
#504 = CARTESIAN_POINT('',(-2.875113273954,6.176451873396,-7.75));
#505 = CARTESIAN_POINT('',(-1.69479795786,6.144842456797,-7.75));
#506 = CARTESIAN_POINT('',(-1.163485613271,6.130613654531,-7.75));
#507 = CARTESIAN_POINT('',(-0.779492265645,6.125760694554,-7.75));
#508 = CARTESIAN_POINT('',(-0.352540879083,6.123451585333,-7.75));
#509 = CARTESIAN_POINT('',(2.065937165381,6.110371571709,-7.75));
#510 = CARTESIAN_POINT('',(4.485958700416,6.232715943658,-7.75));
#511 = CARTESIAN_POINT('',(5.908765295265,6.471536313157,-7.75));
#512 = ORIENTED_EDGE('',*,*,#513,.F.);
#513 = EDGE_CURVE('',#514,#497,#516,.T.);
#514 = VERTEX_POINT('',#515);
#515 = CARTESIAN_POINT('',(-5.3879142807,8.350320329981,4.348481952389)
  );
#516 = B_SPLINE_CURVE_WITH_KNOTS('',3,(#517,#518,#519,#520,#521,#522,
    #523),.UNSPECIFIED.,.F.,.F.,(4,3,4),(-1.312064264792,-0.698630013959
    ,-8.683204574301E-02),.UNSPECIFIED.);
#517 = CARTESIAN_POINT('',(-5.387859847641,8.350279294067,4.34848567853)
  );
#518 = CARTESIAN_POINT('',(-5.474759823819,8.036868410774,2.329480457023
    ));
#519 = CARTESIAN_POINT('',(-5.561708625129,7.723302298471,0.309860060693
    ));
#520 = CARTESIAN_POINT('',(-5.648629668705,7.409813059992,
    -1.708899423174));
#521 = CARTESIAN_POINT('',(-5.735318857938,7.097160026861,
    -3.722274041252));
#522 = CARTESIAN_POINT('',(-5.822051671875,6.784325021128,
    -5.736456586955));
#523 = CARTESIAN_POINT('',(-5.908765295185,6.471536313121,
    -7.749999999997));
#524 = ORIENTED_EDGE('',*,*,#525,.F.);
#525 = EDGE_CURVE('',#526,#514,#528,.T.);
#526 = VERTEX_POINT('',#527);
#527 = CARTESIAN_POINT('',(5.3879142807,8.350320329981,4.348481952389));
#528 = B_SPLINE_CURVE_WITH_KNOTS('',3,(#529,#530,#531,#532,#533,#534),
  .UNSPECIFIED.,.F.,.F.,(4,2,4),(-0.437847884702,-0.332111639517,
    -8.823600078098E-02),.UNSPECIFIED.);
#529 = CARTESIAN_POINT('',(5.3879142807,8.350320329981,4.348481952389));
#530 = CARTESIAN_POINT('',(3.668509869466,8.081923453535,4.454777745041)
  );
#531 = CARTESIAN_POINT('',(1.060810218302,8.045261274396,4.469297419947)
  );
#532 = CARTESIAN_POINT('',(-1.955107463933,8.037815125379,4.472246389855
    ));
#533 = CARTESIAN_POINT('',(-4.05872391891,8.14283537823,4.430654210508)
  );
#534 = CARTESIAN_POINT('',(-5.3879142807,8.350320329981,4.348481952389)
  );
#535 = ORIENTED_EDGE('',*,*,#536,.F.);
#536 = EDGE_CURVE('',#499,#526,#537,.T.);
#537 = B_SPLINE_CURVE_WITH_KNOTS('',3,(#538,#539,#540,#541,#542,#543,
    #544),.UNSPECIFIED.,.F.,.F.,(4,3,4),(-1.310796862158,-0.698608998546
    ,-8.553647715129E-02),.UNSPECIFIED.);
#538 = CARTESIAN_POINT('',(5.908765295185,6.471536313121,-7.749999999997
    ));
#539 = CARTESIAN_POINT('',(5.821998389222,6.784517216507,-5.735219565411
    ));
#540 = CARTESIAN_POINT('',(5.735189695657,7.097542759733,-3.719798878133
    ));
#541 = CARTESIAN_POINT('',(5.648403644722,7.410377796918,-1.705186990855
    ));
#542 = CARTESIAN_POINT('',(5.561492181372,7.723664904418,0.31233616313)
  );
#543 = CARTESIAN_POINT('',(5.474531548277,8.037020689458,2.330719250076)
  );
#544 = CARTESIAN_POINT('',(5.38759590938,8.350230564719,4.348487026996)
  );
#545 = FACE_BOUND('',#546,.F.);
#546 = EDGE_LOOP('',(#547));
#547 = ORIENTED_EDGE('',*,*,#237,.F.);
#548 = B_SPLINE_SURFACE_WITH_KNOTS('',3,3,(
    (#549,#550,#551,#552)
    ,(#553,#554,#555,#556)
    ,(#557,#558,#559,#560)
    ,(#561,#562,#563,#564)
    ,(#565,#566,#567,#568)
    ,(#569,#570,#571,#572)
    ,(#573,#574,#575,#576
  )),.UNSPECIFIED.,.F.,.F.,.F.,(4,1,1,1,4),(4,4),(-0.410821973799,
    -0.364872838428,-0.272974567686,-0.181076296943,-8.917802620062E-02)
  ,(0.113865316318,0.879184494424),.UNSPECIFIED.);
#549 = CARTESIAN_POINT('',(-5.529754961701,8.387230534294,4.424499010119
    ));
#550 = CARTESIAN_POINT('',(-5.656284341174,7.745838915974,0.34896140054)
  );
#551 = CARTESIAN_POINT('',(-5.783186287611,7.104548777227,
    -3.726580107444));
#552 = CARTESIAN_POINT('',(-5.910392169087,6.46333555855,-7.802123873961
    ));
#553 = CARTESIAN_POINT('',(-5.163724828816,8.322579883731,4.432763322038
    ));
#554 = CARTESIAN_POINT('',(-5.283289608674,7.681570611947,0.35720928676)
  );
#555 = CARTESIAN_POINT('',(-5.403251237384,7.040630410049,
    -3.718347247401));
#556 = CARTESIAN_POINT('',(-5.523371485222,6.399729400499,
    -7.793901669771));
#557 = CARTESIAN_POINT('',(-3.897727497631,8.158972844809,4.454955581439
    ));
#558 = CARTESIAN_POINT('',(-3.990014308241,7.518416913141,0.379414976531
    ));
#559 = CARTESIAN_POINT('',(-4.082419927063,6.877893737691,
    -3.696126414534));
#560 = CARTESIAN_POINT('',(-4.175006715783,6.23736018728,-7.771664898212
    ));
#561 = CARTESIAN_POINT('',(-0.976955026768,8.009244378273,4.47625544792)
  );
#562 = CARTESIAN_POINT('',(-1.000134108924,7.368841139845,0.400744340974
    ));
#563 = CARTESIAN_POINT('',(-1.02335040144,6.728554403772,-3.674781487853
    ));
#564 = CARTESIAN_POINT('',(-1.046592463559,6.088144653275,
    -7.750293089547));
#565 = CARTESIAN_POINT('',(2.839789758177,8.07181567523,4.4673748365));
#566 = CARTESIAN_POINT('',(2.90735132077,7.431341395906,0.391853755446)
  );
#567 = CARTESIAN_POINT('',(2.975021132988,6.790878134401,-3.683667972563
    ));
#568 = CARTESIAN_POINT('',(3.042776295873,6.150410310613,-7.759188811732
    ));
#569 = CARTESIAN_POINT('',(4.797694695931,8.257929233168,4.441027633957)
  );
#570 = CARTESIAN_POINT('',(4.910312001377,7.617199897629,0.365468573791)
  );
#571 = CARTESIAN_POINT('',(5.023290536628,6.976796501604,-3.710123342161
    ));
#572 = CARTESIAN_POINT('',(5.136350801358,6.336123242449,-7.785679465581
    ));
#573 = CARTESIAN_POINT('',(5.529754961701,8.387230534294,4.424499010119)
  );
#574 = CARTESIAN_POINT('',(5.656284341174,7.745838915974,0.34896140054)
  );
#575 = CARTESIAN_POINT('',(5.783186287611,7.104548777227,-3.726580107444
    ));
#576 = CARTESIAN_POINT('',(5.910392169087,6.46333555855,-7.802123873961)
  );
#577 = ADVANCED_FACE('',(#578),#603,.T.);
#578 = FACE_BOUND('',#579,.T.);
#579 = EDGE_LOOP('',(#580,#581,#589,#597));
#580 = ORIENTED_EDGE('',*,*,#536,.F.);
#581 = ORIENTED_EDGE('',*,*,#582,.T.);
#582 = EDGE_CURVE('',#499,#583,#585,.T.);
#583 = VERTEX_POINT('',#584);
#584 = CARTESIAN_POINT('',(7.702854570199,0.,-7.75));
#585 = LINE('',#586,#587);
#586 = CARTESIAN_POINT('',(7.153101453856,1.983038026811,-7.75));
#587 = VECTOR('',#588,1.);
#588 = DIRECTION('',(0.267151736038,-0.963654476424,2.118557202988E-16)
  );
#589 = ORIENTED_EDGE('',*,*,#590,.F.);
#590 = EDGE_CURVE('',#591,#583,#593,.T.);
#591 = VERTEX_POINT('',#592);
#592 = CARTESIAN_POINT('',(7.702854570199,-1.387778780781E-16,
    7.655539508817));
#593 = LINE('',#594,#595);
#594 = CARTESIAN_POINT('',(7.702854570199,-1.387778780781E-16,-4.5));
#595 = VECTOR('',#596,1.);
#596 = DIRECTION('',(0.,0.,-1.));
#597 = ORIENTED_EDGE('',*,*,#598,.T.);
#598 = EDGE_CURVE('',#591,#526,#599,.T.);
#599 = LINE('',#600,#601);
#600 = CARTESIAN_POINT('',(7.102358564406,2.166074878041,6.797688071969)
  );
#601 = VECTOR('',#602,1.);
#602 = DIRECTION('',(-0.249592436954,0.900315576157,-0.356560624221));
#603 = PLANE('',#604);
#604 = AXIS2_PLACEMENT_3D('',#605,#606,#607);
#605 = CARTESIAN_POINT('',(7.79543190447,-0.333939670048,-9.));
#606 = DIRECTION('',(-0.963654476424,-0.267151736038,0.));
#607 = DIRECTION('',(0.,0.,1.));
#608 = ADVANCED_FACE('',(#609),#623,.F.);
#609 = FACE_BOUND('',#610,.F.);
#610 = EDGE_LOOP('',(#611,#612,#613,#614,#615,#616,#617,#618,#619,#620,
    #621,#622));
#611 = ORIENTED_EDGE('',*,*,#324,.F.);
#612 = ORIENTED_EDGE('',*,*,#355,.F.);
#613 = ORIENTED_EDGE('',*,*,#387,.F.);
#614 = ORIENTED_EDGE('',*,*,#418,.F.);
#615 = ORIENTED_EDGE('',*,*,#450,.F.);
#616 = ORIENTED_EDGE('',*,*,#292,.F.);
#617 = ORIENTED_EDGE('',*,*,#21,.F.);
#618 = ORIENTED_EDGE('',*,*,#61,.F.);
#619 = ORIENTED_EDGE('',*,*,#93,.F.);
#620 = ORIENTED_EDGE('',*,*,#124,.F.);
#621 = ORIENTED_EDGE('',*,*,#156,.F.);
#622 = ORIENTED_EDGE('',*,*,#187,.F.);
#623 = B_SPLINE_SURFACE_WITH_KNOTS('',3,3,(
    (#624,#625,#626,#627)
    ,(#628,#629,#630,#631)
    ,(#632,#633,#634,#635)
    ,(#636,#637,#638,#639
    )),.UNSPECIFIED.,.F.,.F.,.F.,(4,4),(4,4),(-0.299306700048,
    -0.200693299952),(0.268546302225,0.518955503412),
  .PIECEWISE_BEZIER_KNOTS.);
#624 = CARTESIAN_POINT('',(-1.984121825906,7.688462374795,1.995567379527
    ));
#625 = CARTESIAN_POINT('',(-1.999290844282,7.478900785508,0.662073355504
    ));
#626 = CARTESIAN_POINT('',(-2.014468276743,7.269339650432,
    -0.671420641964));
#627 = CARTESIAN_POINT('',(-2.029653546595,7.059778928822,
    -2.004914613186));
#628 = CARTESIAN_POINT('',(-0.701096038529,7.643726312914,2.001903299341
    ));
#629 = CARTESIAN_POINT('',(-0.706501038879,7.434182008787,0.668412024562
    ));
#630 = CARTESIAN_POINT('',(-0.7119062982,7.224640236306,-0.66507946796)
  );
#631 = CARTESIAN_POINT('',(-0.717316087877,7.015095633112,
    -1.998570759261));
#632 = CARTESIAN_POINT('',(0.701096038529,7.643726312914,2.001903299341)
  );
#633 = CARTESIAN_POINT('',(0.706501038879,7.434182008787,0.668412024562)
  );
#634 = CARTESIAN_POINT('',(0.7119062982,7.224640236306,-0.66507946796));
#635 = CARTESIAN_POINT('',(0.717316087877,7.015095633112,-1.998570759261
    ));
#636 = CARTESIAN_POINT('',(1.984121825906,7.688462374795,1.995567379527)
  );
#637 = CARTESIAN_POINT('',(1.999290844282,7.478900785508,0.662073355504)
  );
#638 = CARTESIAN_POINT('',(2.014468276743,7.269339650432,-0.671420641964
    ));
#639 = CARTESIAN_POINT('',(2.029653546595,7.059778928822,-2.004914613186
    ));
#640 = ADVANCED_FACE('',(#641),#659,.T.);
#641 = FACE_BOUND('',#642,.T.);
#642 = EDGE_LOOP('',(#643,#644,#645,#653));
#643 = ORIENTED_EDGE('',*,*,#525,.F.);
#644 = ORIENTED_EDGE('',*,*,#598,.F.);
#645 = ORIENTED_EDGE('',*,*,#646,.F.);
#646 = EDGE_CURVE('',#647,#591,#649,.T.);
#647 = VERTEX_POINT('',#648);
#648 = CARTESIAN_POINT('',(-7.702854570199,-1.387778780781E-16,
    7.655539508817));
#649 = LINE('',#650,#651);
#650 = CARTESIAN_POINT('',(4.5,-1.387778780781E-16,7.655539508817));
#651 = VECTOR('',#652,1.);
#652 = DIRECTION('',(1.,0.,0.));
#653 = ORIENTED_EDGE('',*,*,#654,.T.);
#654 = EDGE_CURVE('',#647,#514,#655,.T.);
#655 = LINE('',#656,#657);
#656 = CARTESIAN_POINT('',(-7.342644619233,1.2993287517,7.140953864579)
  );
#657 = VECTOR('',#658,1.);
#658 = DIRECTION('',(0.249592436954,0.900315576157,-0.356560624221));
#659 = PLANE('',#660);
#660 = AXIS2_PLACEMENT_3D('',#661,#662,#663);
#661 = CARTESIAN_POINT('',(9.,-0.460267806489,7.837823788615));
#662 = DIRECTION('',(0.,-0.368214245191,-0.929740969108));
#663 = DIRECTION('',(-1.,-0.,0.));
#664 = ADVANCED_FACE('',(#665),#683,.T.);
#665 = FACE_BOUND('',#666,.T.);
#666 = EDGE_LOOP('',(#667,#668,#669,#677));
#667 = ORIENTED_EDGE('',*,*,#513,.F.);
#668 = ORIENTED_EDGE('',*,*,#654,.F.);
#669 = ORIENTED_EDGE('',*,*,#670,.F.);
#670 = EDGE_CURVE('',#671,#647,#673,.T.);
#671 = VERTEX_POINT('',#672);
#672 = CARTESIAN_POINT('',(-7.702854570199,-1.387778780781E-16,-7.75));
#673 = LINE('',#674,#675);
#674 = CARTESIAN_POINT('',(-7.702854570199,-1.387778780781E-16,4.5));
#675 = VECTOR('',#676,1.);
#676 = DIRECTION('',(0.,0.,1.));
#677 = ORIENTED_EDGE('',*,*,#678,.T.);
#678 = EDGE_CURVE('',#671,#497,#679,.T.);
#679 = LINE('',#680,#681);
#680 = CARTESIAN_POINT('',(-7.79543190447,-0.333939670048,-7.75));
#681 = VECTOR('',#682,1.);
#682 = DIRECTION('',(0.267151736038,0.963654476424,-2.118557202988E-16)
  );
#683 = PLANE('',#684);
#684 = AXIS2_PLACEMENT_3D('',#685,#686,#687);
#685 = CARTESIAN_POINT('',(-7.79543190447,-0.333939670048,9.));
#686 = DIRECTION('',(0.963654476424,-0.267151736038,0.));
#687 = DIRECTION('',(0.,0.,-1.));
#688 = ADVANCED_FACE('',(#689),#700,.T.);
#689 = FACE_BOUND('',#690,.T.);
#690 = EDGE_LOOP('',(#691,#692,#693,#699));
#691 = ORIENTED_EDGE('',*,*,#496,.F.);
#692 = ORIENTED_EDGE('',*,*,#678,.F.);
#693 = ORIENTED_EDGE('',*,*,#694,.F.);
#694 = EDGE_CURVE('',#583,#671,#695,.T.);
#695 = LINE('',#696,#697);
#696 = CARTESIAN_POINT('',(-4.5,0.,-7.75));
#697 = VECTOR('',#698,1.);
#698 = DIRECTION('',(-1.,0.,0.));
#699 = ORIENTED_EDGE('',*,*,#582,.F.);
#700 = PLANE('',#701);
#701 = AXIS2_PLACEMENT_3D('',#702,#703,#704);
#702 = CARTESIAN_POINT('',(-9.,2.748076793627E-16,-7.75));
#703 = DIRECTION('',(0.,2.198461434901E-16,1.));
#704 = DIRECTION('',(1.,0.,-0.));
#705 = ADVANCED_FACE('',(#706),#746,.F.);
#706 = FACE_BOUND('',#707,.F.);
#707 = EDGE_LOOP('',(#708,#720,#729,#739));
#708 = ORIENTED_EDGE('',*,*,#709,.F.);
#709 = EDGE_CURVE('',#710,#712,#714,.T.);
#710 = VERTEX_POINT('',#711);
#711 = CARTESIAN_POINT('',(5.419512266811,9.540353899503,5.221642019999)
  );
#712 = VERTEX_POINT('',#713);
#713 = CARTESIAN_POINT('',(6.350816549413,9.555983161046,4.245686488239)
  );
#714 = B_SPLINE_CURVE_WITH_KNOTS('',3,(#715,#716,#717,#718,#719),
  .UNSPECIFIED.,.F.,.F.,(4,1,4),(2.381780937933E-12,4.468335458355E-02,
    0.104261160692),.UNSPECIFIED.);
#715 = CARTESIAN_POINT('',(5.419512266811,9.540353899503,5.221642019999)
  );
#716 = CARTESIAN_POINT('',(5.62746285434,9.581330106619,5.205413819169)
  );
#717 = CARTESIAN_POINT('',(6.105250565115,9.649334723399,4.999268927883)
  );
#718 = CARTESIAN_POINT('',(6.334462901642,9.614973104789,4.519611888337)
  );
#719 = CARTESIAN_POINT('',(6.350816549413,9.555983161046,4.245686488239)
  );
#720 = ORIENTED_EDGE('',*,*,#721,.F.);
#721 = EDGE_CURVE('',#722,#710,#724,.T.);
#722 = VERTEX_POINT('',#723);
#723 = CARTESIAN_POINT('',(5.364033685293,9.720856628486,4.895176796818)
  );
#724 = CIRCLE('',#725,0.3);
#725 = AXIS2_PLACEMENT_3D('',#726,#727,#728);
#726 = CARTESIAN_POINT('',(5.41951226682,9.429889625948,4.942719729265)
  );
#727 = DIRECTION('',(0.981950634369,0.175848778727,-6.964308064789E-02)
  );
#728 = DIRECTION('',(-0.184928605092,0.96989000846,-0.158476441491));
#729 = ORIENTED_EDGE('',*,*,#730,.F.);
#730 = EDGE_CURVE('',#731,#722,#733,.T.);
#731 = VERTEX_POINT('',#732);
#732 = CARTESIAN_POINT('',(5.964037148764,9.755484791165,4.198194476171)
  );
#733 = B_SPLINE_CURVE_WITH_KNOTS('',3,(#734,#735,#736,#737,#738),
  .UNSPECIFIED.,.F.,.F.,(4,1,4),(-0.104261160692,-4.468335458355E-02,
    -2.381780937933E-12),.UNSPECIFIED.);
#734 = CARTESIAN_POINT('',(5.964037148764,9.755484791165,4.198194476171)
  );
#735 = CARTESIAN_POINT('',(5.955703491239,9.785873211923,4.394271501121)
  );
#736 = CARTESIAN_POINT('',(5.821609365788,9.794353779977,4.738637078078)
  );
#737 = CARTESIAN_POINT('',(5.504927560257,9.74601589006,4.884742493042)
  );
#738 = CARTESIAN_POINT('',(5.364033685315,9.72085662849,4.895176796818)
  );
#739 = ORIENTED_EDGE('',*,*,#740,.F.);
#740 = EDGE_CURVE('',#712,#731,#741,.T.);
#741 = CIRCLE('',#742,0.3);
#742 = AXIS2_PLACEMENT_3D('',#743,#744,#745);
#743 = CARTESIAN_POINT('',(6.061720206486,9.475837640234,4.245686488239)
  );
#744 = DIRECTION('',(-4.238084241547E-02,0.152873752997,0.987336558546)
  );
#745 = DIRECTION('',(0.963654476424,0.267151736038,3.274533422193E-13));
#746 = B_SPLINE_SURFACE_WITH_KNOTS('',3,3,(
    (#747,#748,#749,#750,#751)
    ,(#752,#753,#754,#755,#756)
    ,(#757,#758,#759,#760,#761)
    ,(#762,#763,#764,#765,#766)
    ,(#767,#768,#769,#770,#771
    )),.UNSPECIFIED.,.F.,.F.,.F.,(4,1,4),(4,1,4),(0.,0.5,1.),(
    2.381780937933E-12,4.468335458355E-02,0.104261160692),
  .UNSPECIFIED.);
#747 = CARTESIAN_POINT('',(5.419512266811,9.540353899503,5.221642019999)
  );
#748 = CARTESIAN_POINT('',(5.62746285434,9.581330106619,5.205413819169)
  );
#749 = CARTESIAN_POINT('',(6.105250565115,9.649334723399,4.999268927883)
  );
#750 = CARTESIAN_POINT('',(6.334462901642,9.614973104789,4.519611888337)
  );
#751 = CARTESIAN_POINT('',(6.350816549413,9.555983161046,4.245686488239)
  );
#752 = CARTESIAN_POINT('',(5.40665621097,9.602409643398,5.197065487764)
  );
#753 = CARTESIAN_POINT('',(5.610511684122,9.6417678202,5.180502381861));
#754 = CARTESIAN_POINT('',(6.075764045071,9.710485167232,4.981095271308)
  );
#755 = CARTESIAN_POINT('',(6.308997841253,9.689067727184,4.508715772315)
  );
#756 = CARTESIAN_POINT('',(6.329245679438,9.633792370599,4.232713021985)
  );
#757 = CARTESIAN_POINT('',(5.380996663375,9.708580382245,5.103353173124)
  );
#758 = CARTESIAN_POINT('',(5.56655820145,9.742640763383,5.087913419878)
  );
#759 = CARTESIAN_POINT('',(5.985731280708,9.808847369457,4.906338197117)
  );
#760 = CARTESIAN_POINT('',(6.19738227938,9.812433446947,4.46792158272));
#761 = CARTESIAN_POINT('',(6.218107274214,9.769792790023,4.206884915507)
  );
#762 = CARTESIAN_POINT('',(5.36673069655,9.732309581623,4.96212271121));
#763 = CARTESIAN_POINT('',(5.522322359828,9.760095719713,4.950051184879)
  );
#764 = CARTESIAN_POINT('',(5.872287377288,9.815026318974,4.79203108972)
  );
#765 = CARTESIAN_POINT('',(6.029325216007,9.815062128408,4.415531578423)
  );
#766 = CARTESIAN_POINT('',(6.041282284068,9.782324496908,4.197354466113)
  );
#767 = CARTESIAN_POINT('',(5.364033685315,9.72085662849,4.895176796818)
  );
#768 = CARTESIAN_POINT('',(5.504927560257,9.74601589006,4.884742493042)
  );
#769 = CARTESIAN_POINT('',(5.821609365788,9.794353779977,4.738637078078)
  );
#770 = CARTESIAN_POINT('',(5.955703491239,9.785873211923,4.394271501121)
  );
#771 = CARTESIAN_POINT('',(5.964037148764,9.755484791165,4.198194476171)
  );
#772 = ADVANCED_FACE('',(#773),#799,.T.);
#773 = FACE_BOUND('',#774,.T.);
#774 = EDGE_LOOP('',(#775,#786,#792,#793));
#775 = ORIENTED_EDGE('',*,*,#776,.T.);
#776 = EDGE_CURVE('',#777,#779,#781,.T.);
#777 = VERTEX_POINT('',#778);
#778 = CARTESIAN_POINT('',(8.064362852846,0.,9.));
#779 = VERTEX_POINT('',#780);
#780 = CARTESIAN_POINT('',(9.,0.,8.030234274792));
#781 = ELLIPSE('',#782,1.110721647479,1.);
#782 = AXIS2_PLACEMENT_3D('',#783,#784,#785);
#783 = CARTESIAN_POINT('',(7.96228365616,-2.775557561563E-16,
    7.924431607054));
#784 = DIRECTION('',(0.,1.,0.));
#785 = DIRECTION('',(0.573462344363,-0.,0.819231920519));
#786 = ORIENTED_EDGE('',*,*,#787,.T.);
#787 = EDGE_CURVE('',#779,#712,#788,.T.);
#788 = LINE('',#789,#790);
#789 = CARTESIAN_POINT('',(8.28535062473,2.577842389365,7.009306595835)
  );
#790 = VECTOR('',#791,1.);
#791 = DIRECTION('',(-0.249592436954,0.900315576157,-0.356560624221));
#792 = ORIENTED_EDGE('',*,*,#709,.F.);
#793 = ORIENTED_EDGE('',*,*,#794,.T.);
#794 = EDGE_CURVE('',#710,#777,#795,.T.);
#795 = LINE('',#796,#797);
#796 = CARTESIAN_POINT('',(7.321696148307,2.678904898518,7.939047564943)
  );
#797 = VECTOR('',#798,1.);
#798 = DIRECTION('',(0.249592436954,-0.900315576157,0.356560624221));
#799 = CYLINDRICAL_SURFACE('',#800,1.);
#800 = AXIS2_PLACEMENT_3D('',#801,#802,#803);
#801 = CARTESIAN_POINT('',(7.321696148307,2.310690653327,7.009306595835)
  );
#802 = DIRECTION('',(-0.249592436954,0.900315576157,-0.356560624221));
#803 = DIRECTION('',(0.650177890387,0.428681569386,0.627296439429));
#804 = ADVANCED_FACE('',(#805),#836,.F.);
#805 = FACE_BOUND('',#806,.T.);
#806 = EDGE_LOOP('',(#807,#808,#822,#830));
#807 = ORIENTED_EDGE('',*,*,#794,.F.);
#808 = ORIENTED_EDGE('',*,*,#809,.F.);
#809 = EDGE_CURVE('',#810,#710,#812,.T.);
#810 = VERTEX_POINT('',#811);
#811 = CARTESIAN_POINT('',(-5.419512266842,9.540353899509,5.221642019996
    ));
#812 = B_SPLINE_CURVE_WITH_KNOTS('',3,(#813,#814,#815,#816,#817,#818,
    #819,#820,#821),.UNSPECIFIED.,.F.,.F.,(4,1,1,1,1,1,4),(
    -3.974992626728,-3.819308402333,-3.663624177938,-3.352255729148,
    -3.196571504753,-3.040887280358,-2.885203055963),.UNSPECIFIED.);
#813 = CARTESIAN_POINT('',(-5.419512266842,9.540353899509,5.221642019996
    ));
#814 = CARTESIAN_POINT('',(-4.909911523495,9.449094048779,5.257784535137
    ));
#815 = CARTESIAN_POINT('',(-3.873155989084,9.340031213977,5.300977737039
    ));
#816 = CARTESIAN_POINT('',(-1.813090674379,9.218502290481,5.34910800377)
  );
#817 = CARTESIAN_POINT('',(0.262437402307,9.195091448901,5.358379624198)
  );
#818 = CARTESIAN_POINT('',(2.328999798125,9.24828597318,5.337312485869)
  );
#819 = CARTESIAN_POINT('',(3.874805814627,9.340671961071,5.300723975814)
  );
#820 = CARTESIAN_POINT('',(4.910254515282,9.44915547212,5.257760209061)
  );
#821 = CARTESIAN_POINT('',(5.41951226681,9.540353899504,5.221642019999)
  );
#822 = ORIENTED_EDGE('',*,*,#823,.F.);
#823 = EDGE_CURVE('',#824,#810,#826,.T.);
#824 = VERTEX_POINT('',#825);
#825 = CARTESIAN_POINT('',(-8.064362852846,0.,9.));
#826 = LINE('',#827,#828);
#827 = CARTESIAN_POINT('',(-7.561982203134,1.812158772177,8.282313357554
    ));
#828 = VECTOR('',#829,1.);
#829 = DIRECTION('',(0.249592436954,0.900315576157,-0.356560624221));
#830 = ORIENTED_EDGE('',*,*,#831,.F.);
#831 = EDGE_CURVE('',#777,#824,#832,.T.);
#832 = LINE('',#833,#834);
#833 = CARTESIAN_POINT('',(9.,0.,9.));
#834 = VECTOR('',#835,1.);
#835 = DIRECTION('',(-1.,0.,0.));
#836 = PLANE('',#837);
#837 = AXIS2_PLACEMENT_3D('',#838,#839,#840);
#838 = CARTESIAN_POINT('',(9.,0.,9.));
#839 = DIRECTION('',(0.,-0.368214245191,-0.929740969108));
#840 = DIRECTION('',(-1.,-0.,0.));
#841 = ADVANCED_FACE('',(#842),#867,.F.);
#842 = FACE_BOUND('',#843,.F.);
#843 = EDGE_LOOP('',(#844,#845,#854,#866));
#844 = ORIENTED_EDGE('',*,*,#809,.F.);
#845 = ORIENTED_EDGE('',*,*,#846,.T.);
#846 = EDGE_CURVE('',#810,#847,#849,.T.);
#847 = VERTEX_POINT('',#848);
#848 = CARTESIAN_POINT('',(-5.364033685335,9.720856628494,4.895176796817
    ));
#849 = CIRCLE('',#850,0.3);
#850 = AXIS2_PLACEMENT_3D('',#851,#852,#853);
#851 = CARTESIAN_POINT('',(-5.419512266842,9.429889625952,4.942719729264
    ));
#852 = DIRECTION('',(-0.981950634381,0.175848778658,-6.964308065447E-02)
  );
#853 = DIRECTION('',(1.972741414669E-12,0.368214245191,0.929740969108));
#854 = ORIENTED_EDGE('',*,*,#855,.F.);
#855 = EDGE_CURVE('',#722,#847,#856,.T.);
#856 = B_SPLINE_CURVE_WITH_KNOTS('',3,(#857,#858,#859,#860,#861,#862,
    #863,#864,#865),.UNSPECIFIED.,.F.,.F.,(4,1,1,1,1,1,4),(
    2.885203055963,3.040887280358,3.196571504753,3.352255729148,
    3.663624177938,3.819308402333,3.974992626728),.UNSPECIFIED.);
#857 = CARTESIAN_POINT('',(5.364033685293,9.720856628486,4.89517679682)
  );
#858 = CARTESIAN_POINT('',(4.87344718733,9.633253146581,4.931508600119)
  );
#859 = CARTESIAN_POINT('',(3.849749566883,9.52545167285,4.974852573942)
  );
#860 = CARTESIAN_POINT('',(2.316596939226,9.434198959402,5.011695129963)
  );
#861 = CARTESIAN_POINT('',(0.261368827258,9.381018798935,5.032929941153)
  );
#862 = CARTESIAN_POINT('',(-1.804693542605,9.404707048007,5.023574715382
    ));
#863 = CARTESIAN_POINT('',(-3.84825248766,9.524866501948,4.975106330301)
  );
#864 = CARTESIAN_POINT('',(-4.87311677089,9.633194144485,4.931533070066)
  );
#865 = CARTESIAN_POINT('',(-5.364033685335,9.720856628494,4.895176796817
    ));
#866 = ORIENTED_EDGE('',*,*,#721,.T.);
#867 = B_SPLINE_SURFACE_WITH_KNOTS('',3,3,(
    (#868,#869,#870,#871,#872,#873,#874,#875,#876)
    ,(#877,#878,#879,#880,#881,#882,#883,#884,#885)
    ,(#886,#887,#888,#889,#890,#891,#892,#893,#894)
    ,(#895,#896,#897,#898,#899,#900,#901,#902,#903)
    ,(#904,#905,#906,#907,#908,#909,#910,#911,#912
  )),.UNSPECIFIED.,.F.,.F.,.F.,(4,1,4),(4,1,1,1,1,1,4),(0.,
    0.571428571429,1.),(2.885203055963,3.040887280358,3.196571504753,
    3.352255729148,3.663624177938,3.819308402333,3.974992626728),
  .UNSPECIFIED.);
#868 = CARTESIAN_POINT('',(5.364033685306,9.720856628489,4.895176796819)
  );
#869 = CARTESIAN_POINT('',(4.873447187343,9.633253146583,4.931508600118)
  );
#870 = CARTESIAN_POINT('',(3.849749566883,9.52545167285,4.974852573942)
  );
#871 = CARTESIAN_POINT('',(2.316596939226,9.434198959402,5.011695129963)
  );
#872 = CARTESIAN_POINT('',(0.261368827258,9.381018798935,5.032929941153)
  );
#873 = CARTESIAN_POINT('',(-1.804693542605,9.404707048007,5.023574715382
    ));
#874 = CARTESIAN_POINT('',(-3.84825248766,9.524866501948,4.975106330301)
  );
#875 = CARTESIAN_POINT('',(-4.873116770891,9.633194144485,4.931533070066
    ));
#876 = CARTESIAN_POINT('',(-5.364033685336,9.720856628494,4.895176796816
    ));
#877 = CARTESIAN_POINT('',(5.367115983862,9.733945717783,4.971686413266)
  );
#878 = CARTESIAN_POINT('',(4.875591459457,9.645712741014,5.007861812116)
  );
#879 = CARTESIAN_POINT('',(3.85119188574,9.537699838392,5.051128807936)
  );
#880 = CARTESIAN_POINT('',(2.317340256208,9.446198029741,5.087895140746)
  );
#881 = CARTESIAN_POINT('',(0.261441038277,9.392971008813,5.109105846083)
  );
#882 = CARTESIAN_POINT('',(-1.805214896109,9.41663673806,5.099752406001)
  );
#883 = CARTESIAN_POINT('',(-3.849691222706,9.537105499483,5.051380520683
    ));
#884 = CARTESIAN_POINT('',(-4.875260411231,9.645653314943,5.007886176723
    ));
#885 = CARTESIAN_POINT('',(-5.367115983892,9.733945717789,4.971686413264
    ));
#886 = CARTESIAN_POINT('',(5.382748726189,9.702853300317,5.113595954247)
  );
#887 = CARTESIAN_POINT('',(4.885952744987,9.6133029288,5.149406625655));
#888 = CARTESIAN_POINT('',(3.858260053858,9.504972134407,5.192444477536)
  );
#889 = CARTESIAN_POINT('',(2.320825173282,9.413020773034,5.229008487097)
  );
#890 = CARTESIAN_POINT('',(0.261731681382,9.359755380541,5.250139081409)
  );
#891 = CARTESIAN_POINT('',(-1.807562614721,9.383340450243,5.240804988927
    ));
#892 = CARTESIAN_POINT('',(-3.856712258598,9.504358601268,5.192692254822
    ));
#893 = CARTESIAN_POINT('',(-4.885618146366,9.613242615446,5.149430744614
    ));
#894 = CARTESIAN_POINT('',(-5.382748726219,9.702853300323,5.113595954245
    ));
#895 = CARTESIAN_POINT('',(5.408492790375,9.593544537127,5.20057642094)
  );
#896 = CARTESIAN_POINT('',(4.90296853739,9.502804473102,5.236510679567)
  );
#897 = CARTESIAN_POINT('',(3.869845848537,9.394353514572,5.279462658668)
  );
#898 = CARTESIAN_POINT('',(2.326548451416,9.30208263126,5.316004670127)
  );
#899 = CARTESIAN_POINT('',(0.262225393731,9.248863523741,5.337082268829)
  );
#900 = CARTESIAN_POINT('',(-1.81143237082,9.272325612258,5.327789323311)
  );
#901 = CARTESIAN_POINT('',(-3.868226421208,9.393720371485,5.279713172123
    ));
#902 = CARTESIAN_POINT('',(-4.902628060163,9.502743358474,5.236534881763
    ));
#903 = CARTESIAN_POINT('',(-5.408492790406,9.593544537133,5.200576420937
    ));
#904 = CARTESIAN_POINT('',(5.41951226681,9.540353899504,5.221642019999)
  );
#905 = CARTESIAN_POINT('',(4.910254515282,9.44915547212,5.257760209061)
  );
#906 = CARTESIAN_POINT('',(3.874805814627,9.340671961071,5.300723975814)
  );
#907 = CARTESIAN_POINT('',(2.328999798125,9.24828597318,5.337312485869)
  );
#908 = CARTESIAN_POINT('',(0.262437402307,9.195091448901,5.358379624198)
  );
#909 = CARTESIAN_POINT('',(-1.813090674379,9.218502290481,5.34910800377)
  );
#910 = CARTESIAN_POINT('',(-3.873155989084,9.340031213977,5.300977737039
    ));
#911 = CARTESIAN_POINT('',(-4.909911523495,9.449094048779,5.257784535137
    ));
#912 = CARTESIAN_POINT('',(-5.419512266842,9.540353899509,5.221642019996
    ));
#913 = ADVANCED_FACE('',(#914),#979,.T.);
#914 = FACE_BOUND('',#915,.T.);
#915 = EDGE_LOOP('',(#916,#917,#926,#937,#950,#961,#970,#978));
#916 = ORIENTED_EDGE('',*,*,#730,.F.);
#917 = ORIENTED_EDGE('',*,*,#918,.F.);
#918 = EDGE_CURVE('',#919,#731,#921,.T.);
#919 = VERTEX_POINT('',#920);
#920 = CARTESIAN_POINT('',(6.483723162868,7.857244689525,-8.047416074047
    ));
#921 = B_SPLINE_CURVE_WITH_KNOTS('',3,(#922,#923,#924,#925),
  .UNSPECIFIED.,.F.,.F.,(4,4),(0.105385955812,1.345661459487),
  .PIECEWISE_BEZIER_KNOTS.);
#922 = CARTESIAN_POINT('',(6.483723162868,7.857244689525,-8.047416074048
    ));
#923 = CARTESIAN_POINT('',(6.310790690082,8.490105508641,-3.965553298911
    ));
#924 = CARTESIAN_POINT('',(6.137525096025,9.122866433372,0.116313205874)
  );
#925 = CARTESIAN_POINT('',(5.964037148764,9.755484791165,4.198194476171)
  );
#926 = ORIENTED_EDGE('',*,*,#927,.F.);
#927 = EDGE_CURVE('',#928,#919,#930,.T.);
#928 = VERTEX_POINT('',#929);
#929 = CARTESIAN_POINT('',(5.884927386411,7.590247578212,-8.747559596652
    ));
#930 = B_SPLINE_CURVE_WITH_KNOTS('',3,(#931,#932,#933,#934,#935,#936),
  .UNSPECIFIED.,.F.,.F.,(4,1,1,4),(-0.110770604939,-7.912186067051E-02,
    -4.747311640231E-02,0.),.UNSPECIFIED.);
#931 = CARTESIAN_POINT('',(5.884927386412,7.590247578207,-8.747559596689
    ));
#932 = CARTESIAN_POINT('',(5.985012909131,7.608753375431,-8.747604047875
    ));
#933 = CARTESIAN_POINT('',(6.181569619084,7.656931416526,-8.699113845012
    ));
#934 = CARTESIAN_POINT('',(6.432634785272,7.764919781369,-8.462146872433
    ));
#935 = CARTESIAN_POINT('',(6.490342372379,7.833021139803,-8.203654543717
    ));
#936 = CARTESIAN_POINT('',(6.483723162868,7.857244689525,-8.047416074047
    ));
#937 = ORIENTED_EDGE('',*,*,#938,.F.);
#938 = EDGE_CURVE('',#939,#928,#941,.T.);
#939 = VERTEX_POINT('',#940);
#940 = CARTESIAN_POINT('',(-5.884927387561,7.590247578419,-8.74755959669
    ));
#941 = B_SPLINE_CURVE_WITH_KNOTS('',3,(#942,#943,#944,#945,#946,#947,
    #948,#949),.UNSPECIFIED.,.F.,.F.,(4,1,1,1,1,4),(0.139715554095,
    0.310219731877,0.651228087441,0.992236443006,1.162740620788,
    1.33324479857),.UNSPECIFIED.);
#942 = CARTESIAN_POINT('',(-5.884927387561,7.590247578419,-8.74755959669
    ));
#943 = CARTESIAN_POINT('',(-5.345417179907,7.490492226636,-8.74731998391
    ));
#944 = CARTESIAN_POINT('',(-3.659919197252,7.314023286978,
    -8.746774437902));
#945 = CARTESIAN_POINT('',(-0.848300853495,7.209454128317,
    -8.746528164295));
#946 = CARTESIAN_POINT('',(1.983521509559,7.240699165586,-8.746604125672
    ));
#947 = CARTESIAN_POINT('',(4.218892375565,7.37208322961,-8.74694221726)
  );
#948 = CARTESIAN_POINT('',(5.346248007795,7.490645846661,-8.747320352906
    ));
#949 = CARTESIAN_POINT('',(5.884927386412,7.590247578206,-8.747559596689
    ));
#950 = ORIENTED_EDGE('',*,*,#951,.F.);
#951 = EDGE_CURVE('',#952,#939,#954,.T.);
#952 = VERTEX_POINT('',#953);
#953 = CARTESIAN_POINT('',(-6.483723162811,7.857244689501,
    -8.047416074066));
#954 = B_SPLINE_CURVE_WITH_KNOTS('',3,(#955,#956,#957,#958,#959,#960),
  .UNSPECIFIED.,.F.,.F.,(4,1,1,4),(-0.110769882689,-6.329707582265E-02,
    -3.16485379115E-02,-3.540707383199E-13),.UNSPECIFIED.);
#955 = CARTESIAN_POINT('',(-6.483723162869,7.857244689522,
    -8.047416074067));
#956 = CARTESIAN_POINT('',(-6.490342329218,7.833021297742,
    -8.203653525026));
#957 = CARTESIAN_POINT('',(-6.432634632276,7.764920266219,
    -8.462144977241));
#958 = CARTESIAN_POINT('',(-6.181573840978,7.656932768724,
    -8.699111688302));
#959 = CARTESIAN_POINT('',(-5.985012257689,7.608753255024,
    -8.747604047404));
#960 = CARTESIAN_POINT('',(-5.884927387564,7.59024757842,-8.74755959669)
  );
#961 = ORIENTED_EDGE('',*,*,#962,.F.);
#962 = EDGE_CURVE('',#963,#952,#965,.T.);
#963 = VERTEX_POINT('',#964);
#964 = CARTESIAN_POINT('',(-5.964037148719,9.75548479115,4.198194476175)
  );
#965 = B_SPLINE_CURVE_WITH_KNOTS('',3,(#966,#967,#968,#969),
  .UNSPECIFIED.,.F.,.F.,(4,4),(0.101611891424,1.341887395102),
  .PIECEWISE_BEZIER_KNOTS.);
#966 = CARTESIAN_POINT('',(-5.964037148764,9.755484791166,4.198194476176
    ));
#967 = CARTESIAN_POINT('',(-6.137525096025,9.122866433371,0.116313205868
    ));
#968 = CARTESIAN_POINT('',(-6.310790690082,8.490105508638,
    -3.965553298928));
#969 = CARTESIAN_POINT('',(-6.483723162869,7.857244689521,
    -8.047416074076));
#970 = ORIENTED_EDGE('',*,*,#971,.F.);
#971 = EDGE_CURVE('',#847,#963,#972,.T.);
#972 = B_SPLINE_CURVE_WITH_KNOTS('',3,(#973,#974,#975,#976,#977),
  .UNSPECIFIED.,.F.,.F.,(4,1,4),(-0.104262394449,-4.468388333526E-02,0.)
  ,.UNSPECIFIED.);
#973 = CARTESIAN_POINT('',(-5.364033685336,9.720856628494,4.895176796816
    ));
#974 = CARTESIAN_POINT('',(-5.551894408255,9.754402707544,4.881264227145
    ));
#975 = CARTESIAN_POINT('',(-5.858090316428,9.798613224274,4.691255293175
    ));
#976 = CARTESIAN_POINT('',(-5.957786831658,9.778276376432,4.345253985074
    ));
#977 = CARTESIAN_POINT('',(-5.964037148764,9.755484791166,4.198194476174
    ));
#978 = ORIENTED_EDGE('',*,*,#855,.F.);
#979 = B_SPLINE_SURFACE_WITH_KNOTS('',3,3,(
    (#980,#981,#982,#983)
    ,(#984,#985,#986,#987)
    ,(#988,#989,#990,#991)
    ,(#992,#993,#994,#995)
    ,(#996,#997,#998,#999)
    ,(#1000,#1001,#1002,#1003)
    ,(#1004,#1005,#1006,#1007
    )),.UNSPECIFIED.,.F.,.F.,.F.,(4,1,1,1,4),(4,4),(-0.456247299892,
    -0.338391029726,-0.22053475956,-0.161606624477,-4.375035431153E-02),
  (6.597233365237E-02,0.92957051936),.UNSPECIFIED.);
#980 = CARTESIAN_POINT('',(-6.005919646758,9.901899736429,4.963417589205
    ));
#981 = CARTESIAN_POINT('',(-6.174896907911,9.179218992384,0.364540127102
    ));
#982 = CARTESIAN_POINT('',(-6.343874169064,8.456538248339,
    -4.234337335002));
#983 = CARTESIAN_POINT('',(-6.512851430216,7.733857504294,
    -8.833214797106));
#984 = CARTESIAN_POINT('',(-5.587787986953,9.737617450456,4.989233377001
    ));
#985 = CARTESIAN_POINT('',(-5.745264034933,9.014936706411,0.390355914897
    ));
#986 = CARTESIAN_POINT('',(-5.901951170999,8.292255962366,
    -4.208521547207));
#987 = CARTESIAN_POINT('',(-6.05942721898,7.569575218322,-8.807399009311
    ));
#988 = CARTESIAN_POINT('',(-3.600552851298,9.445597068185,5.035122294215
    ));
#989 = CARTESIAN_POINT('',(-3.701848547321,8.72291632414,0.436244832111)
  );
#990 = CARTESIAN_POINT('',(-3.803163099027,8.000235580095,
    -4.162632629993));
#991 = CARTESIAN_POINT('',(-3.90445879505,7.27755483605,-8.761510092097)
  );
#992 = CARTESIAN_POINT('',(0.442178056986,9.362456870114,5.048187182484)
  );
#993 = CARTESIAN_POINT('',(0.454639271784,8.639776126069,0.44930972038)
  );
#994 = CARTESIAN_POINT('',(0.467039038324,7.917095382024,-4.149567741724
    ));
#995 = CARTESIAN_POINT('',(0.479500253122,7.194414637979,-8.748445203828
    ));
#996 = CARTESIAN_POINT('',(4.099661009287,9.52009860068,5.023414910537)
  );
#997 = CARTESIAN_POINT('',(4.215005709791,8.797417856635,0.424537448434)
  );
#998 = CARTESIAN_POINT('',(4.330349654089,8.07473711259,-4.17434001367)
  );
#999 = CARTESIAN_POINT('',(4.445694354594,7.352056368545,-8.773217475774
    ));
#1000 = CARTESIAN_POINT('',(5.587834804156,9.737626577117,4.989231942812
    ));
#1001 = CARTESIAN_POINT('',(5.745309565234,9.014945833072,0.390354480708
    ));
#1002 = CARTESIAN_POINT('',(5.902003226728,8.292265089027,
    -4.208522981396));
#1003 = CARTESIAN_POINT('',(6.059477987806,7.569584344982,-8.8074004435)
  );
#1004 = CARTESIAN_POINT('',(6.00594461343,9.901909546013,4.963416047699)
  );
#1005 = CARTESIAN_POINT('',(6.174922577023,9.179228801968,0.364538585596
    ));
#1006 = CARTESIAN_POINT('',(6.343900540616,8.456548057923,
    -4.234338876508));
#1007 = CARTESIAN_POINT('',(6.51287850421,7.733867313878,-8.833216338612
    ));
#1008 = ADVANCED_FACE('',(#1009),#1030,.F.);
#1009 = FACE_BOUND('',#1010,.F.);
#1010 = EDGE_LOOP('',(#1011,#1021,#1028,#1029));
#1011 = ORIENTED_EDGE('',*,*,#1012,.F.);
#1012 = EDGE_CURVE('',#1013,#810,#1015,.T.);
#1013 = VERTEX_POINT('',#1014);
#1014 = CARTESIAN_POINT('',(-6.350816549413,9.555983161047,
    4.245686488244));
#1015 = B_SPLINE_CURVE_WITH_KNOTS('',3,(#1016,#1017,#1018,#1019,#1020),
  .UNSPECIFIED.,.F.,.F.,(4,1,4),(0.,4.468388333526E-02,0.104262394449),
  .UNSPECIFIED.);
#1016 = CARTESIAN_POINT('',(-6.350816549413,9.555983161047,
    4.245686488244));
#1017 = CARTESIAN_POINT('',(-6.338551168445,9.600226142391,4.45113296941
    ));
#1018 = CARTESIAN_POINT('',(-6.16473925271,9.652714398621,4.933333269301
    ));
#1019 = CARTESIAN_POINT('',(-5.696782997885,9.594989488843,
    5.200004162835));
#1020 = CARTESIAN_POINT('',(-5.419512266842,9.540353899509,
    5.221642019996));
#1021 = ORIENTED_EDGE('',*,*,#1022,.F.);
#1022 = EDGE_CURVE('',#963,#1013,#1023,.T.);
#1023 = CIRCLE('',#1024,0.3);
#1024 = AXIS2_PLACEMENT_3D('',#1025,#1026,#1027);
#1025 = CARTESIAN_POINT('',(-6.061720206486,9.475837640235,
    4.245686488243));
#1026 = DIRECTION('',(4.238084241981E-02,0.152873752995,0.987336558546)
  );
#1027 = DIRECTION('',(0.325610192556,0.932157169718,-0.158306706891));
#1028 = ORIENTED_EDGE('',*,*,#971,.F.);
#1029 = ORIENTED_EDGE('',*,*,#846,.F.);
#1030 = B_SPLINE_SURFACE_WITH_KNOTS('',3,3,(
    (#1031,#1032,#1033,#1034,#1035)
    ,(#1036,#1037,#1038,#1039,#1040)
    ,(#1041,#1042,#1043,#1044,#1045)
    ,(#1046,#1047,#1048,#1049,#1050)
    ,(#1051,#1052,#1053,#1054,#1055
  )),.UNSPECIFIED.,.F.,.F.,.F.,(4,1,4),(4,1,4),(0.,0.5,1.),(0.,
    4.468388333526E-02,0.104262394449),.UNSPECIFIED.);
#1031 = CARTESIAN_POINT('',(-6.350816549413,9.555983161047,
    4.245686488244));
#1032 = CARTESIAN_POINT('',(-6.338551168445,9.600226142391,4.45113296941
    ));
#1033 = CARTESIAN_POINT('',(-6.16473925271,9.652714398621,4.933333269301
    ));
#1034 = CARTESIAN_POINT('',(-5.696782997885,9.594989488843,
    5.200004162835));
#1035 = CARTESIAN_POINT('',(-5.419512266842,9.540353899509,
    5.221642019996));
#1036 = CARTESIAN_POINT('',(-6.329245679438,9.6337923706,4.23271302199)
  );
#1037 = CARTESIAN_POINT('',(-6.314059621098,9.675249378608,
    4.439717534267));
#1038 = CARTESIAN_POINT('',(-6.13423459516,9.715731635272,4.917675353579
    ));
#1039 = CARTESIAN_POINT('',(-5.678466724929,9.654887833457,
    5.174981085219));
#1040 = CARTESIAN_POINT('',(-5.406656211001,9.602409643403,
    5.197065487761));
#1041 = CARTESIAN_POINT('',(-6.218107274213,9.769792790023,
    4.206884915511));
#1042 = CARTESIAN_POINT('',(-6.202563344152,9.801773661152,
    4.402664732627));
#1043 = CARTESIAN_POINT('',(-6.038065861854,9.81704027612,4.848568073694
    ));
#1044 = CARTESIAN_POINT('',(-5.628414975256,9.753994761165,
    5.082766591847));
#1045 = CARTESIAN_POINT('',(-5.380996663403,9.70858038225,5.103353173122
    ));
#1046 = CARTESIAN_POINT('',(-6.041282284067,9.782324496909,
    4.197354466117));
#1047 = CARTESIAN_POINT('',(-6.032314376902,9.80687801108,4.360989236675
    ));
#1048 = CARTESIAN_POINT('',(-5.91359646778,9.821136351129,4.741135653183
    ));
#1049 = CARTESIAN_POINT('',(-5.574188702506,9.769358204151,
    4.946027152298));
#1050 = CARTESIAN_POINT('',(-5.366730696573,9.732309581627,
    4.962122711208));
#1051 = CARTESIAN_POINT('',(-5.964037148764,9.755484791166,
    4.198194476174));
#1052 = CARTESIAN_POINT('',(-5.957786831658,9.778276376432,
    4.345253985074));
#1053 = CARTESIAN_POINT('',(-5.858090316428,9.798613224274,
    4.691255293175));
#1054 = CARTESIAN_POINT('',(-5.551894408255,9.754402707544,
    4.881264227145));
#1055 = CARTESIAN_POINT('',(-5.364033685336,9.720856628494,
    4.895176796816));
#1056 = ADVANCED_FACE('',(#1057),#1076,.T.);
#1057 = FACE_BOUND('',#1058,.T.);
#1058 = EDGE_LOOP('',(#1059,#1068,#1069,#1070));
#1059 = ORIENTED_EDGE('',*,*,#1060,.T.);
#1060 = EDGE_CURVE('',#1061,#824,#1063,.T.);
#1061 = VERTEX_POINT('',#1062);
#1062 = CARTESIAN_POINT('',(-9.,0.,8.030234274792));
#1063 = ELLIPSE('',#1064,1.110721647479,1.);
#1064 = AXIS2_PLACEMENT_3D('',#1065,#1066,#1067);
#1065 = CARTESIAN_POINT('',(-7.96228365616,0.,7.924431607054));
#1066 = DIRECTION('',(0.,1.,0.));
#1067 = DIRECTION('',(-0.573462344363,0.,0.819231920519));
#1068 = ORIENTED_EDGE('',*,*,#823,.T.);
#1069 = ORIENTED_EDGE('',*,*,#1012,.F.);
#1070 = ORIENTED_EDGE('',*,*,#1071,.T.);
#1071 = EDGE_CURVE('',#1013,#1061,#1072,.T.);
#1072 = LINE('',#1073,#1074);
#1073 = CARTESIAN_POINT('',(-8.525636679558,1.711096263024,
    7.352572388445));
#1074 = VECTOR('',#1075,1.);
#1075 = DIRECTION('',(-0.249592436954,-0.900315576157,0.356560624221));
#1076 = CYLINDRICAL_SURFACE('',#1077,1.);
#1077 = AXIS2_PLACEMENT_3D('',#1078,#1079,#1080);
#1078 = CARTESIAN_POINT('',(-7.561982203134,1.443944526986,
    7.352572388445));
#1079 = DIRECTION('',(0.249592436954,0.900315576157,-0.356560624221));
#1080 = DIRECTION('',(-0.650177890387,0.428681569386,0.627296439429));
#1081 = ADVANCED_FACE('',(#1082),#1107,.F.);
#1082 = FACE_BOUND('',#1083,.T.);
#1083 = EDGE_LOOP('',(#1084,#1085,#1093,#1101));
#1084 = ORIENTED_EDGE('',*,*,#1071,.F.);
#1085 = ORIENTED_EDGE('',*,*,#1086,.F.);
#1086 = EDGE_CURVE('',#1087,#1013,#1089,.T.);
#1087 = VERTEX_POINT('',#1088);
#1088 = CARTESIAN_POINT('',(-6.87646737191,7.659885551324,
    -8.000000000029));
#1089 = LINE('',#1090,#1091);
#1090 = CARTESIAN_POINT('',(-6.87646737191,7.659885551323,
    -8.000000000029));
#1091 = VECTOR('',#1092,1.);
#1092 = DIRECTION('',(4.23817789628E-02,0.152877131259,0.987335995267));
#1093 = ORIENTED_EDGE('',*,*,#1094,.F.);
#1094 = EDGE_CURVE('',#1095,#1087,#1097,.T.);
#1095 = VERTEX_POINT('',#1096);
#1096 = CARTESIAN_POINT('',(-9.,0.,-8.));
#1097 = LINE('',#1098,#1099);
#1098 = CARTESIAN_POINT('',(-9.,-1.318389841742E-15,-8.));
#1099 = VECTOR('',#1100,1.);
#1100 = DIRECTION('',(0.267151736038,0.963654476424,-2.118557202988E-16)
  );
#1101 = ORIENTED_EDGE('',*,*,#1102,.F.);
#1102 = EDGE_CURVE('',#1061,#1095,#1103,.T.);
#1103 = LINE('',#1104,#1105);
#1104 = CARTESIAN_POINT('',(-9.,0.,9.));
#1105 = VECTOR('',#1106,1.);
#1106 = DIRECTION('',(0.,0.,-1.));
#1107 = PLANE('',#1108);
#1108 = AXIS2_PLACEMENT_3D('',#1109,#1110,#1111);
#1109 = CARTESIAN_POINT('',(-9.,0.,9.));
#1110 = DIRECTION('',(0.963654476424,-0.267151736038,0.));
#1111 = DIRECTION('',(0.,0.,-1.));
#1112 = ADVANCED_FACE('',(#1113),#1125,.F.);
#1113 = FACE_BOUND('',#1114,.F.);
#1114 = EDGE_LOOP('',(#1115,#1116,#1123,#1124));
#1115 = ORIENTED_EDGE('',*,*,#1086,.F.);
#1116 = ORIENTED_EDGE('',*,*,#1117,.T.);
#1117 = EDGE_CURVE('',#1087,#952,#1118,.T.);
#1118 = CIRCLE('',#1119,0.3);
#1119 = AXIS2_PLACEMENT_3D('',#1120,#1121,#1122);
#1120 = CARTESIAN_POINT('',(-6.587371028983,7.579740030513,
    -8.00000000002));
#1121 = DIRECTION('',(-4.238063128997E-02,-0.152872991547,
    -0.987336685507));
#1122 = DIRECTION('',(-0.963654476424,0.267151736038,-2.921739239437E-11
    ));
#1123 = ORIENTED_EDGE('',*,*,#962,.F.);
#1124 = ORIENTED_EDGE('',*,*,#1022,.T.);
#1125 = B_SPLINE_SURFACE_WITH_KNOTS('',3,3,(
    (#1126,#1127,#1128,#1129)
    ,(#1130,#1131,#1132,#1133)
    ,(#1134,#1135,#1136,#1137)
    ,(#1138,#1139,#1140,#1141)
    ,(#1142,#1143,#1144,#1145
  )),.UNSPECIFIED.,.F.,.F.,.F.,(4,1,4),(4,4),(0.,0.5,1.),(0.101611891424
    ,1.341887395102),.UNSPECIFIED.);
#1126 = CARTESIAN_POINT('',(-5.964037148764,9.755484791166,
    4.198194476176));
#1127 = CARTESIAN_POINT('',(-6.137525096025,9.122866433371,
    0.116313205868));
#1128 = CARTESIAN_POINT('',(-6.310790690082,8.490105508638,
    -3.965553298928));
#1129 = CARTESIAN_POINT('',(-6.483723162869,7.857244689521,
    -8.047416074076));
#1130 = CARTESIAN_POINT('',(-6.041282284067,9.782324496909,
    4.197354466118));
#1131 = CARTESIAN_POINT('',(-6.214890735326,9.150281334043,
    0.115389262627));
#1132 = CARTESIAN_POINT('',(-6.388305553275,8.518139750493,
    -3.966566748307));
#1133 = CARTESIAN_POINT('',(-6.561378840716,7.886056363232,
    -8.048543784729));
#1134 = CARTESIAN_POINT('',(-6.218101371631,9.76978169515,4.206886380016
    ));
#1135 = CARTESIAN_POINT('',(-6.392538844804,9.138460871062,0.12484538189
    ));
#1136 = CARTESIAN_POINT('',(-6.566885068183,8.507217844959,
    -3.957209782862));
#1137 = CARTESIAN_POINT('',(-6.741053552011,7.876127377234,
    -8.039294050953));
#1138 = CARTESIAN_POINT('',(-6.329245679438,9.6337923706,4.232713021991)
  );
#1139 = CARTESIAN_POINT('',(-6.504388358944,9.002069742897,
    0.150765733982));
#1140 = CARTESIAN_POINT('',(-6.679498927495,8.370320664183,
    -3.931178234452));
#1141 = CARTESIAN_POINT('',(-6.854617849883,7.738699898635,
    -8.013140990106));
#1142 = CARTESIAN_POINT('',(-6.350816549413,9.555983161047,
    4.245686488244));
#1143 = CARTESIAN_POINT('',(-6.526029618322,8.923964591053,0.16378866341
    ));
#1144 = CARTESIAN_POINT('',(-6.701255175732,8.291900973253,
    -3.918101650306));
#1145 = CARTESIAN_POINT('',(-6.87646737191,7.659885551323,
    -8.000000000029));
#1146 = ADVANCED_FACE('',(#1147),#1169,.F.);
#1147 = FACE_BOUND('',#1148,.F.);
#1148 = EDGE_LOOP('',(#1149,#1160,#1167,#1168));
#1149 = ORIENTED_EDGE('',*,*,#1150,.F.);
#1150 = EDGE_CURVE('',#1151,#1087,#1153,.T.);
#1151 = VERTEX_POINT('',#1152);
#1152 = CARTESIAN_POINT('',(-5.938803412789,7.298982306427,-9.));
#1153 = B_SPLINE_CURVE_WITH_KNOTS('',3,(#1154,#1155,#1156,#1157,#1158,
    #1159),.UNSPECIFIED.,.F.,.F.,(4,1,1,4),(3.540707383199E-13,
    3.16485379115E-02,6.329707582265E-02,0.110769882689),.UNSPECIFIED.);
#1154 = CARTESIAN_POINT('',(-5.938803412789,7.298982306427,-9.));
#1155 = CARTESIAN_POINT('',(-6.085940959536,7.330202765733,
    -9.000000000001));
#1156 = CARTESIAN_POINT('',(-6.378459648585,7.404300478624,
    -8.930598266803));
#1157 = CARTESIAN_POINT('',(-6.773466192067,7.551797050346,
    -8.592079994901));
#1158 = CARTESIAN_POINT('',(-6.883173796989,7.635694517981,
    -8.22319830376));
#1159 = CARTESIAN_POINT('',(-6.87646737191,7.659885551324,
    -8.000000000029));
#1160 = ORIENTED_EDGE('',*,*,#1161,.F.);
#1161 = EDGE_CURVE('',#939,#1151,#1162,.T.);
#1162 = CIRCLE('',#1163,0.3);
#1163 = AXIS2_PLACEMENT_3D('',#1164,#1165,#1166);
#1164 = CARTESIAN_POINT('',(-5.93880341279,7.298982306428,-8.7));
#1165 = DIRECTION('',(-0.983319453563,0.181886921588,-4.835978839601E-12
    ));
#1166 = DIRECTION('',(0.179586750763,0.970884239971,-0.158531988966));
#1167 = ORIENTED_EDGE('',*,*,#951,.F.);
#1168 = ORIENTED_EDGE('',*,*,#1117,.F.);
#1169 = B_SPLINE_SURFACE_WITH_KNOTS('',3,3,(
    (#1170,#1171,#1172,#1173,#1174,#1175)
    ,(#1176,#1177,#1178,#1179,#1180,#1181)
    ,(#1182,#1183,#1184,#1185,#1186,#1187)
    ,(#1188,#1189,#1190,#1191,#1192,#1193)
    ,(#1194,#1195,#1196,#1197,#1198,#1199
    )),.UNSPECIFIED.,.F.,.F.,.F.,(4,1,4),(4,1,1,4),(0.,0.5,1.),(
    3.540707383199E-13,3.16485379115E-02,6.329707582265E-02,
    0.110769882689),.UNSPECIFIED.);
#1170 = CARTESIAN_POINT('',(-5.938803412789,7.298982306427,-9.));
#1171 = CARTESIAN_POINT('',(-6.085940959536,7.330202765733,
    -9.000000000001));
#1172 = CARTESIAN_POINT('',(-6.378459648585,7.404300478624,
    -8.930598266803));
#1173 = CARTESIAN_POINT('',(-6.773466192067,7.551797050346,
    -8.592079994901));
#1174 = CARTESIAN_POINT('',(-6.883173796989,7.635694517981,
    -8.22319830376));
#1175 = CARTESIAN_POINT('',(-6.87646737191,7.659885551324,
    -8.000000000029));
#1176 = CARTESIAN_POINT('',(-5.925965900567,7.368384632848,-9.));
#1177 = CARTESIAN_POINT('',(-6.070744421314,7.398495069818,
    -8.999057014269));
#1178 = CARTESIAN_POINT('',(-6.356972480123,7.470822130963,
    -8.93016563318));
#1179 = CARTESIAN_POINT('',(-6.745235055812,7.620537472639,
    -8.602099261013));
#1180 = CARTESIAN_POINT('',(-6.858961808268,7.711774133909,
    -8.237788283699));
#1181 = CARTESIAN_POINT('',(-6.854617849883,7.738699898636,
    -8.013140990107));
#1182 = CARTESIAN_POINT('',(-5.900353608614,7.506850140484,
    -8.948043510561));
#1183 = CARTESIAN_POINT('',(-6.03270678826,7.532640997636,-8.94629778584
    ));
#1184 = CARTESIAN_POINT('',(-6.292841627281,7.597886690608,
    -8.88210659623));
#1185 = CARTESIAN_POINT('',(-6.64122790583,7.744476624651,
    -8.585362352518));
#1186 = CARTESIAN_POINT('',(-6.744040073288,7.844874701068,
    -8.24999300883));
#1187 = CARTESIAN_POINT('',(-6.741052796997,7.876125921138,
    -8.039293857907));
#1188 = CARTESIAN_POINT('',(-5.88696254391,7.579245089573,
    -8.817246668737));
#1189 = CARTESIAN_POINT('',(-5.997690681562,7.599800819364,
    -8.816627672104));
#1190 = CARTESIAN_POINT('',(-6.215008031262,7.653285534676,
    -8.76289066959));
#1191 = CARTESIAN_POINT('',(-6.496694440226,7.776425534793,
    -8.506432245798));
#1192 = CARTESIAN_POINT('',(-6.567124876022,7.858368982912,
    -8.222882771622));
#1193 = CARTESIAN_POINT('',(-6.561378840716,7.886056363233,
    -8.048543784723));
#1194 = CARTESIAN_POINT('',(-5.884927387564,7.59024757842,-8.74755959669
    ));
#1195 = CARTESIAN_POINT('',(-5.985012257689,7.608753255024,
    -8.747604047404));
#1196 = CARTESIAN_POINT('',(-6.181573840978,7.656932768724,
    -8.699111688302));
#1197 = CARTESIAN_POINT('',(-6.432634632276,7.764920266219,
    -8.462144977241));
#1198 = CARTESIAN_POINT('',(-6.490342329218,7.833021297742,
    -8.203653525026));
#1199 = CARTESIAN_POINT('',(-6.483723162869,7.857244689522,
    -8.047416074067));
#1200 = ADVANCED_FACE('',(#1201),#1220,.T.);
#1201 = FACE_BOUND('',#1202,.T.);
#1202 = EDGE_LOOP('',(#1203,#1212,#1213,#1214));
#1203 = ORIENTED_EDGE('',*,*,#1204,.T.);
#1204 = EDGE_CURVE('',#1205,#1095,#1207,.T.);
#1205 = VERTEX_POINT('',#1206);
#1206 = CARTESIAN_POINT('',(-7.96228365616,0.,-9.));
#1207 = ELLIPSE('',#1208,1.03771634384,1.);
#1208 = AXIS2_PLACEMENT_3D('',#1209,#1210,#1211);
#1209 = CARTESIAN_POINT('',(-7.96228365616,0.,-8.));
#1210 = DIRECTION('',(0.,1.,0.));
#1211 = DIRECTION('',(-1.,0.,1.337339234386E-15));
#1212 = ORIENTED_EDGE('',*,*,#1094,.T.);
#1213 = ORIENTED_EDGE('',*,*,#1150,.F.);
#1214 = ORIENTED_EDGE('',*,*,#1215,.T.);
#1215 = EDGE_CURVE('',#1151,#1205,#1216,.T.);
#1216 = LINE('',#1217,#1218);
#1217 = CARTESIAN_POINT('',(-8.036345523576,-0.267151736038,-9.));
#1218 = VECTOR('',#1219,1.);
#1219 = DIRECTION('',(-0.267151736038,-0.963654476424,2.118557202988E-16
    ));
#1220 = CYLINDRICAL_SURFACE('',#1221,1.);
#1221 = AXIS2_PLACEMENT_3D('',#1222,#1223,#1224);
#1222 = CARTESIAN_POINT('',(-8.036345523576,-0.267151736038,-8.));
#1223 = DIRECTION('',(0.267151736038,0.963654476424,-2.118557202988E-16)
  );
#1224 = DIRECTION('',(-0.681406615,0.188904804158,-0.707106781187));
#1225 = ADVANCED_FACE('',(#1226),#1256,.F.);
#1226 = FACE_BOUND('',#1227,.T.);
#1227 = EDGE_LOOP('',(#1228,#1229,#1242,#1250));
#1228 = ORIENTED_EDGE('',*,*,#1215,.F.);
#1229 = ORIENTED_EDGE('',*,*,#1230,.F.);
#1230 = EDGE_CURVE('',#1231,#1151,#1233,.T.);
#1231 = VERTEX_POINT('',#1232);
#1232 = CARTESIAN_POINT('',(5.938803411095,7.298982306068,-9.));
#1233 = B_SPLINE_CURVE_WITH_KNOTS('',3,(#1234,#1235,#1236,#1237,#1238,
    #1239,#1240,#1241),.UNSPECIFIED.,.F.,.F.,(4,1,1,1,1,4),(
    -1.33324479857,-1.162740620788,-0.992236443006,-0.651228087441,
    -0.310219731877,-0.139715554095),.UNSPECIFIED.);
#1234 = CARTESIAN_POINT('',(5.938803411595,7.298982306207,-9.));
#1235 = CARTESIAN_POINT('',(5.380476002714,7.195707166898,-9.));
#1236 = CARTESIAN_POINT('',(4.242349348704,7.076634402122,-9.));
#1237 = CARTESIAN_POINT('',(1.991009458315,6.944051318556,-9.));
#1238 = CARTESIAN_POINT('',(-0.85101519418,6.912856540888,-9.));
#1239 = CARTESIAN_POINT('',(-3.677641852516,7.018036410034,-9.));
#1240 = CARTESIAN_POINT('',(-5.379614870808,7.195547881212,-9.));
#1241 = CARTESIAN_POINT('',(-5.938803412789,7.298982306427,-9.));
#1242 = ORIENTED_EDGE('',*,*,#1243,.F.);
#1243 = EDGE_CURVE('',#1244,#1231,#1246,.T.);
#1244 = VERTEX_POINT('',#1245);
#1245 = CARTESIAN_POINT('',(7.96228365616,0.,-9.));
#1246 = LINE('',#1247,#1248);
#1247 = CARTESIAN_POINT('',(7.394015072962,2.049825960821,-9.));
#1248 = VECTOR('',#1249,1.);
#1249 = DIRECTION('',(-0.267151736038,0.963654476424,-2.118557202988E-16
    ));
#1250 = ORIENTED_EDGE('',*,*,#1251,.F.);
#1251 = EDGE_CURVE('',#1205,#1244,#1252,.T.);
#1252 = LINE('',#1253,#1254);
#1253 = CARTESIAN_POINT('',(-9.,0.,-9.));
#1254 = VECTOR('',#1255,1.);
#1255 = DIRECTION('',(1.,0.,0.));
#1256 = PLANE('',#1257);
#1257 = AXIS2_PLACEMENT_3D('',#1258,#1259,#1260);
#1258 = CARTESIAN_POINT('',(-9.,0.,-9.));
#1259 = DIRECTION('',(0.,2.198461434901E-16,1.));
#1260 = DIRECTION('',(1.,0.,-0.));
#1261 = ADVANCED_FACE('',(#1262),#1274,.F.);
#1262 = FACE_BOUND('',#1263,.F.);
#1263 = EDGE_LOOP('',(#1264,#1265,#1272,#1273));
#1264 = ORIENTED_EDGE('',*,*,#1230,.F.);
#1265 = ORIENTED_EDGE('',*,*,#1266,.T.);
#1266 = EDGE_CURVE('',#1231,#928,#1267,.T.);
#1267 = CIRCLE('',#1268,0.3);
#1268 = AXIS2_PLACEMENT_3D('',#1269,#1270,#1271);
#1269 = CARTESIAN_POINT('',(5.938803411596,7.298982306207,-8.7));
#1270 = DIRECTION('',(0.983319453641,0.181886921165,-1.726341313368E-09)
  );
#1271 = DIRECTION('',(-1.669990072154E-09,-4.629667020121E-10,-1.));
#1272 = ORIENTED_EDGE('',*,*,#938,.F.);
#1273 = ORIENTED_EDGE('',*,*,#1161,.T.);
#1274 = B_SPLINE_SURFACE_WITH_KNOTS('',3,3,(
    (#1275,#1276,#1277,#1278,#1279,#1280,#1281,#1282)
    ,(#1283,#1284,#1285,#1286,#1287,#1288,#1289,#1290)
    ,(#1291,#1292,#1293,#1294,#1295,#1296,#1297,#1298)
    ,(#1299,#1300,#1301,#1302,#1303,#1304,#1305,#1306)
    ,(#1307,#1308,#1309,#1310,#1311,#1312,#1313,#1314
  )),.UNSPECIFIED.,.F.,.F.,.F.,(4,1,4),(4,1,1,1,1,4),(0.,0.5,1.),(
    0.139715554095,0.310219731877,0.651228087441,0.992236443006,
    1.162740620788,1.33324479857),.UNSPECIFIED.);
#1275 = CARTESIAN_POINT('',(-5.884927387563,7.590247578419,
    -8.74755959669));
#1276 = CARTESIAN_POINT('',(-5.345417179909,7.490492226636,
    -8.74731998391));
#1277 = CARTESIAN_POINT('',(-3.659919197252,7.314023286978,
    -8.746774437902));
#1278 = CARTESIAN_POINT('',(-0.848300853495,7.209454128317,
    -8.746528164295));
#1279 = CARTESIAN_POINT('',(1.983521509559,7.240699165586,
    -8.746604125672));
#1280 = CARTESIAN_POINT('',(4.218892375565,7.37208322961,-8.74694221726)
  );
#1281 = CARTESIAN_POINT('',(5.346248007795,7.490645846661,
    -8.747320352906));
#1282 = CARTESIAN_POINT('',(5.884927386412,7.590247578206,
    -8.747559596689));
#1283 = CARTESIAN_POINT('',(-5.886962543909,7.579245089573,
    -8.817246668737));
#1284 = CARTESIAN_POINT('',(-5.346725259869,7.479407083712,
    -8.817056098058));
#1285 = CARTESIAN_POINT('',(-3.660587511923,7.303015861312,
    -8.816621935496));
#1286 = CARTESIAN_POINT('',(-0.848410368919,7.198476339611,
    -8.816425792189));
#1287 = CARTESIAN_POINT('',(1.983817833421,7.229704582138,
    -8.816486325581));
#1288 = CARTESIAN_POINT('',(4.219778100068,7.361058880757,
    -8.816755447874));
#1289 = CARTESIAN_POINT('',(5.34755720743,7.479560831022,-8.81705639153)
  );
#1290 = CARTESIAN_POINT('',(5.886962542756,7.57924508936,-8.817246668736
    ));
#1291 = CARTESIAN_POINT('',(-5.900363478011,7.506796784414,
    -8.947979842091));
#1292 = CARTESIAN_POINT('',(-5.355188955656,7.406076358295,
    -8.947917333274));
#1293 = CARTESIAN_POINT('',(-3.664971424243,7.229521651559,
    -8.947775336521));
#1294 = CARTESIAN_POINT('',(-0.849069567476,7.124874248475,
    -8.947711250065));
#1295 = CARTESIAN_POINT('',(1.985646718594,7.156074360228,
    -8.947730889667));
#1296 = CARTESIAN_POINT('',(4.225588569511,7.287670813675,
    -8.947819115075));
#1297 = CARTESIAN_POINT('',(5.35602850641,7.406231464505,-8.947917429536
    ));
#1298 = CARTESIAN_POINT('',(5.900363476848,7.506796784199,
    -8.947979842091));
#1299 = CARTESIAN_POINT('',(-5.925965900567,7.368384632848,-9.));
#1300 = CARTESIAN_POINT('',(-5.371465335885,7.265858712684,
    -9.000000947692));
#1301 = CARTESIAN_POINT('',(-3.673413638696,7.088667293987,
    -9.000001655345));
#1302 = CARTESIAN_POINT('',(-0.850368463475,6.983665359232,
    -9.000001613647));
#1303 = CARTESIAN_POINT('',(1.989224756206,7.014862344743,
    -9.000002043204));
#1304 = CARTESIAN_POINT('',(4.236755173149,7.147114825028,
    -9.000001121154));
#1305 = CARTESIAN_POINT('',(5.372319248452,7.2660165993,-9.000000946233)
  );
#1306 = CARTESIAN_POINT('',(5.925965899384,7.368384632629,-9.));
#1307 = CARTESIAN_POINT('',(-5.938803412789,7.298982306427,-9.));
#1308 = CARTESIAN_POINT('',(-5.379614870808,7.195547881212,-9.));
#1309 = CARTESIAN_POINT('',(-3.677641852516,7.018036410034,-9.));
#1310 = CARTESIAN_POINT('',(-0.85101519418,6.912856540888,-9.));
#1311 = CARTESIAN_POINT('',(1.991009458315,6.944051318556,-9.));
#1312 = CARTESIAN_POINT('',(4.242349348704,7.076634402122,-9.));
#1313 = CARTESIAN_POINT('',(5.380476002714,7.195707166898,-9.));
#1314 = CARTESIAN_POINT('',(5.938803411595,7.298982306207,-9.));
#1315 = ADVANCED_FACE('',(#1316),#1338,.F.);
#1316 = FACE_BOUND('',#1317,.F.);
#1317 = EDGE_LOOP('',(#1318,#1329,#1336,#1337));
#1318 = ORIENTED_EDGE('',*,*,#1319,.F.);
#1319 = EDGE_CURVE('',#1320,#1231,#1322,.T.);
#1320 = VERTEX_POINT('',#1321);
#1321 = CARTESIAN_POINT('',(6.876467371909,7.659885551327,
    -8.000000000001));
#1322 = B_SPLINE_CURVE_WITH_KNOTS('',3,(#1323,#1324,#1325,#1326,#1327,
    #1328),.UNSPECIFIED.,.F.,.F.,(4,1,1,4),(0.,4.747311640231E-02,
    7.912186067051E-02,0.110770604939),.UNSPECIFIED.);
#1323 = CARTESIAN_POINT('',(6.876467371909,7.659885551327,
    -8.000000000001));
#1324 = CARTESIAN_POINT('',(6.883173840722,7.635694360254,
    -8.223199759045));
#1325 = CARTESIAN_POINT('',(6.773466158419,7.551796503512,
    -8.592082699255));
#1326 = CARTESIAN_POINT('',(6.378453229387,7.404298532949,
    -8.930601350421));
#1327 = CARTESIAN_POINT('',(6.085941917225,7.330202968896,-9.00000000026
    ));
#1328 = CARTESIAN_POINT('',(5.938803411095,7.298982306068,-9.));
#1329 = ORIENTED_EDGE('',*,*,#1330,.F.);
#1330 = EDGE_CURVE('',#919,#1320,#1331,.T.);
#1331 = CIRCLE('',#1332,0.3);
#1332 = AXIS2_PLACEMENT_3D('',#1333,#1334,#1335);
#1333 = CARTESIAN_POINT('',(6.587371028982,7.579740030516,-8.));
#1334 = DIRECTION('',(4.238063131688E-02,-0.152872991538,-0.987336685507
    ));
#1335 = DIRECTION('',(-0.345492887048,0.925015530031,-0.158053580156));
#1336 = ORIENTED_EDGE('',*,*,#927,.F.);
#1337 = ORIENTED_EDGE('',*,*,#1266,.F.);
#1338 = B_SPLINE_SURFACE_WITH_KNOTS('',3,3,(
    (#1339,#1340,#1341,#1342,#1343,#1344)
    ,(#1345,#1346,#1347,#1348,#1349,#1350)
    ,(#1351,#1352,#1353,#1354,#1355,#1356)
    ,(#1357,#1358,#1359,#1360,#1361,#1362)
    ,(#1363,#1364,#1365,#1366,#1367,#1368
    )),.UNSPECIFIED.,.F.,.F.,.F.,(4,1,4),(4,1,1,4),(0.,0.5,1.),(0.,
    4.747311640231E-02,7.912186067051E-02,0.110770604939),
  .UNSPECIFIED.);
#1339 = CARTESIAN_POINT('',(6.876467371909,7.659885551327,
    -8.000000000001));
#1340 = CARTESIAN_POINT('',(6.883173840722,7.635694360254,
    -8.223199759045));
#1341 = CARTESIAN_POINT('',(6.773466158419,7.551796503512,
    -8.592082699255));
#1342 = CARTESIAN_POINT('',(6.378453229387,7.404298532949,
    -8.930601350421));
#1343 = CARTESIAN_POINT('',(6.085941917225,7.330202968896,-9.00000000026
    ));
#1344 = CARTESIAN_POINT('',(5.938803411095,7.298982306068,-9.));
#1345 = CARTESIAN_POINT('',(6.854617849882,7.738699898639,
    -8.013140990078));
#1346 = CARTESIAN_POINT('',(6.858961836597,7.711773958351,
    -8.237789748432));
#1347 = CARTESIAN_POINT('',(6.74523499717,7.620536867191,-8.602101857943
    ));
#1348 = CARTESIAN_POINT('',(6.356966204161,7.470820202591,-8.93016862295
    ));
#1349 = CARTESIAN_POINT('',(6.070745363655,7.398495265753,
    -8.999057008382));
#1350 = CARTESIAN_POINT('',(5.925965898901,7.368384632501,
    -9.000000000011));
#1351 = CARTESIAN_POINT('',(6.741052796997,7.876125921142,-8.03929385788
    ));
#1352 = CARTESIAN_POINT('',(6.744040092771,7.844874497308,-8.24999438262
    ));
#1353 = CARTESIAN_POINT('',(6.641227897163,7.744475933603,
    -8.585364675382));
#1354 = CARTESIAN_POINT('',(6.292835970857,7.597884890186,
    -8.882109305274));
#1355 = CARTESIAN_POINT('',(6.032707649733,7.532641165452,
    -8.946297774704));
#1356 = CARTESIAN_POINT('',(5.90035360709,7.506850140187,-8.948043510581
    ));
#1357 = CARTESIAN_POINT('',(6.561378840715,7.886056363236,
    -8.048543784701));
#1358 = CARTESIAN_POINT('',(6.567124913491,7.858368802388,
    -8.222883908338));
#1359 = CARTESIAN_POINT('',(6.496694556779,7.776424949778,
    -8.506434277557));
#1360 = CARTESIAN_POINT('',(6.215003345839,7.653284021978,-8.76289300818
    ));
#1361 = CARTESIAN_POINT('',(5.997691402281,7.599800953109,
    -8.816627668271));
#1362 = CARTESIAN_POINT('',(5.886962542636,7.579245089336,
    -8.817246668744));
#1363 = CARTESIAN_POINT('',(6.483723162868,7.857244689525,
    -8.047416074047));
#1364 = CARTESIAN_POINT('',(6.490342372379,7.833021139803,
    -8.203654543717));
#1365 = CARTESIAN_POINT('',(6.432634785272,7.764919781369,
    -8.462146872433));
#1366 = CARTESIAN_POINT('',(6.181569619084,7.656931416526,
    -8.699113845012));
#1367 = CARTESIAN_POINT('',(5.985012909131,7.608753375431,
    -8.747604047875));
#1368 = CARTESIAN_POINT('',(5.884927386412,7.590247578207,
    -8.747559596689));
#1369 = ADVANCED_FACE('',(#1370),#1389,.T.);
#1370 = FACE_BOUND('',#1371,.T.);
#1371 = EDGE_LOOP('',(#1372,#1381,#1382,#1383));
#1372 = ORIENTED_EDGE('',*,*,#1373,.T.);
#1373 = EDGE_CURVE('',#1374,#1244,#1376,.T.);
#1374 = VERTEX_POINT('',#1375);
#1375 = CARTESIAN_POINT('',(9.,0.,-8.));
#1376 = ELLIPSE('',#1377,1.03771634384,1.);
#1377 = AXIS2_PLACEMENT_3D('',#1378,#1379,#1380);
#1378 = CARTESIAN_POINT('',(7.96228365616,0.,-8.));
#1379 = DIRECTION('',(0.,1.,0.));
#1380 = DIRECTION('',(1.,-0.,1.337339234386E-15));
#1381 = ORIENTED_EDGE('',*,*,#1243,.T.);
#1382 = ORIENTED_EDGE('',*,*,#1319,.F.);
#1383 = ORIENTED_EDGE('',*,*,#1384,.T.);
#1384 = EDGE_CURVE('',#1320,#1374,#1385,.T.);
#1385 = LINE('',#1386,#1387);
#1386 = CARTESIAN_POINT('',(8.357669549386,2.316977696859,-8.));
#1387 = VECTOR('',#1388,1.);
#1388 = DIRECTION('',(0.267151736038,-0.963654476424,2.118557202988E-16)
  );
#1389 = CYLINDRICAL_SURFACE('',#1390,1.);
#1390 = AXIS2_PLACEMENT_3D('',#1391,#1392,#1393);
#1391 = CARTESIAN_POINT('',(7.394015072962,2.049825960821,-8.));
#1392 = DIRECTION('',(-0.267151736038,0.963654476424,-2.118557202988E-16
    ));
#1393 = DIRECTION('',(0.681406615,0.188904804158,-0.707106781187));
#1394 = ADVANCED_FACE('',(#1395),#1406,.F.);
#1395 = FACE_BOUND('',#1396,.F.);
#1396 = EDGE_LOOP('',(#1397,#1398,#1399,#1405));
#1397 = ORIENTED_EDGE('',*,*,#918,.F.);
#1398 = ORIENTED_EDGE('',*,*,#1330,.T.);
#1399 = ORIENTED_EDGE('',*,*,#1400,.F.);
#1400 = EDGE_CURVE('',#712,#1320,#1401,.T.);
#1401 = LINE('',#1402,#1403);
#1402 = CARTESIAN_POINT('',(6.350816549413,9.555983161046,4.245686488239
    ));
#1403 = VECTOR('',#1404,1.);
#1404 = DIRECTION('',(4.23817789628E-02,-0.152877131259,-0.987335995267)
  );
#1405 = ORIENTED_EDGE('',*,*,#740,.T.);
#1406 = B_SPLINE_SURFACE_WITH_KNOTS('',3,3,(
    (#1407,#1408,#1409,#1410)
    ,(#1411,#1412,#1413,#1414)
    ,(#1415,#1416,#1417,#1418)
    ,(#1419,#1420,#1421,#1422)
    ,(#1423,#1424,#1425,#1426
  )),.UNSPECIFIED.,.F.,.F.,.F.,(4,1,4),(4,4),(0.,0.5,1.),(0.105385955812
    ,1.345661459487),.UNSPECIFIED.);
#1407 = CARTESIAN_POINT('',(6.483723162868,7.857244689525,
    -8.047416074048));
#1408 = CARTESIAN_POINT('',(6.310790690082,8.490105508641,
    -3.965553298911));
#1409 = CARTESIAN_POINT('',(6.137525096025,9.122866433372,0.116313205874
    ));
#1410 = CARTESIAN_POINT('',(5.964037148764,9.755484791165,4.198194476171
    ));
#1411 = CARTESIAN_POINT('',(6.561378840715,7.886056363236,
    -8.048543784701));
#1412 = CARTESIAN_POINT('',(6.388305553275,8.518139750496,
    -3.966566748289));
#1413 = CARTESIAN_POINT('',(6.214890735325,9.150281334044,0.115389262633
    ));
#1414 = CARTESIAN_POINT('',(6.041282284068,9.782324496908,4.197354466113
    ));
#1415 = CARTESIAN_POINT('',(6.74105355201,7.876127377238,-8.039294050924
    ));
#1416 = CARTESIAN_POINT('',(6.566885068182,8.507217844961,
    -3.957209782844));
#1417 = CARTESIAN_POINT('',(6.392538844804,9.138460871063,0.124845381896
    ));
#1418 = CARTESIAN_POINT('',(6.218101371631,9.769781695149,4.206886380011
    ));
#1419 = CARTESIAN_POINT('',(6.854617849882,7.738699898639,
    -8.013140990078));
#1420 = CARTESIAN_POINT('',(6.679498927495,8.370320664186,
    -3.931178234435));
#1421 = CARTESIAN_POINT('',(6.504388358943,9.002069742898,0.150765733989
    ));
#1422 = CARTESIAN_POINT('',(6.329245679438,9.633792370599,4.232713021986
    ));
#1423 = CARTESIAN_POINT('',(6.876467371909,7.659885551327,
    -8.000000000001));
#1424 = CARTESIAN_POINT('',(6.701255175731,8.291900973255,
    -3.918101650289));
#1425 = CARTESIAN_POINT('',(6.526029618322,8.923964591054,0.163788663416
    ));
#1426 = CARTESIAN_POINT('',(6.350816549413,9.555983161046,4.245686488239
    ));
#1427 = ADVANCED_FACE('',(#1428),#1439,.F.);
#1428 = FACE_BOUND('',#1429,.T.);
#1429 = EDGE_LOOP('',(#1430,#1431,#1437,#1438));
#1430 = ORIENTED_EDGE('',*,*,#787,.F.);
#1431 = ORIENTED_EDGE('',*,*,#1432,.F.);
#1432 = EDGE_CURVE('',#1374,#779,#1433,.T.);
#1433 = LINE('',#1434,#1435);
#1434 = CARTESIAN_POINT('',(9.,0.,-9.));
#1435 = VECTOR('',#1436,1.);
#1436 = DIRECTION('',(0.,0.,1.));
#1437 = ORIENTED_EDGE('',*,*,#1384,.F.);
#1438 = ORIENTED_EDGE('',*,*,#1400,.F.);
#1439 = PLANE('',#1440);
#1440 = AXIS2_PLACEMENT_3D('',#1441,#1442,#1443);
#1441 = CARTESIAN_POINT('',(9.,0.,-9.));
#1442 = DIRECTION('',(-0.963654476424,-0.267151736038,0.));
#1443 = DIRECTION('',(0.,0.,1.));
#1444 = ADVANCED_FACE('',(#1445,#1455),#1461,.F.);
#1445 = FACE_BOUND('',#1446,.T.);
#1446 = EDGE_LOOP('',(#1447,#1448,#1449,#1450,#1451,#1452,#1453,#1454));
#1447 = ORIENTED_EDGE('',*,*,#776,.F.);
#1448 = ORIENTED_EDGE('',*,*,#831,.T.);
#1449 = ORIENTED_EDGE('',*,*,#1060,.F.);
#1450 = ORIENTED_EDGE('',*,*,#1102,.T.);
#1451 = ORIENTED_EDGE('',*,*,#1204,.F.);
#1452 = ORIENTED_EDGE('',*,*,#1251,.T.);
#1453 = ORIENTED_EDGE('',*,*,#1373,.F.);
#1454 = ORIENTED_EDGE('',*,*,#1432,.T.);
#1455 = FACE_BOUND('',#1456,.T.);
#1456 = EDGE_LOOP('',(#1457,#1458,#1459,#1460));
#1457 = ORIENTED_EDGE('',*,*,#590,.T.);
#1458 = ORIENTED_EDGE('',*,*,#694,.T.);
#1459 = ORIENTED_EDGE('',*,*,#670,.T.);
#1460 = ORIENTED_EDGE('',*,*,#646,.T.);
#1461 = PLANE('',#1462);
#1462 = AXIS2_PLACEMENT_3D('',#1463,#1464,#1465);
#1463 = CARTESIAN_POINT('',(-1.110223024625E-15,0.,1.2111523905E-15));
#1464 = DIRECTION('',(0.,1.,0.));
#1465 = DIRECTION('',(0.,-0.,1.));
#1466 = ( GEOMETRIC_REPRESENTATION_CONTEXT(3) 
GLOBAL_UNCERTAINTY_ASSIGNED_CONTEXT((#1470)) 
GLOBAL_UNIT_ASSIGNED_CONTEXT((#1467,#1468,#1469)) REPRESENTATION_CONTEXT
('Context #1','3D Context with UNIT and UNCERTAINTY') );
#1467 = ( LENGTH_UNIT() NAMED_UNIT(*) SI_UNIT(.MILLI.,.METRE.) );
#1468 = ( NAMED_UNIT(*) PLANE_ANGLE_UNIT() SI_UNIT($,.RADIAN.) );
#1469 = ( NAMED_UNIT(*) SI_UNIT($,.STERADIAN.) SOLID_ANGLE_UNIT() );
#1470 = UNCERTAINTY_MEASURE_WITH_UNIT(LENGTH_MEASURE(5.E-04),#1467,
  'distance_accuracy_value','confusion accuracy');
#1471 = PRODUCT_RELATED_PRODUCT_CATEGORY('part',$,(#7));
#1472 = MECHANICAL_DESIGN_GEOMETRIC_PRESENTATION_REPRESENTATION('',(
    #1473),#1466);
#1473 = STYLED_ITEM('color',(#1474),#15);
#1474 = PRESENTATION_STYLE_ASSIGNMENT((#1475,#1481));
#1475 = SURFACE_STYLE_USAGE(.BOTH.,#1476);
#1476 = SURFACE_SIDE_STYLE('',(#1477));
#1477 = SURFACE_STYLE_FILL_AREA(#1478);
#1478 = FILL_AREA_STYLE('',(#1479));
#1479 = FILL_AREA_STYLE_COLOUR('',#1480);
#1480 = COLOUR_RGB('',0.313725504135,0.309803934418,0.309803934418);
#1481 = CURVE_STYLE('',#1482,POSITIVE_LENGTH_MEASURE(0.1),#1483);
#1482 = DRAUGHTING_PRE_DEFINED_CURVE_FONT('continuous');
#1483 = COLOUR_RGB('',9.803921802644E-02,9.803921802644E-02,
  9.803921802644E-02);
ENDSEC;
END-ISO-10303-21;
